<?xml version="1.0" encoding="utf-8"?>
<!-- Generator: Adobe Illustrator 26.3.1, SVG Export Plug-In . SVG Version: 6.00 Build 0)  -->
<svg version="1.1" id="Layer_1" xmlns="http://www.w3.org/2000/svg" xmlns:xlink="http://www.w3.org/1999/xlink" x="0px" y="0px"
	 viewBox="0 0 3061.9 345" style="enable-background:new 0 0 3061.9 345;" xml:space="preserve">
<style type="text/css">
	.st0{fill:#F2891C;}
	.st1{fill:none;}
	.st2{fill:#4193B3;}
	.st3{fill:#E73920;}
</style>
<g>
	<polygon class="st0" points="2354.5,95.7 2398.5,95.7 2398.5,314.5 2436.8,314.5 2436.8,95.7 2480.7,95.7 2480.7,59 2354.5,59 	"/>
	<path class="st0" d="M2200.2,256.2c0,7.4-1.8,13-5.5,17c-3.7,3.9-8.9,5.9-15.7,5.9c-6.6,0-11.7-2-15.4-5.9c-3.7-3.9-5.5-9.6-5.5-17
		V59h-38.7v196c0,19.9,5.2,35.3,15.6,46c10.4,10.8,25,16.2,44,16.2c19.1,0,33.9-5.4,44.3-16.2c10.4-10.8,15.6-26.1,15.6-46V59h-38.7
		V256.2L2200.2,256.2z"/>
	<path class="st0" d="M2071.5,64.1c-9-5.2-19.9-7.7-32.8-7.7c-12.7,0-23.5,2.6-32.5,7.7c-9,5.2-15.9,12.6-20.7,22.2
		c-4.8,9.7-7.2,21.5-7.2,35.4v130.2c0,13.7,2.4,25.5,7.2,35.2c4.8,9.8,11.7,17.2,20.7,22.3c9,5.1,19.9,7.6,32.5,7.6
		c12.9,0,23.8-2.6,32.8-7.7c9-5.2,15.8-12.6,20.5-22.2c4.7-9.7,7.1-21.5,7.2-35.4v-15.6h-39v15.6c0,8.6-1.8,15.2-5.4,19.9
		c-3.6,4.7-9,7.1-16,7.1c-6.8,0-12.1-2.3-15.8-7c-3.8-4.7-5.6-11.3-5.6-19.9V121.7c0-8.7,1.9-15.3,5.6-20s9-7,15.8-7
		c4.7,0,8.6,1.1,11.8,3.3c3.2,2.2,5.6,5.2,7.2,9.2c1.6,4,2.5,8.8,2.5,14.6v15.6h39v-15.6c0-13.8-2.4-25.6-7.1-35.3
		C2087.3,76.7,2080.5,69.2,2071.5,64.1z"/>
	<polygon class="st0" points="2304.8,59 2266.1,59 2266.1,314.5 2284.2,314.5 2304.8,314.5 2374.4,314.5 2374.4,277.8 2304.8,277.8 
			"/>
	<path class="st0" d="M2574.7,256.2c0,7.4-1.8,13-5.5,17c-3.7,3.9-8.9,5.9-15.7,5.9c-6.6,0-11.7-2-15.4-5.9c-3.7-3.9-5.5-9.6-5.5-17
		V59h-38.7v196c0,19.9,5.2,35.3,15.6,46c10.4,10.8,25,16.2,44,16.2c19.1,0,33.9-5.4,44.3-16.2c10.4-10.8,15.6-26.1,15.6-46V59h-38.7
		V256.2z"/>
	<path class="st0" d="M2737.3,199.4c9.7-4.7,17.2-11.5,22.3-20.4c5.2-8.9,7.7-19.7,7.7-32.3v-29.9c0-12.3-2.6-22.8-7.7-31.5
		c-5.2-8.7-12.6-15.3-22.3-19.8c-9.7-4.5-21.4-6.8-35.1-6.8h-23.4h-20.6h-17.6v255.7h38.1v-108h21.5l32.4,108.1h41.8l-37.9-114.8
		C2736.9,199.6,2737.1,199.5,2737.3,199.4z M2678.8,95.5h26.2c7.4,0,13.1,2.1,17.2,6.4c4.1,4.3,6.2,10.2,6.2,17.8V147
		c-0.1,7.1-2.2,12.7-6.2,16.7s-9.8,6-17.1,6h-26.2V95.5H2678.8z"/>
	<path class="st0" d="M2842.2,59l-60.1,255.5h39.5l9.2-47.8h53.2l9.2,47.8h39.5L2872.8,59H2842.2z M2837.9,230.7l19.6-101.6
		l19.6,101.6L2837.9,230.7L2837.9,230.7z"/>
	<polygon class="st0" points="2992.3,277.8 2992.3,59 2953.6,59 2953.6,314.5 2971.7,314.5 2992.3,314.5 3061.9,314.5 3061.9,277.8 
			"/>
</g>
<rect x="721.4" y="-308" class="st1" width="686" height="686"/>
<g>
	<g>
		<path class="st2" d="M0,58.5h190.6c19.5,0,36.4,2,50.7,6.1c14.3,4.1,26.1,9.9,35.6,17.6c9.4,7.7,16.4,17.1,21,28.1
			c4.6,11,6.9,23.5,6.9,37.5c0,9.4-1.1,18.4-3.4,26.9c-2.3,8.5-5.8,16.3-10.5,23.5c-4.7,7.1-10.6,13.5-17.8,19.1
			c-7.1,5.6-15.5,10.2-25.2,13.9l55.2,81.2h-63l-47.7-72.1H191L51.5,240v72.3H0V58.5z M191.9,195.5c9.7,0,18.3-1.1,25.6-3.4
			c7.3-2.3,13.4-5.5,18.4-9.6c4.9-4.1,8.6-9.1,11-15c2.4-5.9,3.7-12.5,3.7-19.7c0-14.2-4.9-25.1-14.6-32.9
			c-9.7-7.7-24.4-11.6-44-11.6H51.5v92.2H191.9z"/>
		<path class="st2" d="M349,58.5h270.1v45.1H400.5v50.7h248.5v42.4H400.5v70.6h246.4v45H349V58.5z"/>
		<path class="st2" d="M688.2,58.5h170.4c27.2,0,50.8,2.9,70.8,8.8c20,5.8,36.6,14.2,49.8,25.1s23,24.1,29.4,39.6
			c6.4,15.5,9.7,33,9.7,52.4c0,18.4-3.2,35.4-9.6,51.1c-6.4,15.6-16.1,29.2-29.2,40.6c-13.1,11.4-29.7,20.4-49.7,26.8
			c-20,6.4-43.6,9.7-70.8,9.7l-170.7-0.2V58.5z M871.3,267.8c15.4,0,28.9-2,40.4-5.9c11.6-4,21.2-9.6,29-16.8
			c7.7-7.3,13.6-16,17.5-26.3c3.9-10.3,5.8-21.8,5.8-34.4c0-12.4-1.9-23.7-5.8-33.7c-3.9-10-9.7-18.5-17.5-25.5
			c-7.7-7-17.4-12.4-29-16.2c-11.6-3.8-25.1-5.7-40.4-5.7H739.7v164.5H871.3z"/>
	</g>
</g>
<g>
	<g>
		<g>
			<g>
				<g>
					<path class="st3" d="M1187.5,171.8c-1-3.6-4.6-5.8-4.6-9.4c-2.9-2.5-6-0.5-8.9-1.4h0.1c-3.2-0.4-4,2.9-6,4.2
						c0-0.4-0.1-0.8-0.1-1.2c-1.2-0.8-2.4-1.8-4-0.5c-5.7,4.7-10.2,2.9-14.3-3.1c3.1-1.5,2.2-4.2,2.3-6.7l0,0
						c2.3-2.7-0.5-4.2-1.8-5.8c2.2-4.3,3.3-8.3-0.7-11.9l0,0c3.1-3,0.4-7,1.9-10.3c0.1-0.1,0.2-0.3,0.2-0.4
						c-0.1-0.3-0.2-0.6-0.3-0.9c1-2-2.3-4.6,0.7-6.4l0,0l0,0l0,0c0.2-4.6-3.9,0.3-4.7-2.1c0.3-2.6,3.2-1.2,4.3-2.8l0,0h0.4l-0.1-0.4
						c0.1-4.2,0.1-8.3,0.2-11.2c-2.5-5.1-5.7-0.8-8.3-2.1c0.3-2.5-0.9-5.4,2.6-6.4l0,0c0.5,0.6,1,1.4,2,0.7c0-1.2-1-0.8-1.8-1
						c2.1-1.7,3.4,0,5,1l0,0c0.4,0,0.9-0.1,1.4-0.1l0,0c0.8-1.8,0-3.3-0.3-5c1.7-0.7,2.5-1.9,2.6-3.9c0.1-5.4,1.1-10.7,2.5-16
						c2.3-9.1,3.7-18.4,5.5-27.3c-6.2-6.6-12.4-12.2-20.2-15.8c-5.1-5.6-11.4-9.7-17.8-13.4c-6.8-4-9.9-3.2-12.9,3.9
						c-3.6,8.4-8.7,16.1-12.4,24.6c-2.5,5.8-7.2,12.1-12.2,17.2c-1.8,1.9-3.3,4.4-2.3,5.9c-11.9,15.3-19.9,32.5-31.7,47.1l0,0
						c-0.7,1.4-1.6,2.6-2.3,4c-2.9,1.2-3.5,4.2-4.6,6.7c-1.9,1.8-3.3,3.9-3.3,6.6c-3.5,0.9-2.3,4.4-3.3,6.6
						c-1.1,0.8-2.8,1.4-3.4,2.5c-10.5,16.5-21,32.8-31.1,49.4c-4.1,6.6-6.2,14.5-13.5,18.3c-9.9,5.3-18.2,13.4-29.4,16.6
						c-1.8,0.5-4.5,1.7-1.1,4c2.4,2,1.2,4.2,0.5,6.4h-0.1c2.3,2.1-0.9,4.4,0.2,6.5c6.2,3.7,4,11.9,8.6,15.6
						c-2.8,12.7-11.9,21.8-15,34.1c-4.9,2.5-10.7,11.8-10.7,18.1c1.5,1.1,2.9,2.4,4.3,3.5l0,0c-0.8,4.6,3,3.9,5.4,4.8l0,0
						c6.8,2.2,13.2,5.6,21,5.4c2.8-2.1,6-3.9,9.4-5.7c8-4.5,16.2-9.5,19.9-18.4c5.3-13.1,13.6-24.7,18.6-37.9
						c0.5-1.5,1.8-3.3,3.1-3.7c7.7-2.5,13.6-8.1,21.1-11c12.4-4.8,25.4-7.6,38-11.7c0,0,0,0,0.1,0c5.1-0.3,10.1-2.9,15.1-1.6
						c3.3,4.9,0.6,9.7,1,14.4v-0.1c-1.1,1.7-1.5,3.4-0.6,5.3c1.8,4.4,1.2,8.5-0.7,12.7v-0.1c1.8,4.4,0.5,8.6-0.4,12.9
						c-1,4.7-1.7,9.4,1,13.9l0,0v0.1c0,0.4,0.1,0.8,0.1,1.1c0,0,0,0,0,0.1c-0.4,0.4-0.7,0.8-1.1,1.4c-0.4,0.8-0.7,1.8-1.1,2.6l0,0
						c1.7,0.5,3.4,1.1,5.2,1.7c-1.9,2.2-5.1,0.2-6.4,2.9c2.5,4.6,2.5,4.7-1.7,21.7c2.7,12.9,14.5,13.9,23.7,18
						c2.3,3,5.6,0.3,8.2,1.4c2.1,0.5,2.5,3.6,5.4,3.2c1-4.1,2.2-8.1,3.2-12.3c-3.2-2.6-4-6.7-7.5-8.2c0.6-4.6,4.3-4.3,7.4-4.9
						c-0.3-1.1-0.6-2.2-0.8-3.2l0,0l0,0l0,0c-0.4,0-0.8,0-1.1,0c0.4-0.4,0.7-0.8,1-1.4c0,0.4,0.1,0.8,0.1,1.2l0,0
						c0-0.4-0.1-0.9-0.1-1.4c2.5-2.1-0.6-5.6,2-7.7l0,0v-0.1l0,0c1.1-9.3-0.2-18.8,1.9-28c0.2,0.1,0.3,0.1,0.4,0.1
						c-0.1,0-0.2-0.1-0.4-0.2v0.1c-0.7-1.6,0.3-3.7-1.6-5c1.2-0.5,2.5-1,3.6-1.6l0,0l0,0l0,0l0,0l0,0l0,0l0,0c0-0.1,0-0.1,0-0.2
						c0,0.1,0,0.1,0,0.2c-0.4-0.4-0.9-0.7-1.4-1.1c-0.1-0.1-0.2-0.3-0.3-0.4c0.1,0.1,0.2,0.3,0.3,0.4c0.4,0,0.7,0.1,1.1,0.1
						c0.1,0.3,0.1,0.6,0.2,0.9c0-0.4,0-0.8,0.1-1.2c-1.8-5.9-2.4-11.7,3.9-15.3c-0.3-3.6-0.5-7-0.7-10.3l0,0
						c0.1-9.4-0.9-19,4.4-27.5c8.5-1.4,13.7-8.6,21.6-11c0.7-1.8-0.2-4.2,2.6-5.1c1.8-0.2,2.5,3.3,5.3,2.2c1.2-1.4,2.4-2.7-0.2-4.2
						c0.2-2.1,1.9-3,3.1-4.5C1188.1,187.1,1189.9,180,1187.5,171.8z M1151.1,124.7c0,0.4,0,0.7,0.1,1.1
						C1151,125.5,1151,125,1151.1,124.7z M1151,64.3l0.2,0.4h-0.5L1151,64.3z M1045.3,137.2l0.2-0.4l0.3,0.4H1045.3z M1090.4,89.6
						c-1,0.6-1.5,0.1-1.8-1C1089.9,87.8,1090.4,88.2,1090.4,89.6z M1089.8,136.9l-0.3,0.1v-0.4L1089.8,136.9z M1082.5,70.6l0.1,0.5
						l-0.4-0.1L1082.5,70.6z M1064,104.3c0,1.7-0.6,1.8-1.5,1.4C1062,104.5,1062.7,104.3,1064,104.3z M1055.7,132.2
						c-2.1,0.8-1.5-1.1-2-1.9l0,0C1054.6,130.7,1056.6,129.9,1055.7,132.2z M1064.1,122.8c-3.4-3.4-3.1-5.8,0.6-8
						C1067,117.4,1066.5,119.8,1064.1,122.8z M1072,94.2l0.1-0.5l0.3,0.3L1072,94.2z M1096.9,210.5c-0.1,0-0.1,0.1-0.2,0.1
						C1096.2,209.1,1097.1,210,1096.9,210.5z M1100.1,175.2L1100.1,175.2c-2.6-1.2-4.1,1.6-6.2,1.8c-0.4,0-0.8,0.1-1.2,0.1
						c-5.8-0.8-10.9,4.6-17,2.2c0-4,3.4-5.2,5.2-7.6v0.1c5.5-9.8,11.7-19.2,19-29.2c3,6.1,1.6,11.9,1.6,17.4c0,1.4-1.1,2.8,0.5,3.9
						C1100.7,167.4,1103.4,171.8,1100.1,175.2z M1102,163.7c1.5-2.2,2.5-1.2,3.7,0.4C1104.2,165.5,1103.1,163.6,1102,163.7z
						 M1110,235.1l0.2-0.4l0.2,0.5L1110,235.1z M1113.6,97.2l0.2-0.4l0.2,0.3L1113.6,97.2z M1114.8,277.7c-0.1-0.2-0.1-0.3-0.2-0.5
						c0.1-0.1,0.3-0.1,0.4-0.2C1114.9,277.3,1114.8,277.5,1114.8,277.7z M1118.3,152.2l0.3-0.4l0.2,0.4H1118.3z M1124.1,96.1
						l0.1,0.3h-0.3L1124.1,96.1z M1122.1,161c-0.6-1.9-1.7-3.7,0.9-5.1c0.5,0.8,0.9,1.7,1.4,2.3C1124.1,159.9,1123,160.2,1122.1,161
						z M1124.6,153.4c-1.1-2.2-1.7-3-2.1-3.7l0,0C1123.8,148.9,1124.8,149.1,1124.6,153.4z M1130.7,99c0.3,0.4,0.7,0.7,1,1.1
						c-0.3,0.2-0.5,0.4-0.8,0.6c-0.3-0.3-0.7-0.7-1-1C1130.2,99.5,1130.5,99.2,1130.7,99z M1130.7,154.8c0,0.1-0.1,0.2-0.1,0.4
						C1130.6,155,1130.7,154.9,1130.7,154.8z M1128.1,155.5c0.2-0.3,0.3-0.5,0.5-0.8c0.2,0.2,0.4,0.5,0.6,0.7
						C1128.8,155.5,1128.4,155.5,1128.1,155.5z M1130.5,155.4c-0.3,0.8-0.7,1.7-1,2.5c-0.1-0.8-0.1-1.6-0.2-2.4
						C1129.7,155.4,1130.1,155.4,1130.5,155.4z M1133.6,163c-2.3,0.9-2.7-0.7-4.4-2.2C1133.6,158.9,1134.5,159.9,1133.6,163z
						 M1133.4,93c1.2-0.7,1.7-0.3,1.7,1C1134,94.6,1133.6,94.1,1133.4,93z M1136.5,281c-0.2-0.3-0.3-0.6-0.5-0.8
						C1137,280,1136.9,280.4,1136.5,281z M1136.1,287.1c0-0.4-0.1-0.7-0.1-1.1c0.4,0.3,0.8,0.7,1.2,1
						C1136.9,287,1136.5,287.1,1136.1,287.1z M1138.2,156.2c1.5,0.2,1,1.5,1.5,2.2C1138.8,157.8,1137.7,157.6,1138.2,156.2z
						 M1138.8,99c0-1.7,0.4-2.1,1.5-2C1140.8,98.8,1139.7,98.3,1138.8,99z M1146.3,153.3c0.4,0.2,0.7,0.3,1,0.5
						C1146.3,154.7,1146.2,154.2,1146.3,153.3z"/>
				</g>
			</g>
			<path class="st3" d="M1096.1,289.6L1096.1,289.6L1096.1,289.6C1096,289.6,1096,289.6,1096.1,289.6
				C1096,289.6,1096,289.6,1096.1,289.6L1096.1,289.6c0,0.4,0,0.9,0,1.4l0,0C1096.1,290.5,1096.1,290.1,1096.1,289.6L1096.1,289.6z"
				/>
			<path class="st3" d="M1097.3,288.3c-0.4,0.4-0.7,0.8-1.1,1.2c0.4,0,0.8-0.1,1.1-0.1C1097.3,289.1,1097.3,288.7,1097.3,288.3z"/>
			<g>
				<path class="st3" d="M1163.4,164.1L1163.4,164.1L1163.4,164.1L1163.4,164.1z"/>
			</g>
			<path class="st3" d="M1132.1,324.8c0.8-2-0.5-2.6-1.9-3.2C1130.5,322.8,1129.9,324.6,1132.1,324.8z"/>
			<path class="st3" d="M1130.2,321.6L1130.2,321.6L1130.2,321.6L1130.2,321.6c-0.2-0.3-0.3-0.5-0.3-0.5S1130,321.3,1130.2,321.6
				L1130.2,321.6L1130.2,321.6z"/>
			<path class="st3" d="M1330,275.2c0.1,2-2.2,3.4-1.2,5.5c1.6,0.3,2.6-0.1,3.5-1.1C1332.5,277.6,1332,276,1330,275.2z"/>
			<g>
				<g>
					<path class="st3" d="M1521.5,213.8c-2,0.5-3.7,0.8-5,2.8c-1.6,3.9-1,8-1.4,12.6c0.8,1.4,3,2,3.3,4c-2,0.6-4.1,1-5.9,0.4
						c-1.8-1.1,0-3.6-2-4.5c-1.2-0.2-0.6,2.2-2.4,1.5c-0.7-0.3,0.2-2.3-1.6-2c-0.9,0.6-1.6,1.4-1.4,2.6c0.8,1.9,3,2.2,4.4,3.6
						c0.3,1.5,0.6,3.1,0.9,5.1c1.5,0.8,3.3,1.6,4.2,3.3c-2.6,1.1-4.8,0-7-1.2c0-1.7,1.7-2.8,0.5-4.4c-1.4,0-1.5,2.1-3.4,1.7
						c-1.1-0.7-2.7-1.7-4.2-2.7c-4.2,3.2-9,3.2-13.7,2.3c-0.8,0.9-1.5,1.8-2.3,2.9c-1.2-1-2.3-2.5-4.9-2c-2.6,5.8-11.7,2.7-14.4,9.6
						c-0.6-0.6-1.1-1.1-1.7-1.8c-0.1-0.1-0.4,0.1-0.1,0c-6.6,9.5-17.2,10.6-26.3,14.2c-0.2,1.2-0.4,2.5-0.6,3.7
						c-1.1-0.7-1.4-2.5-3.1-2c-2.8,1-2,4.3-3.7,6.2c-1.7-3.2-4.2-4.4-6.6-2c-2.2,2.2-4.5,2.8-7.2,3.1c-3.6,0.4-6.5,2.3-8.9,5
						c-0.4,0.4-1.1,0.5-1.5,0.6c-2.3,0-3.5-2-6.4-1.5c-6.7,5.3-12.6-2-19.4-2.5c-1.1-1.8-0.4-4.3-2.1-5.5c-2.9-1.2-5.8-1.1-8.2-1.1
						c-2.4-2-1.2-4.3-1.7-6.2c0.7,1,1.5,2,2.2,2.9c1.2,0.6,2.5,0.6,3.7,0.4c-1.2-3.5,2.5-6.6,1.1-10.2c0,0,0,0,0.1,0v-0.1
						c0,0,0,0-0.1,0c0,0,0,0,0,0.1c-2,0-2.9-1.9-4.3-2.3c-2.3-0.5-3.3,0.8-4.7,1.7c-0.3,1.4-0.6,2.7-0.9,4.1c-0.6,0-1.1,0.1-1.9,0.1
						c-0.5-2.5,0.9-3.5,2.7-4.3v0.1c0,0,0,0,0.1,0v-0.1h-0.1c-0.1-1.8-0.3-3.5-0.4-5.3c4.2,0.3,7.9,1.5,9.4,5.9
						c0.8,0,1.7-0.1,2.5-0.1c1.6,3.5-2.7,5.7-2,9.1c3.2,2.2,5,5.4,6.1,8.7c1.7,0.6,2.9,0.7,4-0.5c0.4-2.5-2.8-4.3-1.2-7.6
						c1.4-1.7,4.7-2.3,5.4-5.4c-1.1-0.9-2.8-0.9-3.7-2.5c3.3-2.3,4.2-0.6,4.4,2.5c5.6-6.8,9-14.7,12.7-23c0.3-0.1,1.5,1.1,2.3-0.4
						c0.2-1.7-0.4-3.6,1.2-5.4c4.6-0.6,6.7-4.1,8.1-7.8c9.3-9.3,17.8-19.3,29.4-27.5c4.9,0.4,5.2-7,9.9-9c1,1.6-1.9,2.9,0,4.9
						c1.7-5.3,8.9-2.7,10.3-8.3c1.4,1.6,2.6,1.6,3.7,0.8c7.5-5.4,16.1-8.4,24.7-11.9c6-2.4,12.4-4.6,18.5-5.6
						c7.2-1.2,13.1-3,16.9-8.9c0.1-18.5-10-32.7-17.5-47.6c-6.5-1.6-11.4,1.1-16.2,4.3c-5-1.9-8.9,0.6-12.3,3.9
						c-7.9-3.3-12.6,3.9-19,5.6c-6.6,1.9-12.8,5.1-18.3,7.4c-1.9,1.5-0.7,3.4-2.4,4.3c-8.5-0.7-22.1,10.6-26.3,16
						c-1.9-1.9-4.1-2.7-5.5,0.5c0.2,0.9,2,1.1,1.2,2.5c-1.4,1.4-3.4-0.6-4.5,0.8c-0.8,1.4,0.2,2.8-0.9,3.9c-1.5,1.2-2.6-1.7-4.4,0.1
						c0.7,4.8-5.8,4.3-6.7,8.3c-0.6-0.7-0.8-1.9-2.2-1.7c-0.9,1.9-1.9,3.7-3.3,6.9c-0.2,0.7-3-0.9-3.6,1.6c-0.5,0.7,1,2.2-0.4,3.1
						c-6.2,2.3-9.4,6.9-10.1,13.2c-2.8,1.4-4.8,3.4-6.6,5.3c-1.2,4.3-3.6,7.9-2.2,12.2c-4.4,1.8-6.7,4.2-7.8,9
						c-0.9,3.5-1.4,7.5-2.5,11.1c-0.8,2.7-4.3,6.4-0.7,9.7c-0.3,0.2-0.5,0.5-0.8,0.7c-1.6-4-4.2-7.2-8.4-9.8c-2,0.5-3.7,0.8-5,2.8
						c-1.6,3.9-1,8-1.4,12.6c0.8,1.4,3,2,3.3,4c-2,0.6-4.1,1-5.9,0.4c-1.8-1.1,0-3.6-2-4.5c-1.2-0.2-0.6,2.2-2.4,1.5
						c-0.7-0.3,0.2-2.3-1.6-2c-0.9,0.6-1.6,1.4-1.4,2.6c0.8,1.9,3,2.2,4.4,3.6c0.3,1.5,0.6,3.1,0.9,5.1c1.5,0.8,3.3,1.6,4.2,3.3
						c-2.6,1.1-4.8,0-7-1.2c0-1.7,1.7-2.8,0.6-4.4c-1.4,0-1.5,2.1-3.4,1.7c-1.1-0.7-2.7-1.7-4.2-2.7c-4.2,3.2-9,3.2-13.7,2.3
						c-0.8,0.9-1.5,1.8-2.3,2.9c-1.2-1-2.3-2.5-4.9-2c-2.6,5.8-11.7,2.7-14.4,9.6c-0.6-0.6-1.1-1.1-1.7-1.8c-0.1-0.1-0.4,0.1-0.1,0
						c-6.6,9.5-17.2,10.6-26.3,14.2c-0.2,1.2-0.4,2.5-0.6,3.7c-1.1-0.7-1.4-2.5-3.1-2c-2.8,1-2,4.3-3.7,6.2c-1.7-3.2-4.2-4.4-6.6-2
						c-2.2,2.2-4.5,2.8-7.2,3.1c-3.6,0.4-6.5,2.3-8.9,5c-0.4,0.4-1.1,0.5-1.5,0.6c-2.3,0-3.5-2-6.4-1.5c-6.7,5.3-12.6-2-19.4-2.5
						c-1.1-1.8-0.4-4.3-2.1-5.5c-2.9-1.2-5.8-1.1-8.2-1.1c-2.4-2-1.2-4.3-1.7-6.2c0.7,1,1.5,2,2.2,2.9c1.2,0.6,2.5,0.6,3.7,0.4
						c-1.2-3.5,2.5-6.6,1.1-10.2c0,0,0,0,0.1,0v-0.1c0,0,0,0-0.1,0c0,0,0,0,0,0.1c-2,0-2.9-1.9-4.3-2.3c-2.3-0.5-3.3,0.8-4.7,1.7
						c-0.3,1.4-0.6,2.7-0.9,4.1c-0.6,0-1.1,0.1-1.9,0.1c-0.5-2.5,0.9-3.5,2.7-4.3v0.1c0,0,0,0,0.1,0v-0.1h-0.1
						c-0.1-1.8-0.3-3.5-0.4-5.3c4.2,0.3,7.9,1.5,9.4,5.9c0.8,0,1.7-0.1,2.5-0.1c1.6,3.5-2.7,5.7-2,9.1c3.2,2.2,5,5.4,6.1,8.7
						c1.7,0.6,2.9,0.7,4-0.5c0.4-2.5-2.8-4.3-1.2-7.6c1.4-1.7,4.7-2.3,5.4-5.4c-1.1-0.9-2.8-0.9-3.7-2.5c3.3-2.3,4.2-0.6,4.4,2.5
						c5.6-6.8,9-14.7,12.7-23c0.3-0.1,1.5,1.1,2.3-0.4c0.2-1.7-0.4-3.6,1.2-5.4c4.6-0.6,6.7-4.1,8.1-7.8
						c9.3-9.3,17.8-19.3,29.4-27.5c4.9,0.4,5.2-7,9.9-9c1,1.6-1.9,2.9,0,4.9c1.7-5.3,8.9-2.7,10.3-8.3c1.4,1.6,2.6,1.6,3.7,0.8
						c7.5-5.4,16.1-8.4,24.7-11.9c6-2.4,12.4-4.6,18.5-5.6c7.2-1.2,13.1-3,16.9-8.9c0.1-18.5-10-32.7-17.5-47.6
						c-6.5-1.6-11.4,1.1-16.2,4.3c-5-1.9-8.9,0.6-12.3,3.9c-7.9-3.3-12.6,3.9-19,5.6c-6.6,1.9-12.8,5.1-18.3,7.4
						c-1.9,1.5-0.7,3.4-2.4,4.3c-8.5-0.7-22.1,10.6-26.3,16c-1.9-1.9-4.1-2.7-5.5,0.5c0.2,0.9,2,1.1,1.2,2.5
						c-1.4,1.4-3.4-0.6-4.5,0.8c-0.8,1.4,0.2,2.8-0.9,3.9c-1.5,1.2-2.6-1.7-4.4,0.1c0.7,4.8-5.8,4.3-6.7,8.3
						c-0.6-0.7-0.8-1.9-2.2-1.7c-0.9,1.9-1.9,3.7-3.3,6.9c-0.2,0.7-3-0.9-3.6,1.6c-0.5,0.7,1,2.2-0.4,3.1
						c-6.2,2.3-9.4,6.9-10.1,13.2c-2.8,1.4-4.8,3.4-6.6,5.3c-1.2,4.3-3.6,7.9-2.2,12.2c-4.4,1.8-6.7,4.2-7.8,9
						c-0.9,3.5-1.4,7.5-2.5,11.1c-0.8,2.7-4.3,6.4-0.7,9.7c-2.2,1.9-3.2,4.2-2.9,7.4c1.1,1.2,2.5,2.5,3.7,3.9
						c-2,1.4-1.1,5.1-4.7,4.7c0.7,2.7,1.2,4.9,1.9,7.1c-1.7,1.8-1,4-1.5,5.9c1.7,0.1,2.6-0.3,2.9-1.5c2.5,3.4,0.5,6.9,0,10.1
						c1.8,4.3,4.7,7.6,7,11.4c1.5-0.9,2.6-2.3,4-0.4c0.7,1.8-1.6,3-0.5,5.4c1.5,1.6,3.9,3.4,3.2,6.5c1.5,0.8,1.9-1.6,3.2-0.2
						c0.5,3.5,3,6.5,4.2,10c3.7,0,6.9,2,10.2,1.4c1.4,0.9,0.8,3.1,3.5,3.3c2.5-0.3,5.3,0.6,7.2,3c5.8,0.8,10.6-1.4,15.5-3.4
						c1.4,0.9,1.1,4.2,4.1,2.6c1.7-1.8-1.8-3.3-0.7-4.5c3.1-2.5,3.3,1.4,5,1.1c4.9,0,7.8-4.2,11.4-5.7c2.1,0.5,1.2,3.2,3.5,2.9
						c0.5-4.9,3.6-3.4,6.1-2.5c1.6-0.7,0.1-2.2,1.7-3.2c5,0.8,7.6-8,14.2-4.4c0.8-1.7,1.6-3.4,3.7-4.7c2.5-0.4,5.4-0.8,8.3-1.2
						c4.5-2.8,6.9-7.5,10.2-11.2c0.1-1.2-2-0.8-1.8-2.3c0.9-0.9,2.8-0.7,3.5-2.2c1.4,0.7,2.8,0.5,4.3,0.1c-0.1-1.4-0.6-2.7,0-4.1
						c1.2-0.6,2.2,0.1,3.1,0.8c5.4,0.9,6.4-3.4,8.2-6.9c2.5,0.5,4.2-1.8,6.5-2l-0.1,0.1h0.1v-0.1c4.5-3.4,9.5-5.9,15.4-7
						c0.5-1.7-2-4.5,2.6-4.7c-1.9-1.2-2.8-2-3.9-2.6c-1.6,0.6-3.1,0.5-4.5-0.7c-0.2-1.5,1.6-1.7,1.7-2.8c0.9-1.2,1.8-2.4,2.7-3.6
						c0,2.4,0,4.7,0.1,7.1c2.8-1.2,4.6-3.5,6-6.1c2.5,0.9,1,2.9,1.1,5.1c1-0.9,1.9-1.9,2.6-2.8c0.1,0.4,0.2,0.8,0.3,1.2
						c-1.7,1.8-1,4-1.5,5.9c1.7,0.1,2.6-0.3,2.9-1.5c2.5,3.4,0.5,6.9,0,10.1c1.8,4.3,4.7,7.6,7,11.4c1.5-0.9,2.6-2.3,4-0.4
						c0.7,1.8-1.6,3-0.5,5.4c1.5,1.6,3.9,3.4,3.2,6.5c1.5,0.8,1.9-1.6,3.2-0.2c0.5,3.5,3,6.5,4.2,10c3.7,0,6.9,2,10.2,1.4
						c1.4,0.9,0.8,3.1,3.5,3.3c2.5-0.3,5.3,0.6,7.2,3c5.8,0.8,10.6-1.4,15.5-3.4c1.4,0.9,1.1,4.2,4.1,2.6c1.7-1.8-1.8-3.3-0.7-4.5
						c3.1-2.5,3.3,1.4,5,1.1c4.9,0,7.8-4.2,11.4-5.7c2.1,0.5,1.2,3.2,3.5,2.9c0.5-4.9,3.6-3.4,6.1-2.5c1.6-0.7,0.1-2.2,1.7-3.2
						c5,0.8,7.6-8,14.2-4.4c0.8-1.7,1.6-3.4,3.7-4.7c2.5-0.4,5.4-0.8,8.3-1.2c4.5-2.8,6.9-7.5,10.2-11.2c0.1-1.2-2-0.8-1.8-2.3
						c0.9-0.9,2.8-0.7,3.5-2.2c1.4,0.7,2.8,0.5,4.3,0.1c-0.1-1.4-0.6-2.7,0-4.1c1.2-0.6,2.2,0.1,3.1,0.8c5.4,0.9,6.4-3.4,8.2-6.9
						c2.5,0.5,4.2-1.8,6.5-2l-0.1,0.1h0.1V262c4.5-3.4,9.5-5.9,15.4-7c0.5-1.7-2-4.5,2.6-4.7c-1.9-1.2-2.8-2-3.9-2.6
						c-1.6,0.6-3.1,0.5-4.5-0.7c-0.2-1.5,1.6-1.7,1.7-2.8c0.9-1.2,1.8-2.4,2.7-3.6c0,2.4,0,4.7,0.1,7.1c2.8-1.2,4.6-3.5,6-6.1
						c2.5,0.9,1,2.9,1.1,5.1c4-3.3,5.4-7.4,6.5-10.6C1531.8,227,1530,218.9,1521.5,213.8z M1468.8,133.3c-1.8,2.5-3.9,3.1-6.2,2.7
						C1464.4,134.7,1465.2,131.2,1468.8,133.3z M1429.9,161.4c0.7,1.8,2.2,3,4.2,5.4C1430.3,165.8,1428.7,164.6,1429.9,161.4z
						 M1413.9,165.9c1.2,1,1.5,2,1.2,3.4C1413.6,168.6,1412.4,168.2,1413.9,165.9z M1415,201c-0.2-2.6-0.4-5.2-0.6-9.1
						C1417.4,195.5,1415.1,198.3,1415,201z M1412.8,155.9c1.7-0.3,2,0.9,2.8,2.7C1412.6,158.9,1412.3,157.8,1412.8,155.9z
						 M1406.8,203.4c1.4,0.6,1.4,1.8,1.2,3.5C1405.3,206,1405.7,204.8,1406.8,203.4z M1403,227c-1.6,0.6-2.1-0.2-2.5-2.1
						C1402,225.1,1402.8,225.5,1403,227z M1395.7,165c0,1.8,0.3,3.6-1.2,5.3C1393,168,1394,166.4,1395.7,165z M1393.7,175.4
						c-0.7,4.4,2.5,4.6,5.3,5.9c-3.2,2.3-5.2,1-7.5-0.6C1391.6,178.8,1391.9,177.4,1393.7,175.4z M1389.8,198.7
						c-0.7,2.6-2.4,2.5-4.6,2.3C1386.7,199.6,1387.9,198.9,1389.8,198.7z M1382.3,243.4c-0.4-2.4-2.2-5,0.9-7
						C1384.6,241.1,1384.6,241.2,1382.3,243.4z M1384.5,196.3c-0.7,1.2-1.5,2.5-2.2,3.7C1380.2,199.3,1380.5,198.7,1384.5,196.3z
						 M1382.3,243.6c0.3,1.8,0.6,3.5,0.9,5.4c-1.1,2.2-3,3.3-5.4,3.7c-0.6-1.7-1.4-3.3-2.2-5.5
						C1379,247.7,1380.1,244.8,1382.3,243.6z M1379.9,204.2c-0.2,2.4-2,4.7,0.4,7c-2.8,0-2.7-2.8-4.9-2.7
						C1376.4,206.5,1375.7,203.3,1379.9,204.2z M1375.8,238.9c1.8,1.1,3.7,2.4,0.5,4.7c-1.6-1.4-2-2.8-2.4-4.2
						C1374.7,238.6,1375.3,238.6,1375.8,238.9z M1371.3,228.2c0.5,2.7,1.5,4.4-0.6,6.1C1368.7,232.3,1369.9,230.7,1371.3,228.2z
						 M1369.1,237.6c1.8,1.1,1.7,3.2,2.9,5.7c-2.3-1.2-3.9-2.1-5.5-3C1367.6,239.2,1368.2,238.5,1369.1,237.6z M1294.3,145.7
						c-1.8,2.5-3.9,3.1-6.2,2.7C1289.8,147.1,1290.7,143.7,1294.3,145.7z M1255.4,173.8c0.7,1.8,2.2,3,4.2,5.4
						C1255.8,178.3,1254.2,177,1255.4,173.8z M1239.3,178.4c1.2,1,1.5,2,1.2,3.4C1239.1,181,1237.9,180.6,1239.3,178.4z
						 M1240.5,213.4c-0.2-2.6-0.4-5.2-0.6-9.1C1243,207.9,1240.6,210.8,1240.5,213.4z M1238.3,168.3c1.7-0.3,2,0.9,2.8,2.7
						C1238.1,171.4,1237.8,170.2,1238.3,168.3z M1232.2,215.7c1.4,0.6,1.4,1.8,1.2,3.5C1230.9,218.5,1231.2,217.2,1232.2,215.7z
						 M1228.5,239.4c-1.6,0.6-2.1-0.2-2.5-2.1C1227.5,237.5,1228.3,237.9,1228.5,239.4z M1221.2,177.5c0,1.8,0.3,3.6-1.2,5.3
						C1218.5,180.4,1219.4,178.9,1221.2,177.5z M1219.1,187.9c-0.7,4.4,2.5,4.6,5.3,5.9c-3.2,2.3-5.2,1-7.5-0.6
						C1217,191.3,1217.5,189.9,1219.1,187.9z M1215.3,211.2c-0.7,2.6-2.4,2.5-4.6,2.3C1212.1,212.1,1213.4,211.3,1215.3,211.2z
						 M1207.9,255.8c-0.4-2.4-2.2-5,0.9-7C1210.1,253.6,1210.2,253.6,1207.9,255.8z M1210,208.8c-0.7,1.2-1.5,2.5-2.2,3.7
						C1205.7,211.7,1206,211.1,1210,208.8z M1207.8,256.1c0.3,1.8,0.6,3.5,0.9,5.4c-1.1,2.2-3,3.3-5.4,3.7c-0.7-1.7-1.4-3.3-2.2-5.5
						C1204.4,260.2,1205.6,257.2,1207.8,256.1z M1205.4,216.6c-0.2,2.4-2,4.7,0.4,7c-2.8,0-2.7-2.8-4.9-2.7
						C1201.9,218.9,1201.2,215.7,1205.4,216.6z M1201.4,251.4c1.8,1.1,3.7,2.4,0.5,4.7c-1.6-1.4-2-2.8-2.4-4.2
						C1200.3,251.1,1200.8,250.9,1201.4,251.4z M1196.7,240.6c0.5,2.7,1.5,4.4-0.6,6.1C1194.1,244.7,1195.4,243.2,1196.7,240.6z
						 M1194.5,250c1.8,1.1,1.7,3.2,2.9,5.7c-2.3-1.2-3.9-2.1-5.5-3C1193.1,251.6,1193.8,250.8,1194.5,250z M1181.8,247.6
						c1.6-1.2,2.1-4.2,5.2-3.3C1185.7,248.7,1184.9,249.2,1181.8,247.6z M1184.8,252.1c1.1-0.7,2.1-0.8,3.2-0.2
						c-0.1,1.1-0.3,2.3-0.5,3.4c-0.9,0.1-1.8,0.1-2.7,0.2C1184.8,254.3,1184.8,253.1,1184.8,252.1z M1186.2,262.3
						c0.6-2.3,1.9-4.4,1.1-6.6c1.5,0.6,2.5,1.6,3.4,2.7C1189.1,259.3,1189.1,261.9,1186.2,262.3z M1213.2,300.8c0.7-1,1.7-1.5,3.2-1
						C1215.4,301.1,1214.3,301,1213.2,300.8z M1221.5,318c1.7,2,2.7,3.2,3.9,4.5C1222.6,322.7,1221.6,321.2,1221.5,318z
						 M1235.5,315.6c1.9,0,2.4,0.9,2.6,2.5C1236.6,318.2,1235.8,317.5,1235.5,315.6z M1248.5,291.1c-2.6-0.2-3.9-1.2-2.1-4.3
						c1.1,1.5,2,2.5,2.8,3.5C1248.9,290.6,1248.7,291.1,1248.5,291.1z M1263.8,307.3c1.8-0.7,2.7-0.8,3.7,0.2
						C1266.4,308.6,1265.4,307.7,1263.8,307.3z M1268.7,276.3c1.4-1.1,2.7-2.2,4.2-3.4c0.6,1.6,1.2,3,1.8,4.3
						C1272.1,280.5,1270.7,277.6,1268.7,276.3z M1277.7,283.1c-0.5-0.3-1-0.6-1.7-0.9c1.5-2.8,1.9-5.8,1.8-8.9
						c1.7,0.1,2.5,1,3.7,2.1C1280.4,278,1279,280.6,1277.7,283.1z M1286.9,282.3c-1.2-0.9-0.8-2.1-0.5-3.6c2,0.5,2.7,1.6,3.4,2.5
						C1289.2,282.4,1288.2,282.6,1286.9,282.3z M1288.6,274.5c0.4-1.8,1.4-2.3,2.9-2.3C1291.2,274.3,1289.9,274.2,1288.6,274.5z
						 M1296.1,268.2c-1.5-0.6-1.1-2-1.5-3.6c2.1,0,2.4,1.6,3.4,1.9C1297.8,267.9,1296.7,267.7,1296.1,268.2z M1304.8,282.9
						c2.7,0.3,2.7,2.3,3,4C1306,286.4,1304.6,285.3,1304.8,282.9z M1299,277.9c3.3-1.8,5.3,0.6,9.1,0.1
						C1304,281.4,1301.8,279.8,1299,277.9z M1309.1,260.4c-1-0.2-1.8-0.9-1.5-1.8c0.7-2.2,2-1.7,3.2-0.4
						C1311,259.6,1310.1,260.1,1309.1,260.4z M1322.5,270.8c-2.1-1.8-0.6-3.5-0.8-5.1C1322.9,267.1,1323.2,268.7,1322.5,270.8z
						 M1324.3,260.7c-1.1,1.5-2.5,2.8-2.7,4.8c-5.4-1.4-6.4-2.6-5.2-6.9c0.9-0.5,1.6-0.1,2.2,0.5c0.4,0.4,0.8,0.9,1.5,1.5
						c1.9-1.4,3-3.7,5.7-3.3c0.7,1.6,1.5,3.2,2.2,4.9C1326.1,263.4,1325.8,260.7,1324.3,260.7z M1346.9,251.3
						c2.3,0.2,2.2,2.3,3.1,3.3C1346.7,255.7,1346.2,254.4,1346.9,251.3z M1356.4,235.1c1.6-1.2,2.1-4.2,5.2-3.3
						C1360.1,236.3,1359.3,236.8,1356.4,235.1z M1359.2,239.6c1.1-0.7,2.1-0.8,3.2-0.2c-0.2,1.1-0.3,2.3-0.5,3.4
						c-0.9,0.1-1.8,0.1-2.7,0.2C1359.3,241.9,1359.3,240.6,1359.2,239.6z M1360.7,249.8c0.6-2.3,1.9-4.4,1.1-6.6
						c1.5,0.6,2.5,1.6,3.4,2.7C1363.6,246.8,1363.6,249.4,1360.7,249.8z M1387.7,288.3c0.7-1,1.7-1.5,3.2-1
						C1389.8,288.6,1388.9,288.5,1387.7,288.3z M1396,305.5c1.7,2,2.7,3.2,3.9,4.5C1397.1,310.2,1396.2,308.8,1396,305.5z
						 M1410,303.2c1.9,0,2.4,0.9,2.6,2.5C1411.1,305.7,1410.3,305,1410,303.2z M1422.9,278.6c-2.6-0.2-3.9-1.2-2.1-4.3
						c1.1,1.5,2,2.5,2.8,3.5C1423.4,278.2,1423.2,278.6,1422.9,278.6z M1438.2,294.8c1.8-0.7,2.7-0.8,3.7,0.2
						C1440.9,296.1,1439.9,295.3,1438.2,294.8z M1443.2,263.9c1.4-1.1,2.7-2.2,4.2-3.4c0.6,1.6,1.2,3,1.8,4.3
						C1446.6,268,1445.2,265.1,1443.2,263.9z M1452.3,270.7c-0.5-0.3-1-0.6-1.7-0.9c1.5-2.8,1.9-5.8,1.8-8.9c1.7,0.1,2.5,1,3.7,2.1
						C1454.8,265.6,1453.5,268.1,1452.3,270.7z M1461.4,269.8c-1.2-0.9-0.8-2.1-0.5-3.6c2,0.5,2.7,1.6,3.4,2.5
						C1463.7,270,1462.7,270.1,1461.4,269.8z M1463,262c0.4-1.8,1.4-2.3,2.9-2.3C1465.7,261.8,1464.5,261.7,1463,262z M1470.6,255.8
						c-1.5-0.6-1.1-2-1.5-3.6c2.1,0,2.4,1.6,3.4,1.9C1472.3,255.5,1471.2,255.3,1470.6,255.8z M1479.4,270.4c2.7,0.3,2.7,2.3,3,4
						C1480.4,273.9,1479.1,272.9,1479.4,270.4z M1473.5,265.5c3.3-1.8,5.3,0.6,9.1,0.1C1478.5,269,1476.3,267.4,1473.5,265.5z
						 M1483.6,248c-1-0.2-1.8-0.9-1.5-1.8c0.7-2.2,2-1.7,3.2-0.4C1485.4,247.1,1484.7,247.7,1483.6,248z M1497.1,258.3
						c-2.1-1.8-0.6-3.5-0.8-5.1C1497.5,254.7,1497.7,256.3,1497.1,258.3z M1498.7,248.3c-1.1,1.5-2.5,2.8-2.7,4.8
						c-5.4-1.4-6.4-2.6-5.2-6.9c0.9-0.5,1.6-0.1,2.2,0.5c0.4,0.4,0.9,0.9,1.5,1.5c1.9-1.4,3-3.7,5.7-3.3c0.7,1.6,1.5,3.2,2.2,4.9
						C1500.6,250.9,1500.3,248.3,1498.7,248.3z M1521.4,238.8c2.3,0.2,2.2,2.3,3.1,3.3C1521.2,243.3,1520.6,241.9,1521.4,238.8z"/>
				</g>
			</g>
			<path class="st3" d="M1504.5,262.8c0.1,2-2.2,3.4-1.2,5.5c1.6,0.3,2.6-0.1,3.5-1.1C1507.1,265.2,1506.4,263.7,1504.5,262.8z"/>
			<g>
				<g>
					<path class="st3" d="M1642.1,65.2c0.9,1.2-0.3,2.7,0.9,3.6c1.6,1.4,3.5,0,5.6,0.5c-1.1,1.7-3.2,2.7-2.4,5.2
						c1.5,1.9,4.2,2.3,6.6,4.3c0.4-3.5,4.1-2.3,5.8-5c0.2-2.7,2.3-5.9-0.8-9.6c4.7-0.5,6.6-3.5,9.1-6.6c-3.6-0.5-2-4-3.9-5.5
						c-1.5-0.1-2.9-0.2-4.4-0.2c-2.1-0.7-2.1-0.7-0.6-4.2c1.5,0.8,1.1,1.9,0.6,3.1c2.9,0.1,5.4-0.6,7.1-4c-1.5-3.2-0.2-7,0.2-10.9
						c-2.7-2.6-2.6-6.1-2.7-9.6c3.2-0.4,7.1,0.1,7.5-5.1c-2.8-6.9-12.7-7.6-14.2-15.5c-1.6-0.1-1,1.4-1.9,1.7
						c-1.7-0.2-2.4-4.2-5.2-1.2c1.2,2.1,4.6,3.3,3.1,6.7c-5.8,1.6-9.3,6.4-13.3,9.7c-3,1.6-5.3-1.9-8.2-0.5c1.7,2.1,2.3,4.3,1.9,6.8
						c-1.6,0.9-3,1.8-4.6,2.7c0.6,7.1-6.2,11.5-6.6,19.3C1628.4,55.3,1630.9,66.1,1642.1,65.2z M1656.2,14.2
						c1.4,1.8,2.7,3.5,3.7,4.9c1.1,2.5-0.1,4.1-1.2,5.7c1.1,1.4,3.2,0.1,4.3,1.5c-1.6,0.4-3,1.4-5,1c-1.2-1-2.7-2.2-4.1-3.2
						C1652.8,20.5,1653.4,17.3,1656.2,14.2z M1655,33.5c-0.6,1.4-1.9,1.4-3.1,1.1C1652.8,31.8,1652.8,31.8,1655,33.5z M1653.2,38.4
						c4,2.9-2.4,5.6,0.8,8.4C1649,44.2,1654.2,41.1,1653.2,38.4z M1651.6,49.9c1.9,0.8,2.1,2,2,3.2
						C1650.7,52.9,1650.7,52.9,1651.6,49.9z M1629.7,50.1c-1.1-2.1,0.4-2.6,1.4-4.6C1632.1,48.4,1631.5,49.3,1629.7,50.1z
						 M1633.4,37.6c-0.9,3.9-1.8,6.1-5.4,3.6C1628.8,38.5,1631.2,39.1,1633.4,37.6z"/>
				</g>
			</g>
			<path class="st3" d="M1571.3,297c3-0.3,5.6,1,8.1,3.6C1578.8,295.7,1578.7,295.7,1571.3,297z"/>
			<path class="st3" d="M1641.1,8.9c0-2.2,2.9-5.2-2.1-6.8C1640,4.9,1638.6,7.3,1641.1,8.9z"/>
			<path class="st3" d="M1553.6,250.3c-0.9-1.9-2.2-2.8-4.3-2.4c-0.9,1.2-0.6,2.4-0.4,4.2C1550.9,251.9,1552.7,252.3,1553.6,250.3z"
				/>
			<g>
				<g>
					<path class="st3" d="M1785,245.7c3.1-0.2,4.6,3,7.4,3.1c0-2.4-3.1-2.7-2.3-5.3c2.2,1.1,4.3,2.7,5.9-1c-0.1-1.4-1.5-3.1,0-4.9
						c0.9-0.1,0.8,0.8,2.4,2.4c-1.7-4.8,2.6-4.3,3.6-6.1c-0.3-4.5-1.8-8.9,4.6-10c1.4-0.2,2.6-2.6,2.2-4.3c-1.5-5.1,2-8.3,4.3-11.8
						c0-11,0.3-12.6,4.9-19.5c-1.6-2.5,0.1-5.6-1-8.5l0,0c-0.2-4.2,1.6-7.8,2.9-11.1c-1-4.2-1.6-8.4-2.3-12.5c0.7-1.2,0.5-2.8-0.9-5
						c-0.2-0.3-0.4-0.6-0.6-1c-0.4-0.9-0.8-2-1.2-2.8c-0.5-1.5-0.7-3-0.6-4.7c-1.6-1.5-2.9-3.2-4.4-4.8c0-0.7-0.1-1.5-0.4-2.1
						c-6.4-4.7-11.6-10.3-14.6-16.2c-0.8-0.6-1.7-1.4-2.5-2c0-2.6-0.3-5.2-1.9-7.6c-0.4,1.9-1.1,3.2-2.4,4.1c-1-0.8-2.1-1.6-3.1-2.2
						c0-0.2,0-0.5-0.1-0.7c-0.4-1.4-2.7-0.8-2.8-2.7c1.2-0.1,2.4-0.1,3.6-0.2c-0.2-1.4-1.5-2.3-0.9-3.6c-0.8-0.7-1.7-1.6-2.6-2.3
						c-1.4,0-2.4,1.7-4.1,0.5c-0.5-1.7-2.1-3.4,0-5.1c2.3,0,2.5,2.1,3.5,3.1c0.8-1.4,2.1-1.1,3.2-0.7c0.8,1.6,0.7,3,0,4.6
						c1.7,0.9,3.3,1.9,5,2.9c-0.3-4.1,3.3-2.2,5-3.3c0.1-1.2-0.5-2-1.2-2.7h0.1c0,0,0,0-0.1,0c0,0,0,0,0,0.1
						c-2.9,0.5-5.4-0.5-7.8-2.2c0.2-0.5,0.3-1,0.5-1.6c1.2-0.2,1.9,1.9,3.5,0.4c1.2-0.5-0.5-3,1.8-3.6c1.1,2.2-0.8,5.4,2.1,6.9
						c1-4.6,3.3-7.1,7.8-8.2c-0.2-0.9-0.4-1.9-0.6-2.9c-0.2-0.9-0.5-1.9-0.7-3c6.5-2.8,10.4-7.3,10.8-14c1.9-2.1,3.5-1.6,5.1-0.3
						c1.6-1.5-0.6-2.6,0.1-4.4c0.9-0.5,2.1-1.1,3.3-1.9c-3.4-3.7,0.2-7.2,0.6-10.7c1.4,2.6-0.8,6,2,8.2c0.6-1.5,1-3.1,2.9-3.4
						c3-0.5,4.3-2.7,5.2-5.2c4.5-0.5,8-3.3,12-5.2c3-1.5,4.2-4.8,5.3-9.3c-11.7-12.9-24.8-25-41-33.9c-2.4,3.9-5,5.5-8.6,5.8
						c-0.2,4.1-3.4,7-3.6,11.1c-1.4,0.9-2.9-0.6-5,0.1c-0.1,4.4-2.2,7.8-6.6,9.9c0.2,1.9,3,2.6,2.1,5.1c-1,2.7-3.3,3.1-5.1,4.4
						c-2-1.5,0.4-2.8-0.4-4.2c-2.7,1.4-2.2,4.2-3.2,6.2c-1.2,0.6-1.9-4.4-3.5-0.5c-1.4,0.7-2.7,1.6-4.1,2.3
						c-0.1,3.3,0.3,5.6,4.3,3.1c2.6,2.5,0.4,3.4-1.6,3.7c-1.5,0.3-3.1-0.3-4.7-0.4c-2.4,2-3.4,4.9-5.3,7.2c-0.7,1-1.6,2.1-2.3,3.1
						c1.1,1.2,2.3,0.9,3.4,0.8c-0.7,3.2-3.5,5.4-4.6,8.3c-1.5,0.9-2.1-2.1-3.5-0.8c-1.8,2.4,1.5,2.5,1.6,4.3
						c-3,4.5-3.6,9.9-5.1,15.4c2.7,2.2,4.9,0.1,6.8-0.4c1.2-1.1-0.2-2.7,1-3.5c5.1,2.7,0.9,4.7-0.2,6.5c-0.9,2.3,1.5,3.9,0.1,6.1
						c-2.4-0.7-2.6-6.1-6.9-3.6c-0.2,3.4,3.6,6,2.9,9.6c-1.6-0.6-3.5,0.4-4.6,0.7c-8.2,2.6-15.8-1.1-24-1.5c-1,1.4-2.2,3-3.4,4.7
						c-1-0.9-1.9-1.7-3.1-0.9c-1.4,0.6,0.6,2.5-1.1,3.2c-2.8-1.6-5.5-0.8-7.9,1c-1.7,1,0.3,3.5-1.9,4.4c-2.1-0.8,0.1-2.7-1-3.7
						c-7.2,2.2-11.6,8.6-18.4,11.5c-3.4,1.4-6.1,3.9-8.9,6.8c-2.8,2.9-5.4,6.4-9,8.6c-13.1,8.4-20.1,21.8-27.5,34.8
						c-2.4,4.4-4.5,8.5-8.1,9.7c-9.2,11.9-10.4,26-16.1,38.7c2.1,0.8,2,4.1,3.7,7.6c-2.7-1.1-4.7-0.1-4.7,1.7
						c-0.1,3.9-1,8.1,1.7,11.6c0.9,1.1,2,1.9,1.9,3.6c-0.7,7.2,1.6,13.6,4,18c13.1,13.7,25.7,25.3,41,33.3c1.7,0.8,0.1,3.3,2.7,4.3
						c2-1.2,4.3-2.3,5.8,0.7c2.2-0.7,3.4-4.3,5.9-1.7c0.8,2.6-3.4,2-2.4,4.7c3.7,2.1,7.6-1.7,11.5-0.1c0.3,0.6-0.5,1.7,0.7,2.1
						c5.7-1.4,11.5-2.4,16.2-1.6c5.5-3.5,10.1-7,16-7.2c3.1-0.1,5.9-0.3,5.7-4.5c9,4.6,11.1-6.1,17.3-7.5c0.9-1.8-0.6-3.7,1.1-5
						c2.6-0.4,0.8,3.2,3.6,3.2c2.6,0.7,3.3-1.9,5-3.3c-0.9-0.9-2.2-0.7-1.9-2.3c2.7-1.9,4.9-5.3,9.2-4.3c3-4.5-0.9-7.5-2-11.4
						c1.5,2.3,2.9,4.1,5.5,2.1c0.2,2.4,0.5,4.6,4.1,3.3c1.4-7.5,9.5-9.6,14-15.8c-2.6-2.3-3.7-5.5-7.2-7.3
						C1781.1,249.5,1783.1,247.2,1785,245.7z M1830,55.7c-1.8-0.5-3.6-1-4.4-3.2C1828.6,52,1829.6,53.6,1830,55.7z M1821.9,52.5
						c0,1.7-1.2,2.4-2,3.5C1819.5,54.2,1819,52.6,1821.9,52.5z M1814.4,44.2c0.4,1.8-0.2,3.1-1,4.7
						C1813.2,47.2,1813.3,45.6,1814.4,44.2z M1790.9,91.3c-1.2-1.7-1.6-3.1-0.7-5.2C1791.5,87.8,1792.8,89.1,1790.9,91.3z
						 M1792.1,46.2c1.1,0.9,2.2,2.1,2.4,3.9C1790.6,50.5,1792,48,1792.1,46.2z M1794.9,76.1c-1.7-3.5,1.2-6.1,1.1-9.7
						c3.9,1.8,0.3,4.3,1.5,5.9C1795.6,72.8,1796.1,75.1,1794.9,76.1z M1797.3,59.9c1.1-1.2,2.3-1.1,3.4-0.5
						C1799.9,62.6,1798.7,61.4,1797.3,59.9z M1797,89.2c-1.1-3.7-0.3-5.4,1.1-6.9c0.4,0.2,0.8,0.3,1.2,0.5
						C1798.6,84.6,1798,86.4,1797,89.2z M1810.3,68.1c-1.8-0.6-1.9-2-2.5-4.3C1809.9,65.3,1811.4,66,1810.3,68.1z M1805.5,79.7
						c-0.3,0-0.6-0.5-0.9-0.8c0.3-1.6,0.8-2.9,3.2-3.9C1808.9,78.1,1808.7,79.7,1805.5,79.7z M1807.5,54.5c-1.5,2.5-1.5,2.5-4.3,0.5
						C1804.8,54.4,1805.8,53,1807.5,54.5z M1804.4,71.2c-1,1.9-1.2,4.5-4.1,5.4c-0.8,1-1.7,1.8-3.1,0.2c0.1-1.2,0.2-2.8,0.4-4.3
						c0.7,0.7,1.5,1.5,2.2,2.2c0.4-1.5-0.4-3.1,0.9-4.9C1801.6,71.3,1803.2,68.8,1804.4,71.2z M1801.5,23.7c0.6,2.9-0.4,4.7-2.2,6.1
						C1800.6,28.2,1799.8,25.8,1801.5,23.7z M1799.4,34.1c-1.8,1.7-1.9,4-4.3,3.9C1795.8,36.4,1796.9,35.1,1799.4,34.1z M1795,38.1
						c-0.6,1.2,0.2,3.1-2.5,4.8c2.5-4.5-3-3.1-2.9-6.1C1792.3,33.9,1793.2,38.1,1795,38.1z M1790.5,43.9c1.2,0.2,1.4,1.1,1.6,2.2
						c-0.7,0.1-1.4,0.2-2.1,0.3C1789.6,45.5,1789.4,44.5,1790.5,43.9z M1621.1,237.7c-0.2-3.1,0.7-3.5,2.8-2.3
						C1623.7,236.9,1622.8,237.2,1621.1,237.7z M1784.4,224.7c-1.7-0.5-0.7-1.9-0.8-2.8c-0.1-0.6,0.1-0.8,0.4-0.5
						C1784.7,222.4,1785.6,223.2,1784.4,224.7z M1784.2,201.3c1.8-0.1,1.1-1.8,1.9-3.1c1.9,0.6,3.2,4.6,6.1,1.2
						C1790,203.3,1787.3,203.1,1784.2,201.3z M1757.7,118.4c-1.4,0.2-2.2-0.4-3.5-1.2c0.7-2.3,0.3-4.9,1.5-7.3
						c1.1,1.5,2.1,3.1,3.2,4.4c-0.4,0.1-0.8,0.2-1.2,0.3C1756.6,116.1,1757.9,117.2,1757.7,118.4z M1792.6,162
						c-0.4,2.1-2.2,2.3-3.3,3.1C1789.5,163.4,1789.3,161.1,1792.6,162z M1792.6,182.8c-4.7,0.6-3.9-2.4-4.4-6.1
						C1791.1,178.8,1789,183.1,1792.6,182.8z M1788.1,239.9c1.2-2,2.2-2.1,3.3-0.7C1790.4,241,1789.5,239.9,1788.1,239.9z
						 M1793.7,236.7c-0.7-1.7-1-3.2,1.5-4.2C1796.1,234.8,1794.5,235.5,1793.7,236.7z M1790.6,223.6c2-3.3,2-3.3,5.1-1.5
						C1794.4,224.1,1792.4,223.5,1790.6,223.6z M1797.7,169.9c-0.6-2.8-1-4.5-1.4-6.1C1798.2,165.1,1798,167,1797.7,169.9z
						 M1800.2,202.7c0.6-1.5,1.4-1.6,2.4-1.2C1802.8,203.4,1802.1,203.7,1800.2,202.7z M1805.5,180.1c-1-2.1,0.2-2.7,0.5-4.3
						C1807.2,177.8,1806.4,178.7,1805.5,180.1z M1808.7,196c0.1-1.7,0.7-2.1,1.7-2.4C1810.9,195.1,1810.3,195.7,1808.7,196z
						 M1810.7,186c1.1-2.1,2.2-0.8,3.6-1.2C1813.2,186.8,1812.4,187.3,1810.7,186z M1812.4,177.6c2.9-0.7,3.3,1.5,4.5,2.1
						C1814.3,181.5,1814.3,178.7,1812.4,177.6z M1782.1,65c-0.9,1.4-2.6,1.8-4.3,1.7c0.1-2.1,3.5-2.9,2.1-5.6c0,0,0,0,0.1,0
						c0,0,0,0,0-0.1l0,0c0,0,0,0,0,0.1c-1.4,0.2-2.7,0.4-3.7-1.6c-0.1-0.9-0.1-2.3-0.2-3.6c1.4,1.7,2.6,3.4,4,5.1
						C1783.4,60.9,1783.7,62.7,1782.1,65z M1782.6,57.5c-2.7,0.4-4.2-2.2-6.6-1.8c-0.1-0.2-0.2-0.4-0.4-0.5
						C1778.4,54.2,1780.7,54.9,1782.6,57.5z M1775.5,109.8c-0.5,0.1-1,0.2-1.6,0.4c-0.5-1-0.7-2.2,0.8-3.2
						C1775.9,108.1,1775.9,109,1775.5,109.8z M1774.9,87.3c-1.1,0.9-1.9,1.9-3.3,1.2C1772,86.9,1772.7,86.1,1774.9,87.3z
						 M1766.9,61.6c1.1,0.5,1,1.4,0.9,2.2c1.1,1.7,0.7,3.2-0.3,4.8c-1.4-0.8-1.6-2.1-1.7-3.4C1764.6,63.3,1764.9,62.1,1766.9,61.6z
						 M1767.2,86.8c-0.4,1.5-1,1.9-2.2,0.9C1765.2,86.1,1765.9,85.9,1767.2,86.8z M1711.6,115.5c2.5,0,3.3,1.2,3.2,4.5
						C1712.8,118.6,1711.3,117.9,1711.6,115.5z M1641.6,243.8c0.3,3.2-1.2,4-3.1,5C1637.1,245.6,1638.8,244.7,1641.6,243.8z
						 M1634.9,231.8c-1.6,1-2.4,0.9-2.5-1C1633.9,229.9,1634.8,229.8,1634.9,231.8z M1632.3,240.3c2.3,1.2,0.4,3.1,0.9,4.4
						C1632.1,243.6,1630.9,242.4,1632.3,240.3z M1633.5,245.1c2,2.4,2,2.4-0.2,4.1C1631,247.6,1633,246.4,1633.5,245.1z
						 M1633.4,254.1c0.9-3.9,3-2.7,5.1-1.6C1637,254.2,1634.6,251.4,1633.4,254.1z M1640.1,257.1c0.9-2.7,3-4.2,2.9-7.5
						C1644.8,257,1644.8,257,1640.1,257.1z M1646.4,258.5c1.8-1,2.9-1.7,4.5-2.6C1650.6,258.7,1649.3,259.3,1646.4,258.5z
						 M1652.1,267.7c-1.9-2.2-0.9-4.3-0.5-6.2C1653.9,263.3,1654.5,265.3,1652.1,267.7z M1657,225.5c0.9-1.4,1.2-2.5,2.6-2.4
						C1660.7,225.2,1659.6,225.7,1657,225.5z M1694.1,286.6L1694.1,286.6c1.8-1.2,2.3-0.5,2.5,1.4
						C1694.7,288.5,1694.4,287.7,1694.1,286.6z M1707.7,280.5c0.3-2.6-5.6-2.5-2.8-6.5C1707.6,275.6,1708.2,277.9,1707.7,280.5z
						 M1730.1,288.1c2.4,1.6,5.1,2.9,5.2,6.4C1730.3,290.9,1730.3,290.9,1730.1,288.1z M1732.9,262.2c3.5,0.6,3.5,0.6,5.3,6.2
						C1737.4,268.1,1734.4,264.6,1732.9,262.2z M1746.8,250.3c1.6-2.2,3.7-2,5.8-2.1C1751.2,250.3,1749,250.4,1746.8,250.3z
						 M1759.9,233.1c-1.9-1.1-0.6-2.8-1.6-4.7c1.4,0.6,1.9,0.9,2.4,1.1C1760.6,230.8,1760.7,232.1,1759.9,233.1z M1767.3,265.4
						c-1.6-1.9-0.2-2.1,0.7-2.8C1769.6,264.6,1768.6,265,1767.3,265.4z M1774.7,213.6c-1.4,1.8-2.7-0.6-4.3,0
						c-1.1,1.1-0.7,4.4-4.1,3.3c-1.1-1.2,1-2.1,0.6-3.3c-1.1-0.8-2.4,0.4-3.7,0.1c-0.5,3.1-2.2,6.4,1.2,9.2c0.9,0.9,0.7-1.5,2.8-0.7
						c0.3,0.2,1.2,1.1,1.9,3c-2.8,0.4-4.9,1.7-4.5,4.6c-1.7,0.9-2.7,0-4-0.2c0-1.6,0.3-3.2-1-4.8c-0.8,0.2-1.8,0.3-2.8,0.5
						c-0.8,1.9,0.1,4.3-1.8,5.7c1.2,3-0.3,5.5-1.5,8.3c-1.7-2-1.1-4-1.5-5.7c-2,0.6-3.6,2.1-5.9,2.1c0.4,1.6,0.6,2.7,0.9,4
						c-6.5,2.6-13.1,5.4-16.1,11.8c-1.8,3.9-5.7,4.3-7.7,7.2c-1.2-0.1-0.9-1.9-2.3-2.2c-3.9,4.5-9.7,6-14.7,9c-3.7,2.1-7.4,3.6-12,4
						c-3.3,0.2-7.1,1.5-8,5.4c-3.7,0.7-7.3-3.2-11,0.6c-1.1-2.3-3.5-2-6-1.2c-5-5.6-4.5-13.2-8.6-19c2-0.8,2.3,0.1,2.7,0.7
						c0.6,0.8,1.2,1,2.2,0.4c1.7-2.1-1.9-3.2-0.9-5c-0.7-2.9,4.3-4.4,1.7-7.7c0.6-1,2.2-0.1,2.7-1.4c-1.5-1.7-0.3-3.9-1-6.1
						c3.6-0.9,5.1-3.1,2-6.7c2.2-1,4-2,6.5-3.2c4.6-10.9,12.4-20.6,18.7-31.2c2.3-1.1,3.6-3.2,5.4-5.1c4.6-4.9,7.9-10.8,13.3-14.9
						c4-2.9,7.8-5.7,11.2-9.3c7.1-7.5,17.7-10.8,23.2-19.9c11,2.8,20.7-0.5,30.2-4.9c0.8,2.1-2,3.1-1.6,5.4c2.9-1.6,5.1-0.3,7.2,1.9
						c2.3,4.8,2.2,9.9,0.9,15.2c0.9,0.9,2.3,1.5,3.6,1.8c0.5,6.2-1.4,9.1-6.9,10.9c-0.4,2.6,2.4,2.6,3.2,4.2
						c-5.5,4.1-6.7,10.5-2.7,17.4c0.6,1.1,0.9,2.2,1.2,3.3c-2.2-1.5-5-2-7.2-4.4c-0.7,2-1.8,3.5-3.2,4.8c1.5,1.6,3.9-0.5,4.6,2.3
						c-2.3,0.7-4.6,1.4-7.3,2.2C1772.2,208.8,1774.8,210.5,1774.7,213.6z M1778.9,219c1.4,1.5,0.8,2.1-0.5,2.3
						C1776.9,220.1,1778.5,219.7,1778.9,219z"/>
				</g>
			</g>
			<path class="st3" d="M1917.1,81.5c-1.5,1.9-1.2,3.5-0.8,5.3C1918.3,85.5,1918.7,83.9,1917.1,81.5z"/>
			<path class="st3" d="M1920.3,238.1L1920.3,238.1L1920.3,238.1z"/>
			<path class="st3" d="M1940.3,59c-1.1,2-1.9,3.3-3.1,5.4C1940.6,63.8,1940.9,62.3,1940.3,59z"/>
			<path class="st3" d="M1944.5,237.7c0.6,1.7,1.4,3.2,2,4.9C1946.5,240.7,1948.3,238,1944.5,237.7z"/>
			<path class="st3" d="M1944.4,237.6h-0.1C1944.3,237.7,1944.4,237.7,1944.4,237.6C1944.4,237.7,1944.4,237.7,1944.4,237.6
				C1944.4,237.7,1944.4,237.7,1944.4,237.6z"/>
			<g>
				<g>
					<path class="st3" d="M2004.3,91.4c-0.4-7.6-2.3-14.2-11.4-16c0.2-3.1-2.6-4.9-3.7-7.4c-1.1-0.7-2.6,0.7-3.7-0.7
						c-0.1-1.7-0.2-3.5-0.4-5.4c-3.3,0.2-4.2-5.3-8.1-2.5c-0.6-5.6-5.4-4.4-8.2-6c-4.3-2.5-4.8,5-8.5,3.2
						c-2.5,4.7-3.2,10.5-8.6,13.1c0.2,2.5,0.3,4.9,0.5,7.4c-1.4,0.8-3.1-0.6-4.4,1.8c0.2,1.6,0.4,3.5,0.7,5.6
						c-2.3,1.6-2.7,4.8-6,5.4c-1.1-0.6-2.4-1.4-3.6-2.1c-1.2-0.7-2.5-1.7-4.2-1.6c-1.5,0.3-2.3,1.7-3.3,2.6c2,0,3.5,0.4,3.7,2.8
						c-1.5,2.1-3.2,0.9-4.9,0.6c-1.4,4.4-6.9,7.9-12.1,7.2c1,2.5,2,4.8,2.9,7.1c-1.4,4.7-1.4,4.7-4.6,5.3c-0.5-1.2,3-0.5,1.4-2.4
						c-3-0.7-3.9,3.2-6.5,2.9c-1.8-0.8-0.5-3.1-2.2-3.9c-3-0.4-4.5,1.5-5.5,3.3c-0.5,1.8,1.7,3-0.1,4.6c-5-0.9-6.4,5.6-12,5.7
						c2.5-7.3,1.8-14.9,6.1-21.7c-1.8-2.1-1.2-4.9-0.9-7c-0.7-1.7-2.2-1.1-3-2c0.1-1.7,1.1-4.4-1.1-4.8c-3.3-0.5-2.5-2.7-3-4.7
						c-1.5-0.6-3-1.4-3.7-1.7c-6.9-9.2-15.6-13.7-26.2-16.3c0,2.2-1.9,2.4-3.1,3.1c2.1,7.9-7.2,12-5.9,19.5c-1.6-0.1-2.6-0.1-3,1.8
						c-1.4,12.5-7.6,24.3-9.3,37.2c-0.7,10.7-4.3,21-6.4,31.2c-0.8,0.8-1.4-1-2.1,0c-0.7,5.2,0.7,10.4-0.4,15.2
						c-1.8,7.7-4.8,15.1-6.1,22.9c-2,10.8-5.3,21.2-9.8,31.3c-5.3,12.1-10.1,24.5-13.9,37.2c-0.6,2.2-1.4,4.7-2.8,6.4
						c-4.8,5.5-5.5,12.5-7.8,18.4c4.3,7.7,13.4,9.8,16.9,16.5c7.1,5.3,15.5,7.3,20.1,15c1,0.2,2.3,0.4,3.5,0.6
						c2.4,0.4,4.2-1.9,7.2-0.8c5.5-24.3,18.1-45.2,26.5-68.4c1.5,0.6,2.8-0.1,2.9-2.3c1.8-0.7,2.1-1.9,0.9-3.3
						c-1.6-0.4-1.9,0.6-2,1.8c-0.8-1-1.2-2.2,0-4.1c0.7-1.6,3.4,0.5,4.6-1.5c2.8-5,4.7-10.6,10.5-13.6c0.2-2.9,0.6-5.9,4.1-6.2
						c1.6-3-0.5-5.8,0-8c2.2-3.2,5.7-0.7,7.7-2.9c-0.4-1.5-2.5-0.9-2.6-2.9c3.5,0.8,3-5.5,7.5-3.6c-0.9-2.9,1.9-4.6,1.6-6.2
						c-0.4-2-2.7-1.8-2-3.9c1.8,0.2,3.5,0.4,5.3,0.7c1-2.5,2-4.8,2.9-7.1c7-3,8.5-11.8,15.9-14.5c-0.9-1.9-2.3-3.6-1.1-5.7
						c10.3,1.2,4.3,9.6,6.5,14.4c-1.4,0.4-2.5,0.8-3.6,1.2c2.6,9.7-1.7,18.6-2,28.6c1.7,1.8,3,4.2,1,7.7c-2.8,5-5,10.2-7.4,15.4
						c-0.2,0.5-0.2,1.2-0.2,2.1c1,1.1,2.1,2.4,3,3.5c-0.5,2.3-3.4,3-3,6.1c2.2,1.8,5.2,4.2,0.2,6.8c1,1.8,2,3.1,4.8,2.7
						c0.8,0.1,0.4-2.8,2.4-2.2c0.7,1.7-0.5,2.9-0.5,4.4h-0.1c0,0,0,0,0,0.1c0,0,0,0,0.1,0c0,0,0,0,0-0.1c2.1,0,4-0.2,3.6-3.4
						c2.7,2.7,0.1,4.8,0.4,6.9h-0.1l0,0l0.1,0.1v-0.1c2.9-1.1,5.8-0.2,8.7-0.6c-0.1-0.8-0.1-1.7-0.2-2.5c-3.1-1-0.4-7.2-5.8-5.9
						c2.2-6.7,5.2-12.3,5.8-18.7c2.6-0.1,1.7,2.5,2.8,3.5c1.5-0.6-0.2-3.7,2.7-3.3c2.1,1.5-1.2,2.3-0.5,3.4c0.4,2.2,3.2,2.1,3.6,4.2
						c-2.1,0.1-3.9-0.8-6,0c-1.6,4.2,0.9,8.3,0.9,12.6c2.1,2.1,4.6,3.5,7.7,3.3c-0.7-0.9-1.4-2-2.2-3.1c0.9-1.5,1.8-3.2,2.1-5.1
						c-1.4,0.1-2.6,0.1-2.4-1.9c1.8-1.1,2.6-0.6,2.8,1.5c0.6,0.9,0,2.6,1.7,2.9c2.2-1.7,0.9-4.9,3-6.7c2.1,5-0.4,10.2,0.8,16
						c0.6-1.6,0.9-2.3,1.4-3.3c1.2,1.7,1.9,2.6,3.1,4.2c0-8.3,6.1-16-1.1-23.7c2.3-0.3,4.5-0.7,5.8-3.1c-0.5-1.7-1.1-3.4-1.7-5.2
						c0.9-1.5,1.8-2.8,2.6-4.3c-0.5-2-0.6-4,0-6.4c0.9,1.1,1.7,2.1,2.4,3c2.6-6.9,5.1-13.9,7.4-20.1c-1.6-2.9-4-0.2-5.4-2.1
						c0.7-2,3.6-1,4.5-3.7c0.1-1.5,0.2-3.5,0.4-5.8c4.3-2.7,6.7-7.3,7.2-12c1.1-11.5,5.5-21.9,8.6-32.7c0.5-2-1.1-2.5-1.2-4
						c7.5-2.2,4.4-10.2,8.2-14.4c-0.6-1-1.1-2-1.7-2.7C1994.9,114.1,1998,102.1,2004.3,91.4z M1890.3,97.7c1.5-1.5,2.3-0.9,3,0.8
						C1892,99.3,1891.1,99.5,1890.3,97.7z M1898.2,172.8c-2-3.6-2-3.6,0.6-6.2C1897,168.4,1898.7,170.6,1898.2,172.8z M1896.9,132.5
						c-0.8-2.6,0.6-2.7,2-3.3C1899.9,131.3,1899.2,132.2,1896.9,132.5z M1924.7,107.8c0.1,2.9,0.7,5.4-1.9,7.2
						C1924,112.8,1920.6,109.7,1924.7,107.8z M1907.8,115.1c2.4,2.1,0.1,4.1,0.1,6c-0.9-0.3-2.1-0.3-2.8-1.5
						C1905.3,117.9,1906,116.3,1907.8,115.1z M1903.1,124.6c0.7-1.6,1.9-1,3.4-0.7C1905.3,126.5,1904.2,125.8,1903.1,124.6z
						 M1906.8,167.3c-1.2-1.7,0-2.4,1.6-3.7C1908.5,165.5,1907.5,166.3,1906.8,167.3z M1908.6,127.3c-1.1-2-0.1-4.2-0.6-6.1
						c2.9,0.6,2.7,4.1,5.1,5.2C1911.5,128.7,1910.1,128.4,1908.6,127.3z M1913.2,150.8c-1.5-2-3.5-3.4-3.4-6.7
						C1913.6,145.4,1914,147.7,1913.2,150.8z M1913.3,172.8c-2.2-2.9,2-4.8,0-7.2C1916.8,168.3,1916.8,168.3,1913.3,172.8z
						 M1919.1,161.9c-2.4-1.7-5.5,0.9-8.4-2.3c2.7-0.6,5.4,1.7,6.7-1.6C1918.5,159.4,1919.3,160,1919.1,161.9z M1918.2,137.1
						c2.4,1,2.4,1,3.2,4.4C1919.5,140.7,1918.7,139.1,1918.2,137.1z M1924.7,165.7c-0.9-0.8-1.8-1.8-1.9-3.5
						C1926.1,162.6,1924.2,164.6,1924.7,165.7z M1923.1,117.8c-1.2-0.7-0.8-1.8-0.3-2.7c0.8,0.5,1.8,1,2.7,1.6
						C1924.9,117.3,1924,117.7,1923.1,117.8z M1920.2,244.6c2.1-0.4,2.8,0.5,2.7,2.8C1920.1,247.9,1919.4,247,1920.2,244.6z
						 M1924,230.6c-3-1.6,3.2-5.9-2-6.6c1.6-0.3,3.2-0.5,5.8-0.9C1925.4,225.5,1925.9,228.6,1924,230.6z M1933.5,205.4
						c-1.9-2.2-1.1-3.3,1.2-4.2C1935.7,203,1934.6,204.1,1933.5,205.4z M1932.7,104.7c-1.8-1.9-0.8-3.6,0-5.8c2,1.2,3.6,2.3,4.2,4.4
						C1935.9,105.6,1934.3,105.3,1932.7,104.7z M1941.5,97.3c-1.1-1.1-2.3-1.9-1.7-3.3c1.5-0.2,2.1,0.7,2.5,1.9
						C1942.1,96.2,1941.9,96.5,1941.5,97.3z"/>
				</g>
			</g>
			<path class="st3" d="M1944.9,261.7c-4.3-1-4.5-4.1-4.6-7.5c-3.3-0.7-5.7-3-8.3-4.3c-1.1-2.2,0.3-3.6,0.6-5.2
				c-1.5-0.2-2.8,0.1-3.7,0.8c-2.3-0.8-3.2-2.6-4.5-3.9c-1.4-1.1-3.4-1.4-4.1-3.4c-2.5-0.1-2.5,3-4.2,3.5c-1.7-0.2-1.9-2.4-3.7-1.5
				c-2.3,1.7-2.6,4.5-3.3,7.1c1.8,3.6,3.4,7.2,5.2,10.7c7,0.8,10.6,9,18.3,7.8c0.7,1.9,1,3.9,3.5,5.3c4.5,0.8,9.1-0.6,13.7-3.7
				C1947.4,265.9,1947.6,262.3,1944.9,261.7z"/>
			<g>
				<g>
					<path class="st3" d="M1603,236.9c4.6-12.2,10.3-24,10.9-37.8c2.4-0.8,4.6-2.5,5.3-5c0.4-2.8-1.4-5.2-0.1-7.6
						c10.2-23.4,13.4-49.2,22.7-73.4c-0.7-1.1-1.6-2.7-2.4-4.2c-2.4-0.4-4.4-1.1-5.2-2.2c-1.4-2,0.3-3.5-1.2-4.5
						c-10.6-8.3-21.2-16.7-34.5-18.6c-9.4,21.3-16.2,43.1-21.2,66.9c-4.3,4-3.1,11.2-5.1,17.4c-1,3.4-4.6,6.7-2.8,10.9
						c1.1-0.2,2.3-0.3,3.6-0.5c0.3,2.6-1.6,3-3.2,3.5c0.8,4.4-3.3,3.2-4.8,4.7c-1.1,8.5-4,16.8-6.8,24.4c-2.5,6.9-2.6,13-2.1,19.9
						c-1.1,0.4-2-1.8-3.1-0.7c-5.1,4.8,2.3,8.9,0.6,13.7c-2.3-0.7-4.6-1.7-5.6,1c-2,7.3,3.6,7.8,8,9.6c0.4-1.4,0.8-2.7,2.7-2.7
						c0.5,1.7-0.4,3.1-0.6,4.7c0.1,0.5,0.2,1,0.3,1.6c0.2,3,3.2,4.8,3.6,7.8c-3.9-1-5.8-3-4.3-7c-1.4,0.7-2.7,1.5-4.1,2.2
						c-3.5-1.9-6.6-1.7-9.1,1.5c0.7,1.6,1.8,2.2,3,2.7c-0.2,3.5-4.4,1.8-5.1,3.2c-0.8,2.9,1.8,4.2,1.1,6.1c-0.9,1.4-2.9,0.6-3.9,2.5
						c0.1,1.1,0.3,2.6,0.6,4.6c2.7-1.2,4.3,0.9,6.5,1.7c0.5-1,1.1-2.1,1.6-3c1.9,0,2.3,1.1,2.7,2c-0.7,1.9-2,2.4-3.4,2.4
						c-0.1,3.4-4.1,2.4-4.8,4.7c-3.1,0.3-5.3-0.4-7-2.6c-0.7,1.5-2.6,1.2-3.9,2.7c3.4,3.6-1.2,5.4-2.2,7.8
						c6.1,13.1,20.5,11.7,29.8,18.4c2.8-2.4,5.9-2.9,8.9-4.4c-1.2-1.8-2.3-3-3.1-4.2c-1.9-0.9-3.2,2.2-5.2-0.2
						c1.4-2,1.6-4.6,1.8-7.5c1.2,1.2,0.5,2.7,1.9,3.2c1.9-0.7,1.2-3.6,3.7-4.1c0.9,0.3,2,0.7,2.8,1c2.4-0.6,3.1-3.3,5.8-3.2
						c1.9-0.3,1,2.7,3,2.6c1.9-1.2,3.4-2.8,4.3-5.1c-0.3-2.3-1.2-4.6-0.3-6.9c0.7-1.8,3.4-0.5,4.2-2.8c0.8-1.2-1.6-1.6-1.2-3.1
						c1.8-1.8,4.1-3.3,5.2-5.9c0-1.6-2.6-1.7-2.1-3.3c5.3-6.8,6.2-15,9.2-22.4c0.5-1,2.4-0.3,3.1-2.6
						C1600.2,243.8,1604.2,240.4,1603,236.9z M1560.3,233.6c-3.2-2.6-0.3-2.8,1.1-3.9C1562,231.8,1560.8,232.4,1560.3,233.6z
						 M1554.2,269.8c1.8,2,1.2,3.4-0.4,4.8c-0.1-1.8-2.6-2-2.7-3.6C1551.8,269.4,1553.1,269.8,1554.2,269.8z M1550.2,277.8
						c0.2-2.4,2.4-2.1,3.5-3c0.2,2.1,0.3,4.3,3.9,5.1C1553.4,281.5,1551.7,279.7,1550.2,277.8z M1557.7,298.2c1.6-5.7-2.6-7.4-5-10
						c2-1.8,3.7,1.9,5.9-0.7c-0.4,4.2,1.1,6.4,5.1,7.1C1561.4,294.6,1560.6,296.5,1557.7,298.2z M1570.7,228
						c-1.6-0.4-2.3-1.2-2.5-2.8C1570.1,225.4,1571,226.2,1570.7,228z M1578.7,231.7c1-0.3,1.7,0.1,2.1,0.8c1.5,2.3,0.9,3.6-1.9,4.4
						C1577.6,234.5,1577.9,233,1578.7,231.7z M1582.5,252.3c-1.6,0.1-3.2,0.2-4.8,0.3C1578.6,249.9,1580.8,251.9,1582.5,252.3z
						 M1577.5,253c-0.2,1.6,1.4,2.5,1.9,4.2C1576,256.6,1576.7,254.8,1577.5,253z M1573.7,270.6c0.7-2,2.1-1.2,3.2-1.2
						c1,0,2-0.1,3.4-0.2c0.3,1.6,0.2,3.2-0.9,5.3C1576.8,273.8,1574.4,273.2,1573.7,270.6z M1580.6,279.4c-1-1.5-0.6-2.2,1.1-2.3
						C1582.9,278.6,1582.2,279.3,1580.6,279.4z M1582.3,257.7c1.5-2.8,2.2-2,2.9-0.8C1584.7,258.3,1583.8,257.9,1582.3,257.7z
						 M1585.3,263.3c2.7-0.4,3.3,1.4,4.7,4C1586.1,267.4,1585,266.3,1585.3,263.3z M1586.8,251.7c1.7,1,3.7-0.7,4.8,2.3
						C1589.1,254.7,1588,253.9,1586.8,251.7z M1589.7,229.4c-1.2-2.6,0-2.6,2.2-2.3C1591.7,229.3,1590.9,229.6,1589.7,229.4z"/>
				</g>
			</g>
		</g>
	</g>
</g>
</svg>
