<?xml version="1.0" encoding="utf-8"?>
<!-- Generator: Adobe Illustrator 26.3.1, SVG Export Plug-In . SVG Version: 6.00 Build 0)  -->
<svg version="1.1" id="Layer_1" xmlns="http://www.w3.org/2000/svg" xmlns:xlink="http://www.w3.org/1999/xlink" x="0px" y="0px"
	 viewBox="0 0 2124 345" style="enable-background:new 0 0 2124 345;" xml:space="preserve">
<style type="text/css">
	.st0{fill:#F2891C;}
	.st1{fill:none;}
	.st2{fill:#33738C;}
</style>
<g>
	<polygon class="st0" points="1415.6,95.7 1459.6,95.7 1459.6,314.5 1497.9,314.5 1497.9,95.7 1541.8,95.7 1541.8,59 1415.6,59 	"/>
	<path class="st0" d="M1245.3,256.2c0,7.4-1.8,13-5.5,17c-3.7,3.9-8.9,5.9-15.7,5.9c-6.6,0-11.7-2-15.4-5.9c-3.7-3.9-5.5-9.6-5.5-17
		V59h-38.7v196c0,19.9,5.2,35.3,15.6,46c10.4,10.8,25,16.2,44,16.2c19.1,0,33.9-5.4,44.3-16.2c10.4-10.8,15.6-26.1,15.6-46V59h-38.7
		V256.2z"/>
	<path class="st0" d="M1116.6,64.1c-9-5.2-19.9-7.7-32.8-7.7c-12.7,0-23.5,2.6-32.5,7.7c-9,5.2-15.9,12.6-20.7,22.2
		c-4.8,9.7-7.2,21.5-7.2,35.4v130.2c0,13.7,2.4,25.5,7.2,35.2c4.8,9.8,11.7,17.2,20.7,22.3c9,5.1,19.9,7.6,32.5,7.6
		c12.9,0,23.8-2.6,32.8-7.7c9-5.2,15.8-12.6,20.5-22.2c4.7-9.7,7.1-21.5,7.2-35.4v-15.6h-39v15.6c0,8.6-1.8,15.2-5.4,19.9
		c-3.6,4.7-9,7.1-16,7.1c-6.8,0-12.1-2.3-15.8-7c-3.8-4.7-5.6-11.3-5.6-19.9V121.7c0-8.7,1.9-15.3,5.6-20c3.7-4.7,9-7,15.8-7
		c4.7,0,8.6,1.1,11.8,3.3c3.2,2.2,5.6,5.2,7.2,9.2c1.6,4,2.5,8.8,2.5,14.6v15.6h39v-15.6c0-13.8-2.4-25.6-7.1-35.3
		C1132.4,76.7,1125.6,69.2,1116.6,64.1z"/>
	<polygon class="st0" points="1349.9,59 1311.2,59 1311.2,314.5 1329.3,314.5 1349.9,314.5 1419.5,314.5 1419.5,277.8 1349.9,277.8 
			"/>
	<path class="st0" d="M1635.8,256.2c0,7.4-1.8,13-5.5,17c-3.7,3.9-8.9,5.9-15.7,5.9c-6.6,0-11.7-2-15.4-5.9c-3.7-3.9-5.5-9.6-5.5-17
		V59H1555v196c0,19.9,5.2,35.3,15.6,46c10.4,10.8,25,16.2,44,16.2c19.1,0,33.9-5.4,44.3-16.2c10.4-10.8,15.6-26.1,15.6-46V59h-38.7
		V256.2z"/>
	<path class="st0" d="M1798.4,199.4c9.7-4.7,17.2-11.5,22.3-20.4c5.2-8.9,7.7-19.7,7.7-32.3v-29.9c0-12.3-2.6-22.8-7.7-31.5
		c-5.2-8.7-12.6-15.3-22.3-19.8c-9.7-4.5-21.4-6.8-35.1-6.8h-23.4h-20.6h-17.6v255.7h38.1V206.4h21.5l32.4,108.1h41.8l-37.9-114.8
		C1798,199.6,1798.2,199.5,1798.4,199.4z M1739.9,95.5h26.2c7.4,0,13.1,2.1,17.2,6.4c4.1,4.3,6.2,10.2,6.2,17.8V147
		c-0.1,7.1-2.2,12.7-6.2,16.7c-4,4-9.8,6-17.1,6h-26.2V95.5z"/>
	<path class="st0" d="M1903.3,59l-60.1,255.5h39.5l9.2-47.8h53.2l9.2,47.8h39.5L1933.9,59H1903.3z M1899,230.7l19.6-101.6
		l19.6,101.6H1899z"/>
	<polygon class="st0" points="2053.4,277.8 2053.4,59 2014.7,59 2014.7,314.5 2032.8,314.5 2053.4,314.5 2123,314.5 2123,277.8 	"/>
</g>
<rect x="-77" y="-308" class="st1" width="686" height="686"/>
<g>
	<g>
		<g>
			<g>
				<path class="st2" d="M234.6,175c-1-3.5-4.4-5.6-4.4-9c-2.8-2.4-5.8-0.5-8.5-1.3l0.1,0c-3.1-0.4-3.8,2.8-5.8,4
					c0-0.4-0.1-0.8-0.1-1.2c-1.2-0.8-2.3-1.7-3.8-0.5c-5.5,4.5-9.8,2.8-13.7-3c3-1.4,2.1-4,2.2-6.4l0,0c2.2-2.6-0.5-4-1.7-5.6
					c2.1-4.1,3.2-8-0.7-11.4l0,0c3-2.9,0.4-6.7,1.8-9.9c0.1-0.1,0.2-0.3,0.2-0.4c-0.1-0.3-0.2-0.6-0.3-0.9c1-1.9-2.2-4.4,0.7-6.1
					c0,0,0,0,0,0l0,0c0,0,0,0,0,0c0.2-4.4-3.7,0.3-4.5-2c0.3-2.5,3.1-1.2,4.1-2.7l0,0c0,0,0.4,0,0.4,0l-0.1-0.4
					c0.1-4,0.1-8,0.2-10.8c-2.4-4.9-5.5-0.8-8-2c0.3-2.4-0.9-5.2,2.5-6.1l0,0c0.5,0.6,1,1.3,1.9,0.7c0-1.2-1-0.8-1.7-1
					c2-1.6,3.3,0,4.8,1l0,0c0.4,0,0.9-0.1,1.3-0.1l0,0c0.8-1.7,0-3.2-0.3-4.8c1.6-0.7,2.4-1.8,2.5-3.7c0.1-5.2,1.1-10.3,2.4-15.4
					c2.2-8.7,3.6-17.7,5.3-26.2c-6-6.3-11.9-11.7-19.4-15.2c-4.9-5.4-10.9-9.3-17.1-12.9c-6.5-3.8-9.5-3.1-12.4,3.7
					c-3.5,8.1-8.4,15.5-11.9,23.6c-2.4,5.6-6.9,11.6-11.7,16.5c-1.7,1.8-3.2,4.2-2.2,5.7c-11.4,14.7-19.1,31.2-30.4,45.2
					c0,0,0,0,0,0c-0.7,1.3-1.5,2.5-2.2,3.8c-2.8,1.2-3.4,4-4.4,6.4c-1.8,1.7-3.2,3.7-3.2,6.3c-3.4,0.9-2.2,4.2-3.2,6.3
					c-1.1,0.8-2.7,1.3-3.3,2.4c-10.1,15.8-20.2,31.5-29.9,47.4c-3.9,6.3-6,13.9-13,17.6c-9.5,5.1-17.5,12.9-28.2,15.9
					c-1.7,0.5-4.3,1.6-1.1,3.8c2.3,1.9,1.2,4,0.5,6.1l-0.1,0c2.2,2-0.9,4.2,0.2,6.2c6,3.6,3.8,11.4,8.3,15
					c-2.7,12.2-11.4,20.9-14.4,32.7C7.6,288.7,2,297.6,2,303.7c1.4,1.1,2.8,2.3,4.1,3.4l0,0c-0.8,4.4,2.9,3.7,5.2,4.6c0,0,0,0,0,0
					c6.5,2.1,12.7,5.4,20.2,5.2c2.7-2,5.8-3.7,9-5.5c7.7-4.3,15.6-9.1,19.1-17.7c5.1-12.6,13.1-23.7,17.9-36.4
					c0.5-1.4,1.7-3.2,3-3.6c7.4-2.4,13.1-7.8,20.3-10.6c11.9-4.6,24.4-7.3,36.5-11.2c0,0,0,0,0.1,0c4.9-0.3,9.7-2.8,14.5-1.5
					c3.2,4.7,0.6,9.3,1,13.8l0-0.1c-1.1,1.6-1.4,3.3-0.6,5.1c1.7,4.2,1.2,8.2-0.7,12.2l0-0.1c1.7,4.2,0.5,8.3-0.4,12.4
					c-1,4.5-1.6,9,1,13.3l0,0c0,0,0,0.1,0,0.1c0,0.4,0.1,0.8,0.1,1.1c0,0,0,0,0,0.1c-0.4,0.4-0.7,0.8-1.1,1.3
					c-0.4,0.8-0.7,1.7-1.1,2.5l0,0c1.6,0.5,3.3,1.1,5,1.6c-1.8,2.1-4.9,0.2-6.1,2.8c2.4,4.4,2.4,4.5-1.6,20.8
					c2.6,12.4,13.9,13.3,22.8,17.3c2.2,2.9,5.4,0.3,7.9,1.3c2,0.5,2.4,3.5,5.2,3.1c1-3.9,2.1-7.8,3.1-11.8c-3.1-2.5-3.8-6.4-7.2-7.9
					c0.6-4.4,4.1-4.1,7.1-4.7c-0.3-1.1-0.6-2.1-0.8-3.1c0,0,0,0,0,0l0,0c0,0,0,0,0,0c-0.4,0-0.8,0-1.1,0c0.4-0.4,0.7-0.8,1-1.3
					c0,0.4,0.1,0.8,0.1,1.2c0,0,0,0,0,0c0-0.4-0.1-0.9-0.1-1.3c2.4-2-0.6-5.4,1.9-7.4c0,0,0,0,0,0l0-0.1c0,0,0,0,0,0
					c1.1-8.9-0.2-18.1,1.8-26.9c0.2,0.1,0.3,0.1,0.4,0.1c-0.1,0-0.2-0.1-0.4-0.2l0,0.1c-0.7-1.5,0.3-3.6-1.5-4.8
					c1.2-0.5,2.4-1,3.5-1.5c0,0,0,0,0,0l0,0c0,0,0,0,0,0c0,0,0,0,0,0c0,0,0,0,0,0c0,0,0,0,0,0l0,0c0-0.1,0-0.1,0-0.2
					c0,0.1,0,0.1,0,0.2c-0.4-0.4-0.9-0.7-1.3-1.1c-0.1-0.1-0.2-0.3-0.3-0.4c0.1,0.1,0.2,0.3,0.3,0.4c0.4,0,0.7,0.1,1.1,0.1
					c0.1,0.3,0.1,0.6,0.2,0.9c0-0.4,0-0.8,0.1-1.2c-1.7-5.7-2.3-11.2,3.7-14.7c-0.3-3.5-0.5-6.7-0.7-9.9l0,0
					c0.1-9-0.9-18.2,4.2-26.4c8.2-1.3,13.2-8.3,20.7-10.6c0.7-1.7-0.2-4,2.5-4.9c1.7-0.2,2.4,3.2,5.1,2.1c1.2-1.3,2.3-2.6-0.2-4
					c0.2-2,1.8-2.9,3-4.3C235.2,189.7,236.9,182.9,234.6,175z M199.7,129.8c0,0.4,0,0.7,0.1,1.1
					C199.6,130.5,199.6,130.1,199.7,129.8z M199.6,71.8l0.2,0.4l-0.5,0L199.6,71.8z M98.1,141.8l0.2-0.4l0.3,0.4L98.1,141.8z
					 M141.4,96.1c-1,0.6-1.4,0.1-1.7-1C140.9,94.3,141.4,94.7,141.4,96.1z M140.8,141.5l-0.3,0.1l0-0.4L140.8,141.5z M133.8,77.8
					l0.1,0.5l-0.4-0.1L133.8,77.8z M116,110.2c0,1.6-0.6,1.7-1.4,1.3C114.1,110.4,114.8,110.2,116,110.2z M108.1,137
					c-2,0.8-1.4-1.1-1.9-1.8l0,0C107,135.5,108.9,134.8,108.1,137z M116.1,127.9c-3.3-3.3-3-5.6,0.6-7.7
					C118.9,122.8,118.4,125.1,116.1,127.9z M123.7,100.5l0.1-0.5l0.3,0.3L123.7,100.5z M147.6,212.2c-0.1,0-0.1,0.1-0.2,0.1
					C147,210.8,147.8,211.7,147.6,212.2z M150.7,178.3C150.7,178.3,150.7,178.3,150.7,178.3c-2.5-1.2-3.9,1.5-6,1.7
					c-0.4,0-0.8,0.1-1.2,0.1c-5.6-0.8-10.5,4.4-16.3,2.1c0-3.8,3.3-5,5-7.3l0,0.1c5.3-9.4,11.2-18.4,18.2-28
					c2.9,5.9,1.5,11.4,1.5,16.7c0,1.3-1.1,2.7,0.5,3.7C151.3,170.8,153.9,175,150.7,178.3z M152.5,167.2c1.4-2.1,2.4-1.2,3.6,0.4
					C154.6,168.9,153.6,167.1,152.5,167.2z M160.2,235.8l0.2-0.4l0.2,0.5L160.2,235.8z M163.7,103.4l0.2-0.4l0.2,0.3L163.7,103.4z
					 M164.8,276.7c-0.1-0.2-0.1-0.3-0.2-0.5c0.1-0.1,0.3-0.1,0.4-0.2C164.9,276.3,164.8,276.5,164.8,276.7z M168.2,156.2l0.3-0.4
					l0.2,0.4L168.2,156.2z M173.8,102.3l0.1,0.3l-0.3,0L173.8,102.3z M171.8,164.6c-0.6-1.8-1.6-3.6,0.9-4.9
					c0.5,0.8,0.9,1.6,1.3,2.2C173.8,163.6,172.7,163.9,171.8,164.6z M174.2,157.3c-1.1-2.1-1.6-2.9-2-3.6c0,0,0,0,0,0
					C173.5,153,174.4,153.2,174.2,157.3z M180.1,105.1c0.3,0.4,0.7,0.7,1,1.1c-0.3,0.2-0.5,0.4-0.8,0.6c-0.3-0.3-0.7-0.7-1-1
					C179.6,105.6,179.9,105.3,180.1,105.1z M180.1,158.7c0,0.1-0.1,0.2-0.1,0.4C180,158.9,180.1,158.8,180.1,158.7z M177.6,159.3
					c0.2-0.3,0.3-0.5,0.5-0.8c0.2,0.2,0.4,0.5,0.6,0.7C178.3,159.3,177.9,159.3,177.6,159.3z M179.9,159.2c-0.3,0.8-0.7,1.6-1,2.4
					c-0.1-0.8-0.1-1.5-0.2-2.3C179.1,159.2,179.5,159.2,179.9,159.2z M182.9,166.5c-2.2,0.9-2.6-0.7-4.2-2.1
					C182.9,162.6,183.7,163.6,182.9,166.5z M182.7,99.3c1.2-0.7,1.6-0.3,1.6,1C183.3,100.9,182.9,100.4,182.7,99.3z M185.7,279.9
					c-0.2-0.3-0.3-0.6-0.5-0.8C186.1,278.9,186,279.3,185.7,279.9z M185.3,285.7c0-0.4-0.1-0.7-0.1-1.1c0.4,0.3,0.8,0.7,1.2,1
					C186,285.6,185.7,285.7,185.3,285.7z M187.3,160c1.4,0.2,1,1.4,1.4,2.1C187.9,161.6,186.8,161.4,187.3,160z M187.9,105.1
					c0-1.6,0.4-2,1.4-1.9C189.8,104.9,188.7,104.4,187.9,105.1z M195.1,157.2c0.4,0.2,0.7,0.3,1,0.5
					C195.1,158.6,195,158.1,195.1,157.2z"/>
			</g>
		</g>
		<path class="st2" d="M146.9,288.1C146.9,288.1,146.9,288.1,146.9,288.1L146.9,288.1C146.8,288.1,146.8,288.1,146.9,288.1
			C146.8,288.1,146.8,288.1,146.9,288.1L146.9,288.1c0,0.4,0,0.9,0,1.3l0,0C146.9,289,146.9,288.6,146.9,288.1
			C146.9,288.1,146.9,288.1,146.9,288.1z"/>
		<path class="st2" d="M148,286.9c-0.4,0.4-0.7,0.8-1.1,1.2c0.4,0,0.8-0.1,1.1-0.1C148,287.6,148,287.3,148,286.9z"/>
		<g>
			<path class="st2" d="M211.5,167.6C211.5,167.6,211.5,167.6,211.5,167.6C211.5,167.6,211.5,167.6,211.5,167.6L211.5,167.6z"/>
		</g>
		<path class="st2" d="M181.4,321.9c0.8-1.9-0.5-2.5-1.8-3.1C179.9,320,179.3,321.7,181.4,321.9z"/>
		<path class="st2" d="M179.6,318.8C179.6,318.8,179.6,318.8,179.6,318.8L179.6,318.8L179.6,318.8c-0.2-0.3-0.3-0.5-0.3-0.5
			C179.3,318.3,179.4,318.6,179.6,318.8L179.6,318.8C179.6,318.8,179.6,318.8,179.6,318.8z"/>
		<path class="st2" d="M371.5,274.3c0.1,1.9-2.1,3.3-1.2,5.3c1.5,0.3,2.5-0.1,3.4-1.1C373.9,276.6,373.4,275.1,371.5,274.3z"/>
		<g>
			<g>
				<path class="st2" d="M555.4,215.3c-1.9,0.5-3.6,0.8-4.8,2.7c-1.5,3.7-1,7.7-1.3,12.1c0.8,1.3,2.9,1.9,3.2,3.8
					c-1.9,0.6-3.9,1-5.7,0.4c-1.7-1.1,0-3.5-1.9-4.3c-1.2-0.2-0.6,2.1-2.3,1.4c-0.7-0.3,0.2-2.2-1.5-1.9c-0.9,0.6-1.5,1.3-1.3,2.5
					c0.8,1.8,2.9,2.1,4.2,3.5c0.3,1.4,0.6,3,0.9,4.9c1.4,0.8,3.2,1.5,4,3.2c-2.5,1.1-4.6,0-6.7-1.2c0-1.6,1.6-2.7,0.5-4.2
					c-1.3,0-1.4,2-3.3,1.6c-1.1-0.7-2.6-1.6-4-2.6c-4,3.1-8.6,3.1-13.2,2.2c-0.8,0.9-1.4,1.7-2.2,2.8c-1.2-1-2.2-2.4-4.7-1.9
					c-2.5,5.6-11.2,2.6-13.8,9.2c-0.6-0.6-1.1-1.1-1.6-1.7c-0.1-0.1-0.4,0.1-0.1,0c-6.3,9.1-16.5,10.2-25.3,13.6
					c-0.2,1.2-0.4,2.4-0.6,3.6c-1.1-0.7-1.3-2.4-3-1.9c-2.7,1-1.9,4.1-3.6,6c-1.6-3.1-4-4.2-6.3-1.9c-2.1,2.1-4.3,2.7-6.9,3
					c-3.5,0.4-6.2,2.2-8.5,4.8c-0.4,0.4-1.1,0.5-1.4,0.6c-2.2,0-3.4-1.9-6.1-1.4c-6.4,5.1-12.1-1.9-18.6-2.4c-1.1-1.7-0.4-4.1-2-5.3
					c-2.8-1.2-5.6-1.1-7.9-1.1c-2.3-1.9-1.2-4.1-1.6-6c0.7,1,1.4,1.9,2.1,2.8c1.2,0.6,2.4,0.6,3.6,0.4c-1.2-3.4,2.4-6.3,1.1-9.8
					c0,0,0,0,0.1,0c0,0,0-0.1,0-0.1c0,0,0,0-0.1,0c0,0,0,0,0,0.1c-1.9,0-2.8-1.8-4.1-2.2c-2.2-0.5-3.2,0.8-4.5,1.6
					c-0.3,1.3-0.6,2.6-0.9,3.9c-0.6,0-1.1,0.1-1.8,0.1c-0.5-2.4,0.9-3.4,2.6-4.1c0,0,0,0.1,0,0.1c0,0,0,0,0.1,0c0,0,0-0.1,0-0.1
					c0,0-0.1,0-0.1,0c-0.1-1.7-0.3-3.4-0.4-5.1c4,0.3,7.6,1.4,9,5.7c0.8,0,1.6-0.1,2.4-0.1c1.5,3.4-2.6,5.5-1.9,8.7
					c3.1,2.1,4.8,5.2,5.9,8.4c1.6,0.6,2.8,0.7,3.8-0.5c0.4-2.4-2.7-4.1-1.2-7.3c1.3-1.6,4.5-2.2,5.2-5.2c-1.1-0.9-2.7-0.9-3.6-2.4
					c3.2-2.2,4-0.6,4.2,2.4c5.4-6.5,8.6-14.1,12.2-22.1c0.3-0.1,1.4,1.1,2.2-0.4c0.2-1.6-0.4-3.5,1.2-5.2c4.4-0.6,6.4-3.9,7.8-7.5
					c8.9-8.9,17.1-18.5,28.2-26.4c4.7,0.4,5-6.7,9.5-8.6c1,1.5-1.8,2.8,0,4.7c1.6-5.1,8.5-2.6,9.9-8c1.3,1.5,2.5,1.5,3.6,0.8
					c7.2-5.2,15.5-8.1,23.7-11.4c5.8-2.3,11.9-4.4,17.8-5.4c6.9-1.2,12.6-2.9,16.2-8.5c0.1-17.8-9.6-31.4-16.8-45.7
					c-6.2-1.5-10.9,1.1-15.6,4.1c-4.8-1.8-8.5,0.6-11.8,3.7c-7.6-3.2-12.1,3.7-18.2,5.4c-6.3,1.8-12.3,4.9-17.6,7.1
					c-1.8,1.4-0.7,3.3-2.3,4.1c-8.2-0.7-21.2,10.2-25.3,15.4c-1.8-1.8-3.9-2.6-5.3,0.5c0.2,0.9,1.9,1.1,1.2,2.4
					c-1.3,1.3-3.3-0.6-4.3,0.8c-0.8,1.3,0.2,2.7-0.9,3.7c-1.4,1.2-2.5-1.6-4.2,0.1c0.7,4.6-5.6,4.1-6.4,8c-0.6-0.7-0.8-1.8-2.1-1.6
					c-0.9,1.8-1.8,3.6-3.2,6.6c-0.2,0.7-2.9-0.9-3.5,1.5c-0.5,0.7,1,2.1-0.4,3c-6,2.2-9,6.6-9.7,12.7c-2.7,1.3-4.6,3.3-6.3,5.1
					c-1.2,4.1-3.5,7.6-2.1,11.7c-4.2,1.7-6.4,4-7.5,8.6c-0.9,3.4-1.3,7.2-2.4,10.7c-0.8,2.6-4.1,6.1-0.7,9.3
					c-0.3,0.2-0.5,0.5-0.8,0.7c-1.5-3.8-4-6.9-8.1-9.4c-1.9,0.5-3.6,0.8-4.8,2.7c-1.5,3.7-1,7.7-1.3,12.1c0.8,1.3,2.9,1.9,3.2,3.8
					c-1.9,0.6-3.9,1-5.7,0.4c-1.7-1.1,0-3.5-1.9-4.3c-1.2-0.2-0.6,2.1-2.3,1.4c-0.7-0.3,0.2-2.2-1.5-1.9c-0.9,0.6-1.5,1.3-1.3,2.5
					c0.8,1.8,2.9,2.1,4.2,3.5c0.3,1.4,0.6,3,0.9,4.9c1.4,0.8,3.2,1.5,4,3.2c-2.5,1.1-4.6,0-6.7-1.2c0-1.6,1.6-2.7,0.6-4.2
					c-1.3,0-1.4,2-3.3,1.6c-1.1-0.7-2.6-1.6-4-2.6c-4,3.1-8.6,3.1-13.2,2.2c-0.8,0.9-1.4,1.7-2.2,2.8c-1.2-1-2.2-2.4-4.7-1.9
					c-2.5,5.6-11.2,2.6-13.8,9.2c-0.6-0.6-1.1-1.1-1.6-1.7c-0.1-0.1-0.4,0.1-0.1,0c-6.3,9.1-16.5,10.2-25.3,13.6
					c-0.2,1.2-0.4,2.4-0.6,3.6c-1.1-0.7-1.3-2.4-3-1.9c-2.7,1-1.9,4.1-3.6,6c-1.6-3.1-4-4.2-6.3-1.9c-2.1,2.1-4.3,2.7-6.9,3
					c-3.5,0.4-6.2,2.2-8.5,4.8c-0.4,0.4-1.1,0.5-1.4,0.6c-2.2,0-3.4-1.9-6.1-1.4c-6.4,5.1-12.1-1.9-18.6-2.4c-1.1-1.7-0.4-4.1-2-5.3
					c-2.8-1.2-5.6-1.1-7.9-1.1c-2.3-1.9-1.2-4.1-1.6-6c0.7,1,1.4,1.9,2.1,2.8c1.2,0.6,2.4,0.6,3.6,0.4c-1.2-3.4,2.4-6.3,1.1-9.8
					c0,0,0,0,0.1,0c0,0,0-0.1,0-0.1c0,0,0,0-0.1,0c0,0,0,0,0,0.1c-1.9,0-2.8-1.8-4.1-2.2c-2.2-0.5-3.2,0.8-4.5,1.6
					c-0.3,1.3-0.6,2.6-0.9,3.9c-0.6,0-1.1,0.1-1.8,0.1c-0.5-2.4,0.9-3.4,2.6-4.1c0,0,0,0.1,0,0.1c0,0,0,0,0.1,0c0,0,0-0.1,0-0.1
					c0,0-0.1,0-0.1,0c-0.1-1.7-0.3-3.4-0.4-5.1c4,0.3,7.6,1.4,9,5.7c0.8,0,1.6-0.1,2.4-0.1c1.5,3.4-2.6,5.5-1.9,8.7
					c3.1,2.1,4.8,5.2,5.9,8.4c1.6,0.6,2.8,0.7,3.8-0.5c0.4-2.4-2.7-4.1-1.2-7.3c1.3-1.6,4.5-2.2,5.2-5.2c-1.1-0.9-2.7-0.9-3.6-2.4
					c3.2-2.2,4-0.6,4.2,2.4c5.4-6.5,8.6-14.1,12.2-22.1c0.3-0.1,1.4,1.1,2.2-0.4c0.2-1.6-0.4-3.5,1.2-5.2c4.4-0.6,6.4-3.9,7.8-7.5
					c8.9-8.9,17.1-18.5,28.2-26.4c4.7,0.4,5-6.7,9.5-8.6c1,1.5-1.8,2.8,0,4.7c1.6-5.1,8.5-2.6,9.9-8c1.3,1.5,2.5,1.5,3.6,0.8
					c7.2-5.2,15.5-8.1,23.7-11.4c5.8-2.3,11.9-4.4,17.8-5.4c6.9-1.2,12.6-2.9,16.2-8.5c0.1-17.8-9.6-31.4-16.8-45.7
					c-6.2-1.5-10.9,1.1-15.6,4.1c-4.8-1.8-8.5,0.6-11.8,3.7c-7.6-3.2-12.1,3.7-18.2,5.4c-6.3,1.8-12.3,4.9-17.6,7.1
					c-1.8,1.4-0.7,3.3-2.3,4.1c-8.2-0.7-21.2,10.2-25.3,15.4c-1.8-1.8-3.9-2.6-5.3,0.5c0.2,0.9,1.9,1.1,1.2,2.4
					c-1.3,1.3-3.3-0.6-4.3,0.8c-0.8,1.3,0.2,2.7-0.9,3.7c-1.4,1.2-2.5-1.6-4.2,0.1c0.7,4.6-5.6,4.1-6.4,8c-0.6-0.7-0.8-1.8-2.1-1.6
					c-0.9,1.8-1.8,3.6-3.2,6.6c-0.2,0.7-2.9-0.9-3.5,1.5c-0.5,0.7,1,2.1-0.4,3c-6,2.2-9,6.6-9.7,12.7c-2.7,1.3-4.6,3.3-6.3,5.1
					c-1.2,4.1-3.5,7.6-2.1,11.7c-4.2,1.7-6.4,4-7.5,8.6c-0.9,3.4-1.3,7.2-2.4,10.7c-0.8,2.6-4.1,6.1-0.7,9.3c-2.1,1.8-3.1,4-2.8,7.1
					c1.1,1.2,2.4,2.4,3.6,3.7c-1.9,1.3-1.1,4.9-4.5,4.5c0.7,2.6,1.2,4.7,1.8,6.8c-1.6,1.7-1,3.8-1.4,5.7c1.6,0.1,2.5-0.3,2.8-1.4
					c2.4,3.3,0.5,6.6,0,9.7c1.7,4.1,4.5,7.3,6.7,10.9c1.4-0.9,2.5-2.2,3.8-0.4c0.7,1.7-1.5,2.9-0.5,5.2c1.4,1.5,3.7,3.3,3.1,6.2
					c1.4,0.8,1.8-1.5,3.1-0.2c0.5,3.4,2.9,6.2,4,9.6c3.6,0,6.6,1.9,9.8,1.3c1.3,0.9,0.8,3,3.4,3.2c2.4-0.3,5.1,0.6,6.9,2.9
					c5.6,0.8,10.2-1.3,14.9-3.3c1.3,0.9,1.1,4,3.9,2.5c1.6-1.7-1.7-3.2-0.7-4.3c3-2.4,3.2,1.3,4.8,1.1c4.7,0,7.5-4,10.9-5.5
					c2,0.5,1.2,3.1,3.4,2.8c0.5-4.7,3.5-3.3,5.9-2.4c1.5-0.7,0.1-2.1,1.6-3.1c4.8,0.8,7.3-7.7,13.6-4.2c0.8-1.6,1.5-3.3,3.6-4.5
					c2.4-0.4,5.2-0.8,8-1.2c4.3-2.7,6.6-7.2,9.8-10.8c0.1-1.2-1.9-0.8-1.7-2.2c0.9-0.9,2.7-0.7,3.4-2.1c1.3,0.7,2.7,0.5,4.1,0.1
					c-0.1-1.3-0.6-2.6,0-3.9c1.2-0.6,2.1,0.1,3,0.8c5.2,0.9,6.1-3.3,7.9-6.6c2.4,0.5,4-1.7,6.2-1.9l-0.1,0.1c0,0,0.1,0,0.1,0
					c0,0,0-0.1,0-0.1c4.3-3.3,9.1-5.7,14.8-6.7c0.5-1.6-1.9-4.3,2.5-4.5c-1.8-1.2-2.7-1.9-3.7-2.5c-1.5,0.6-3,0.5-4.3-0.7
					c-0.2-1.4,1.5-1.6,1.6-2.7c0.9-1.2,1.7-2.3,2.6-3.5c0,2.3,0,4.5,0.1,6.8c2.7-1.2,4.4-3.4,5.8-5.9c2.4,0.9,1,2.8,1.1,4.9
					c1-0.9,1.8-1.8,2.5-2.7c0.1,0.4,0.2,0.8,0.3,1.2c-1.6,1.7-1,3.8-1.4,5.7c1.6,0.1,2.5-0.3,2.8-1.4c2.4,3.3,0.5,6.6,0,9.7
					c1.7,4.1,4.5,7.3,6.7,10.9c1.4-0.9,2.5-2.2,3.8-0.4c0.7,1.7-1.5,2.9-0.5,5.2c1.4,1.5,3.7,3.3,3.1,6.2c1.4,0.8,1.8-1.5,3.1-0.2
					c0.5,3.4,2.9,6.2,4,9.6c3.6,0,6.6,1.9,9.8,1.3c1.3,0.9,0.8,3,3.4,3.2c2.4-0.3,5.1,0.6,6.9,2.9c5.6,0.8,10.2-1.3,14.9-3.3
					c1.3,0.9,1.1,4,3.9,2.5c1.6-1.7-1.7-3.2-0.7-4.3c3-2.4,3.2,1.3,4.8,1.1c4.7,0,7.5-4,10.9-5.5c2,0.5,1.2,3.1,3.4,2.8
					c0.5-4.7,3.5-3.3,5.9-2.4c1.5-0.7,0.1-2.1,1.6-3.1c4.8,0.8,7.3-7.7,13.6-4.2c0.8-1.6,1.5-3.3,3.6-4.5c2.4-0.4,5.2-0.8,8-1.2
					c4.3-2.7,6.6-7.2,9.8-10.8c0.1-1.2-1.9-0.8-1.7-2.2c0.9-0.9,2.7-0.7,3.4-2.1c1.3,0.7,2.7,0.5,4.1,0.1c-0.1-1.3-0.6-2.6,0-3.9
					c1.2-0.6,2.1,0.1,3,0.8c5.2,0.9,6.1-3.3,7.9-6.6c2.4,0.5,4-1.7,6.2-1.9l-0.1,0.1c0,0,0.1,0,0.1,0c0,0,0-0.1,0-0.1
					c4.3-3.3,9.1-5.7,14.8-6.7c0.5-1.6-1.9-4.3,2.5-4.5c-1.8-1.2-2.7-1.9-3.7-2.5c-1.5,0.6-3,0.5-4.3-0.7c-0.2-1.4,1.5-1.6,1.6-2.7
					c0.9-1.2,1.7-2.3,2.6-3.5c0,2.3,0,4.5,0.1,6.8c2.7-1.2,4.4-3.4,5.8-5.9c2.4,0.9,1,2.8,1.1,4.9c3.8-3.2,5.2-7.1,6.2-10.2
					C565.3,228,563.5,220.2,555.4,215.3z M504.8,138c-1.7,2.4-3.7,3-6,2.6C500.5,139.4,501.3,136,504.8,138z M467.4,165
					c0.7,1.7,2.1,2.9,4,5.2C467.8,169.2,466.3,168.1,467.4,165z M452,169.3c1.2,1,1.4,1.9,1.2,3.3
					C451.8,171.9,450.6,171.5,452,169.3z M453.1,203c-0.2-2.5-0.4-5-0.6-8.7C455.4,197.8,453.2,200.4,453.1,203z M451,159.7
					c1.6-0.3,1.9,0.9,2.7,2.6C450.8,162.6,450.5,161.6,451,159.7z M445.2,205.3c1.3,0.6,1.3,1.7,1.2,3.4
					C443.8,207.8,444.2,206.7,445.2,205.3z M441.6,228c-1.5,0.6-2-0.2-2.4-2C440.6,226.2,441.4,226.6,441.6,228z M434.6,168.5
					c0,1.7,0.3,3.5-1.2,5.1C432,171.3,432.9,169.8,434.6,168.5z M432.6,178.5c-0.7,4.2,2.4,4.4,5.1,5.7c-3.1,2.2-5,1-7.2-0.6
					C430.6,181.7,430.9,180.4,432.6,178.5z M428.9,200.8c-0.7,2.5-2.3,2.4-4.4,2.2C425.9,201.7,427.1,201,428.9,200.8z M421.7,243.8
					c-0.4-2.3-2.1-4.8,0.9-6.7C423.9,241.5,423.9,241.6,421.7,243.8z M423.8,198.5c-0.7,1.2-1.4,2.4-2.1,3.6
					C419.7,201.4,420,200.8,423.8,198.5z M421.7,243.9c0.3,1.7,0.6,3.4,0.9,5.2c-1.1,2.1-2.9,3.2-5.2,3.6c-0.6-1.6-1.3-3.2-2.1-5.3
					C418.5,247.9,419.6,245.1,421.7,243.9z M419.4,206.1c-0.2,2.3-1.9,4.5,0.4,6.7c-2.7,0-2.6-2.7-4.7-2.6
					C416,208.3,415.4,205.2,419.4,206.1z M415.5,239.4c1.7,1.1,3.6,2.3,0.5,4.5c-1.5-1.3-1.9-2.7-2.3-4
					C414.4,239.1,415,239.1,415.5,239.4z M411.1,229.2c0.5,2.6,1.4,4.2-0.6,5.9C408.6,233.1,409.8,231.6,411.1,229.2z M409,238.2
					c1.7,1.1,1.6,3.1,2.8,5.5c-2.2-1.2-3.7-2-5.3-2.9C407.6,239.7,408.2,239,409,238.2z M337.2,149.9c-1.7,2.4-3.7,3-6,2.6
					C332.9,151.3,333.7,148,337.2,149.9z M299.8,176.9c0.7,1.7,2.1,2.9,4,5.2C300.2,181.2,298.7,180,299.8,176.9z M284.4,181.3
					c1.2,1,1.4,1.9,1.2,3.3C284.2,183.8,283,183.4,284.4,181.3z M285.5,214.9c-0.2-2.5-0.4-5-0.6-8.7
					C287.9,209.7,285.6,212.4,285.5,214.9z M283.4,171.6c1.6-0.3,1.9,0.9,2.7,2.6C283.2,174.6,282.9,173.5,283.4,171.6z
					 M277.6,217.2c1.3,0.6,1.3,1.7,1.2,3.4C276.3,219.8,276.6,218.6,277.6,217.2z M274,239.9c-1.5,0.6-2-0.2-2.4-2
					C273,238.1,273.8,238.5,274,239.9z M267,180.5c0,1.7,0.3,3.5-1.2,5.1C264.4,183.3,265.3,181.8,267,180.5z M265,190.5
					c-0.7,4.2,2.4,4.4,5.1,5.7c-3.1,2.2-5,1-7.2-0.6C263,193.7,263.4,192.4,265,190.5z M261.3,212.8c-0.7,2.5-2.3,2.4-4.4,2.2
					C258.3,213.7,259.5,212.9,261.3,212.8z M254.2,255.7c-0.4-2.3-2.1-4.8,0.9-6.7C256.3,253.5,256.4,253.5,254.2,255.7z
					 M256.2,210.5c-0.7,1.2-1.4,2.4-2.1,3.6C252.1,213.3,252.4,212.7,256.2,210.5z M254.1,255.9c0.3,1.7,0.6,3.4,0.9,5.2
					c-1.1,2.1-2.9,3.2-5.2,3.6c-0.7-1.6-1.3-3.2-2.1-5.3C250.9,259.9,252,257,254.1,255.9z M251.8,218c-0.2,2.3-1.9,4.5,0.4,6.7
					c-2.7,0-2.6-2.7-4.7-2.6C248.5,220.2,247.8,217.2,251.8,218z M248,251.4c1.7,1.1,3.6,2.3,0.5,4.5c-1.5-1.3-1.9-2.7-2.3-4
					C246.9,251.1,247.4,251,248,251.4z M243.5,241.1c0.5,2.6,1.4,4.2-0.6,5.9C241,245,242.2,243.6,243.5,241.1z M241.4,250.1
					c1.7,1.1,1.6,3.1,2.8,5.5c-2.2-1.2-3.7-2-5.3-2.9C240,251.6,240.7,250.9,241.4,250.1z M229.2,247.8c1.5-1.2,2-4,5-3.2
					C232.9,248.8,232.1,249.3,229.2,247.8z M232,252.1c1.1-0.7,2-0.8,3.1-0.2c-0.1,1.1-0.3,2.2-0.5,3.3c-0.9,0.1-1.7,0.1-2.6,0.2
					C232,254.2,232,253.1,232,252.1z M233.4,261.9c0.6-2.2,1.8-4.2,1.1-6.3c1.4,0.6,2.4,1.5,3.3,2.6
					C236.2,259,236.2,261.5,233.4,261.9z M259.3,298.9c0.7-1,1.6-1.4,3.1-1C261.4,299.2,260.4,299.1,259.3,298.9z M267.3,315.4
					c1.6,1.9,2.6,3.1,3.7,4.3C268.3,319.9,267.4,318.5,267.3,315.4z M280.7,313.1c1.8,0,2.3,0.9,2.5,2.4
					C281.8,315.6,281,314.9,280.7,313.1z M293.2,289.6c-2.5-0.2-3.7-1.2-2-4.1c1.1,1.4,1.9,2.4,2.7,3.4
					C293.6,289.1,293.4,289.6,293.2,289.6z M307.9,305.1c1.7-0.7,2.6-0.8,3.6,0.2C310.4,306.4,309.4,305.5,307.9,305.1z
					 M312.6,275.3c1.3-1.1,2.6-2.1,4-3.3c0.6,1.5,1.2,2.9,1.7,4.1C315.9,279.4,314.5,276.6,312.6,275.3z M321.3,281.9
					c-0.5-0.3-1-0.6-1.6-0.9c1.4-2.7,1.8-5.6,1.7-8.5c1.6,0.1,2.4,1,3.6,2C323.8,277,322.5,279.5,321.3,281.9z M330.1,281.1
					c-1.2-0.9-0.8-2-0.5-3.5c1.9,0.5,2.6,1.5,3.3,2.4C332.3,281.2,331.3,281.4,330.1,281.1z M331.7,273.6c0.4-1.7,1.3-2.2,2.8-2.2
					C334.2,273.4,333,273.3,331.7,273.6z M338.9,267.6c-1.4-0.6-1.1-1.9-1.4-3.5c2,0,2.3,1.5,3.3,1.8
					C340.6,267.3,339.5,267.1,338.9,267.6z M347.3,281.7c2.6,0.3,2.6,2.2,2.9,3.8C348.4,285,347.1,284,347.3,281.7z M341.7,276.9
					c3.2-1.7,5.1,0.6,8.7,0.1C346.5,280.2,344.4,278.7,341.7,276.9z M351.4,260.1c-1-0.2-1.7-0.9-1.4-1.7c0.7-2.1,1.9-1.6,3.1-0.4
					C353.2,259.3,352.4,259.8,351.4,260.1z M364.3,270.1c-2-1.7-0.6-3.4-0.8-4.9C364.7,266.5,364.9,268,364.3,270.1z M366,260.4
					c-1.1,1.4-2.4,2.7-2.6,4.6c-5.2-1.3-6.1-2.5-5-6.6c0.9-0.5,1.5-0.1,2.1,0.5c0.4,0.4,0.8,0.9,1.4,1.4c1.8-1.3,2.9-3.6,5.5-3.2
					c0.7,1.5,1.4,3.1,2.1,4.7C367.7,263,367.4,260.4,366,260.4z M387.7,251.3c2.2,0.2,2.1,2.2,3,3.2
					C387.5,255.6,387,254.3,387.7,251.3z M396.8,235.8c1.5-1.2,2-4,5-3.2C400.4,236.9,399.6,237.4,396.8,235.8z M399.5,240.1
					c1.1-0.7,2-0.8,3.1-0.2c-0.2,1.1-0.3,2.2-0.5,3.3c-0.9,0.1-1.7,0.1-2.6,0.2C399.6,242.3,399.6,241.1,399.5,240.1z M401,249.9
					c0.6-2.2,1.8-4.2,1.1-6.3c1.4,0.6,2.4,1.5,3.3,2.6C403.7,247,403.7,249.5,401,249.9z M426.9,286.9c0.7-1,1.6-1.4,3.1-1
					C428.9,287.2,428,287.1,426.9,286.9z M434.9,303.4c1.6,1.9,2.6,3.1,3.7,4.3C435.9,307.9,435,306.6,434.9,303.4z M448.3,301.2
					c1.8,0,2.3,0.9,2.5,2.4C449.4,303.6,448.6,302.9,448.3,301.2z M460.7,277.6c-2.5-0.2-3.7-1.2-2-4.1c1.1,1.4,1.9,2.4,2.7,3.4
					C461.2,277.2,461,277.6,460.7,277.6z M475.4,293.1c1.7-0.7,2.6-0.8,3.6,0.2C478,294.4,477,293.6,475.4,293.1z M480.2,263.4
					c1.3-1.1,2.6-2.1,4-3.3c0.6,1.5,1.2,2.9,1.7,4.1C483.4,267.4,482.1,264.6,480.2,263.4z M488.9,270c-0.5-0.3-1-0.6-1.6-0.9
					c1.4-2.7,1.8-5.6,1.7-8.5c1.6,0.1,2.4,1,3.6,2C491.3,265.1,490.1,267.5,488.9,270z M497.7,269.1c-1.2-0.9-0.8-2-0.5-3.5
					c1.9,0.5,2.6,1.5,3.3,2.4C499.9,269.3,498.9,269.4,497.7,269.1z M499.2,261.6c0.4-1.7,1.3-2.2,2.8-2.2
					C501.8,261.4,500.6,261.3,499.2,261.6z M506.5,255.7c-1.4-0.6-1.1-1.9-1.4-3.5c2,0,2.3,1.5,3.3,1.8
					C508.1,255.4,507.1,255.2,506.5,255.7z M514.9,269.7c2.6,0.3,2.6,2.2,2.9,3.8C515.9,273,514.7,272.1,514.9,269.7z M509.3,265
					c3.2-1.7,5.1,0.6,8.7,0.1C514.1,268.3,512,266.8,509.3,265z M519,248.2c-1-0.2-1.7-0.9-1.4-1.7c0.7-2.1,1.9-1.6,3.1-0.4
					C520.7,247.3,520,247.9,519,248.2z M531.9,258.1c-2-1.7-0.6-3.4-0.8-4.9C532.3,254.6,532.5,256.1,531.9,258.1z M533.5,248.5
					c-1.1,1.4-2.4,2.7-2.6,4.6c-5.2-1.3-6.1-2.5-5-6.6c0.9-0.5,1.5-0.1,2.1,0.5c0.4,0.4,0.9,0.9,1.4,1.4c1.8-1.3,2.9-3.6,5.5-3.2
					c0.7,1.5,1.4,3.1,2.1,4.7C535.3,251,535,248.5,533.5,248.5z M555.3,239.3c2.2,0.2,2.1,2.2,3,3.2
					C555.1,243.7,554.5,242.3,555.3,239.3z"/>
			</g>
		</g>
		<path class="st2" d="M539,262.4c0.1,1.9-2.1,3.3-1.2,5.3c1.5,0.3,2.5-0.1,3.4-1.1C541.5,264.7,540.9,263.2,539,262.4z"/>
		<g>
			<g>
				<path class="st2" d="M671.2,72.6c0.9,1.2-0.3,2.6,0.9,3.5c1.5,1.3,3.4,0,5.4,0.5c-1.1,1.6-3.1,2.6-2.3,5c1.4,1.8,4,2.2,6.3,4.1
					c0.4-3.4,3.9-2.2,5.6-4.8c0.2-2.6,2.2-5.7-0.8-9.2c4.5-0.5,6.3-3.4,8.7-6.3c-3.5-0.5-1.9-3.8-3.7-5.3c-1.4-0.1-2.8-0.2-4.2-0.2
					c-2-0.7-2-0.7-0.6-4c1.4,0.8,1.1,1.8,0.6,3c2.8,0.1,5.2-0.6,6.8-3.8c-1.4-3.1-0.2-6.7,0.2-10.5c-2.6-2.5-2.5-5.9-2.6-9.2
					c3.1-0.4,6.8,0.1,7.2-4.9c-2.7-6.6-12.2-7.3-13.6-14.9c-1.5-0.1-1,1.3-1.8,1.6c-1.6-0.2-2.3-4-5-1.2c1.2,2,4.4,3.2,3,6.4
					c-5.6,1.5-8.9,6.1-12.8,9.3c-2.9,1.5-5.1-1.8-7.9-0.5c1.6,2,2.2,4.1,1.8,6.5c-1.5,0.9-2.9,1.7-4.4,2.6c0.6,6.8-6,11-6.3,18.5
					C658,63.1,660.4,73.5,671.2,72.6z M684.7,23.7c1.3,1.7,2.6,3.4,3.6,4.7c1.1,2.4-0.1,3.9-1.2,5.5c1.1,1.3,3.1,0.1,4.1,1.4
					c-1.5,0.4-2.9,1.3-4.8,1c-1.2-1-2.6-2.1-3.9-3.1C681.5,29.7,682,26.6,684.7,23.7z M683.6,42.2c-0.6,1.3-1.8,1.3-3,1.1
					C681.5,40.6,681.5,40.6,683.6,42.2z M681.8,46.9c3.8,2.8-2.3,5.4,0.8,8.1C677.8,52.5,682.8,49.5,681.8,46.9z M680.3,57.9
					c1.8,0.8,2,1.9,1.9,3.1C679.4,60.8,679.4,60.8,680.3,57.9z M659.3,58.1c-1.1-2,0.4-2.5,1.3-4.4C661.6,56.5,661,57.4,659.3,58.1z
					 M662.8,46.1c-0.9,3.7-1.7,5.9-5.2,3.5C658.4,47,660.7,47.6,662.8,46.1z"/>
			</g>
		</g>
		<path class="st2" d="M603.2,295.2c2.9-0.3,5.4,1,7.8,3.5C610.4,294,610.3,294,603.2,295.2z"/>
		<path class="st2" d="M670.2,18.6c0-2.1,2.8-5-2-6.5C669.2,14.7,667.8,17,670.2,18.6z"/>
		<path class="st2" d="M586.2,250.4c-0.9-1.8-2.1-2.7-4.1-2.3c-0.9,1.2-0.6,2.3-0.4,4C583.6,251.9,585.3,252.3,586.2,250.4z"/>
		<g>
			<g>
				<path class="st2" d="M808.4,246c3-0.2,4.4,2.9,7.1,3c0-2.3-3-2.6-2.2-5.1c2.1,1.1,4.1,2.6,5.7-1c-0.1-1.3-1.4-3,0-4.7
					c0.9-0.1,0.8,0.8,2.3,2.3c-1.6-4.6,2.5-4.1,3.5-5.9c-0.3-4.3-1.7-8.5,4.4-9.6c1.3-0.2,2.5-2.5,2.1-4.1c-1.4-4.9,1.9-8,4.1-11.3
					c0-10.6,0.3-12.1,4.7-18.7c-1.5-2.4,0.1-5.4-1-8.2c0,0,0,0,0,0c-0.2-4,1.5-7.5,2.8-10.7c-1-4-1.5-8.1-2.2-12
					c0.7-1.2,0.5-2.7-0.9-4.8c-0.2-0.3-0.4-0.6-0.6-1c-0.4-0.9-0.8-1.9-1.2-2.7c-0.5-1.4-0.7-2.9-0.6-4.5c-1.5-1.4-2.8-3.1-4.2-4.6
					c0-0.7-0.1-1.4-0.4-2c-6.1-4.5-11.1-9.9-14-15.6c-0.8-0.6-1.6-1.3-2.4-1.9c0-2.5-0.3-5-1.8-7.3c-0.4,1.8-1.1,3.1-2.3,3.9
					c-1-0.8-2-1.5-3-2.1c0-0.2,0-0.5-0.1-0.7c-0.4-1.3-2.6-0.8-2.7-2.6c1.2-0.1,2.3-0.1,3.5-0.2c-0.2-1.3-1.4-2.2-0.9-3.5
					c-0.8-0.7-1.6-1.5-2.5-2.2c-1.3,0-2.3,1.6-3.9,0.5c-0.5-1.6-2-3.3,0-4.9c2.2,0,2.4,2,3.4,3c0.8-1.3,2-1.1,3.1-0.7
					c0.8,1.5,0.7,2.9,0,4.4c1.6,0.9,3.2,1.8,4.8,2.8c-0.3-3.9,3.2-2.1,4.8-3.2c0.1-1.2-0.5-1.9-1.2-2.6l0.1,0c0,0,0,0-0.1,0
					c0,0,0,0,0,0.1c-2.8,0.5-5.2-0.5-7.5-2.1c0.2-0.5,0.3-1,0.5-1.5c1.2-0.2,1.8,1.8,3.4,0.4c1.2-0.5-0.5-2.9,1.7-3.5
					c1.1,2.1-0.8,5.2,2,6.6c1-4.4,3.2-6.8,7.5-7.9c-0.2-0.9-0.4-1.8-0.6-2.8c-0.2-0.9-0.5-1.8-0.7-2.9c6.2-2.7,10-7,10.4-13.4
					c1.8-2,3.4-1.5,4.9-0.3c1.5-1.4-0.6-2.5,0.1-4.2c0.9-0.5,2-1.1,3.2-1.8c-3.3-3.6,0.2-6.9,0.6-10.3c1.3,2.5-0.8,5.8,1.9,7.9
					c0.6-1.4,1-3,2.8-3.3c2.9-0.5,4.1-2.6,5-5c4.3-0.5,7.7-3.2,11.5-5c2.9-1.4,4-4.6,5.1-8.9c-11.2-12.4-23.8-24-39.4-32.6
					c-2.3,3.7-4.8,5.3-8.3,5.6c-0.2,3.9-3.3,6.7-3.5,10.7c-1.3,0.9-2.8-0.6-4.8,0.1c-0.1,4.2-2.1,7.5-6.3,9.5c0.2,1.8,2.9,2.5,2,4.9
					c-1,2.6-3.2,3-4.9,4.2c-1.9-1.4,0.4-2.7-0.4-4c-2.6,1.3-2.1,4-3.1,6c-1.2,0.6-1.8-4.2-3.4-0.5c-1.3,0.7-2.6,1.5-3.9,2.2
					c-0.1,3.2,0.3,5.4,4.1,3c2.5,2.4,0.4,3.3-1.5,3.6c-1.4,0.3-3-0.3-4.5-0.4c-2.3,1.9-3.3,4.7-5.1,6.9c-0.7,1-1.5,2-2.2,3
					c1.1,1.2,2.2,0.9,3.3,0.8c-0.7,3.1-3.4,5.2-4.4,8c-1.4,0.9-2-2-3.4-0.8c-1.7,2.3,1.4,2.4,1.5,4.1c-2.9,4.3-3.5,9.5-4.9,14.8
					c2.6,2.1,4.7,0.1,6.5-0.4c1.2-1.1-0.2-2.6,1-3.4c4.9,2.6,0.9,4.5-0.2,6.2c-0.9,2.2,1.4,3.7,0.1,5.9c-2.3-0.7-2.5-5.9-6.6-3.5
					c-0.2,3.3,3.5,5.8,2.8,9.2c-1.5-0.6-3.4,0.4-4.4,0.7c-7.9,2.5-15.2-1.1-23-1.4c-1,1.3-2.1,2.9-3.3,4.5c-1-0.9-1.8-1.6-3-0.9
					c-1.3,0.6,0.6,2.4-1.1,3.1c-2.7-1.5-5.3-0.8-7.6,1c-1.6,1,0.3,3.4-1.8,4.2c-2-0.8,0.1-2.6-1-3.6c-6.9,2.1-11.1,8.3-17.7,11
					c-3.3,1.3-5.9,3.7-8.5,6.5c-2.7,2.8-5.2,6.1-8.6,8.3c-12.6,8.1-19.3,20.9-26.4,33.4c-2.3,4.2-4.3,8.2-7.8,9.3
					c-8.8,11.4-10,25-15.5,37.2c2,0.8,1.9,3.9,3.6,7.3c-2.6-1.1-4.5-0.1-4.5,1.6c-0.1,3.7-1,7.8,1.6,11.1c0.9,1.1,1.9,1.8,1.8,3.5
					c-0.7,6.9,1.5,13.1,3.8,17.3c12.6,13.2,24.7,24.3,39.4,32c1.6,0.8,0.1,3.2,2.6,4.1c1.9-1.2,4.1-2.2,5.6,0.7
					c2.1-0.7,3.3-4.1,5.7-1.6c0.8,2.5-3.3,1.9-2.3,4.5c3.6,2,7.3-1.6,11-0.1c0.3,0.6-0.5,1.6,0.7,2c5.5-1.3,11-2.3,15.6-1.5
					c5.3-3.4,9.7-6.7,15.4-6.9c3-0.1,5.7-0.3,5.5-4.3c8.6,4.4,10.7-5.9,16.6-7.2c0.9-1.7-0.6-3.6,1.1-4.8c2.5-0.4,0.8,3.1,3.5,3.1
					c2.5,0.7,3.2-1.8,4.8-3.2c-0.9-0.9-2.1-0.7-1.8-2.2c2.6-1.8,4.7-5.1,8.8-4.1c2.9-4.3-0.9-7.2-1.9-10.9c1.4,2.2,2.8,3.9,5.3,2
					c0.2,2.3,0.5,4.4,3.9,3.2c1.3-7.2,9.1-9.2,13.4-15.2c-2.5-2.2-3.6-5.3-6.9-7C804.7,249.6,806.6,247.4,808.4,246z M851.6,63.5
					c-1.7-0.5-3.5-1-4.2-3.1C850.3,60,851.2,61.5,851.6,63.5z M843.8,60.4c0,1.6-1.2,2.3-1.9,3.4C841.5,62.1,841.1,60.5,843.8,60.4z
					 M836.6,52.5c0.4,1.7-0.2,3-1,4.5C835.5,55.3,835.6,53.8,836.6,52.5z M814.1,97.7c-1.2-1.6-1.5-3-0.7-5
					C814.6,94.3,815.9,95.6,814.1,97.7z M815.2,54.4c1.1,0.9,2.1,2,2.3,3.7C813.8,58.5,815.1,56.1,815.2,54.4z M817.9,83.1
					c-1.6-3.4,1.2-5.9,1.1-9.3c3.7,1.7,0.3,4.1,1.4,5.7C818.6,79.9,819.1,82.1,817.9,83.1z M820.2,67.5c1.1-1.2,2.2-1.1,3.3-0.5
					C822.7,70.1,821.6,69,820.2,67.5z M819.9,95.7c-1.1-3.6-0.3-5.2,1.1-6.6c0.4,0.2,0.8,0.3,1.2,0.5
					C821.5,91.3,820.9,93,819.9,95.7z M832.7,75.4c-1.7-0.6-1.8-1.9-2.4-4.1C832.3,72.7,833.8,73.4,832.7,75.4z M828.1,86.6
					c-0.3,0-0.6-0.5-0.9-0.8c0.3-1.5,0.8-2.8,3.1-3.7C831.4,85,831.2,86.6,828.1,86.6z M830,62.4c-1.4,2.4-1.4,2.4-4.1,0.5
					C827.4,62.3,828.4,60.9,830,62.4z M827,78.4c-1,1.8-1.2,4.3-3.9,5.2c-0.8,1-1.6,1.7-3,0.2c0.1-1.2,0.2-2.7,0.4-4.1
					c0.7,0.7,1.4,1.4,2.1,2.1c0.4-1.4-0.4-3,0.9-4.7C824.3,78.5,825.9,76.1,827,78.4z M824.2,32.8c0.6,2.8-0.4,4.5-2.1,5.9
					C823.4,37.1,822.6,34.8,824.2,32.8z M822.2,42.8c-1.7,1.6-1.8,3.8-4.1,3.7C818.8,45,819.8,43.7,822.2,42.8z M818,46.6
					c-0.6,1.2,0.2,3-2.4,4.6c2.4-4.3-2.9-3-2.8-5.9C815.4,42.6,816.3,46.6,818,46.6z M813.7,52.2c1.2,0.2,1.3,1.1,1.5,2.1
					c-0.7,0.1-1.3,0.2-2,0.3C812.8,53.7,812.6,52.8,813.7,52.2z M651,238.3c-0.2-3,0.7-3.4,2.7-2.2
					C653.5,237.5,652.6,237.8,651,238.3z M807.8,225.8c-1.6-0.5-0.7-1.8-0.8-2.7c-0.1-0.6,0.1-0.8,0.4-0.5
					C808.1,223.6,809,224.4,807.8,225.8z M807.6,203.3c1.7-0.1,1.1-1.7,1.8-3c1.8,0.6,3.1,4.4,5.9,1.2
					C813.2,205.2,810.6,205.1,807.6,203.3z M782.2,123.7c-1.3,0.2-2.1-0.4-3.4-1.2c0.7-2.2,0.3-4.7,1.4-7c1.1,1.4,2,3,3.1,4.2
					c-0.4,0.1-0.8,0.2-1.2,0.3C781.1,121.5,782.4,122.6,782.2,123.7z M815.7,165.6c-0.4,2-2.1,2.2-3.2,3
					C812.7,166.9,812.5,164.7,815.7,165.6z M815.7,185.6c-4.5,0.6-3.7-2.3-4.2-5.9C814.3,181.7,812.2,185.8,815.7,185.6z
					 M811.4,240.4c1.2-1.9,2.1-2,3.2-0.7C813.6,241.4,812.7,240.4,811.4,240.4z M816.8,237.3c-0.7-1.6-1-3.1,1.4-4
					C819.1,235.5,817.5,236.2,816.8,237.3z M813.8,224.7c1.9-3.2,1.9-3.2,4.9-1.4C817.4,225.2,815.5,224.6,813.8,224.7z
					 M820.6,173.2c-0.6-2.7-1-4.3-1.3-5.9C821.1,168.6,820.9,170.4,820.6,173.2z M823,204.7c0.6-1.4,1.3-1.5,2.3-1.2
					C825.5,205.3,824.8,205.6,823,204.7z M828.1,183c-1-2,0.2-2.6,0.5-4.1C829.7,180.8,829,181.6,828.1,183z M831.2,198.2
					c0.1-1.6,0.7-2,1.6-2.3C833.3,197.4,832.7,197.9,831.2,198.2z M833.1,188.6c1.1-2,2.1-0.8,3.5-1.2
					C835.5,189.4,834.7,189.9,833.1,188.6z M834.7,180.6c2.8-0.7,3.2,1.4,4.3,2C836.5,184.3,836.5,181.6,834.7,180.6z M805.6,72.4
					c-0.9,1.3-2.5,1.7-4.1,1.6c0.1-2,3.4-2.8,2-5.4c0,0,0,0,0.1,0c0,0,0,0,0-0.1c0,0,0,0,0,0c0,0,0,0,0,0.1
					c-1.3,0.2-2.6,0.4-3.6-1.5c-0.1-0.9-0.1-2.2-0.2-3.5c1.3,1.6,2.5,3.3,3.8,4.9C806.9,68.5,807.2,70.2,805.6,72.4z M806.1,65.2
					c-2.6,0.4-4-2.1-6.3-1.7c-0.1-0.2-0.2-0.4-0.4-0.5C802.1,62.1,804.3,62.7,806.1,65.2z M799.3,115.5c-0.5,0.1-1,0.2-1.5,0.4
					c-0.5-1-0.7-2.1,0.8-3.1C799.7,113.8,799.7,114.7,799.3,115.5z M798.7,93.9c-1.1,0.9-1.8,1.8-3.2,1.2
					C795.9,93.5,796.6,92.7,798.7,93.9z M791,69.2c1.1,0.5,1,1.3,0.9,2.1c1.1,1.6,0.7,3.1-0.3,4.6c-1.3-0.8-1.5-2-1.6-3.3
					C788.8,70.8,789.1,69.7,791,69.2z M791.3,93.4c-0.4,1.4-1,1.8-2.1,0.9C789.4,92.7,790.1,92.5,791.3,93.4z M737.9,120.9
					c2.4,0,3.2,1.2,3.1,4.3C739.1,123.9,737.6,123.2,737.9,120.9z M670.7,244.1c0.3,3.1-1.2,3.8-3,4.8
					C666.4,245.9,668,245,670.7,244.1z M664.3,232.6c-1.5,1-2.3,0.9-2.4-1C663.3,230.8,664.2,230.7,664.3,232.6z M661.8,240.8
					c2.2,1.2,0.4,3,0.9,4.2C661.6,243.9,660.4,242.8,661.8,240.8z M662.9,245.4c1.9,2.3,1.9,2.3-0.2,3.9
					C660.5,247.8,662.4,246.6,662.9,245.4z M662.8,254c0.9-3.7,2.9-2.6,4.9-1.5C666.3,254.1,664,251.4,662.8,254z M669.3,256.9
					c0.9-2.6,2.9-4,2.8-7.2C673.8,256.8,673.8,256.8,669.3,256.9z M675.3,258.3c1.7-1,2.8-1.6,4.3-2.5
					C679.3,258.4,678.1,259,675.3,258.3z M680.8,267.1c-1.8-2.1-0.9-4.1-0.5-6C682.5,262.9,683.1,264.8,680.8,267.1z M685.5,226.6
					c0.9-1.3,1.2-2.4,2.5-2.3C689,226.3,688,226.8,685.5,226.6z M721.1,285.2L721.1,285.2c1.7-1.2,2.2-0.5,2.4,1.3
					C721.7,287.1,721.4,286.3,721.1,285.2z M734.2,279.4c0.3-2.5-5.4-2.4-2.7-6.2C734.1,274.7,734.7,276.9,734.2,279.4z
					 M755.7,286.7c2.3,1.5,4.9,2.8,5,6.1C755.9,289.4,755.9,289.4,755.7,286.7z M758.4,261.8c3.4,0.6,3.4,0.6,5.1,6
					C762.7,267.5,759.8,264.1,758.4,261.8z M771.7,250.4c1.5-2.1,3.6-1.9,5.6-2C775.9,250.4,773.8,250.5,771.7,250.4z M784.3,233.9
					c-1.8-1.1-0.6-2.7-1.5-4.5c1.3,0.6,1.8,0.9,2.3,1.1C785,231.7,785.1,232.9,784.3,233.9z M791.4,264.9c-1.5-1.8-0.2-2,0.7-2.7
					C793.6,264.1,792.7,264.5,791.4,264.9z M798.5,215.1c-1.3,1.7-2.6-0.6-4.1,0c-1.1,1.1-0.7,4.2-3.9,3.2c-1.1-1.2,1-2,0.6-3.2
					c-1.1-0.8-2.3,0.4-3.6,0.1c-0.5,3-2.1,6.1,1.2,8.8c0.9,0.9,0.7-1.4,2.7-0.7c0.3,0.2,1.2,1.1,1.8,2.9c-2.7,0.4-4.7,1.6-4.3,4.4
					c-1.6,0.9-2.6,0-3.8-0.2c0-1.5,0.3-3.1-1-4.6c-0.8,0.2-1.7,0.3-2.7,0.5c-0.8,1.8,0.1,4.1-1.7,5.5c1.2,2.9-0.3,5.3-1.4,8
					c-1.6-1.9-1.1-3.8-1.4-5.5c-1.9,0.6-3.5,2-5.7,2c0.4,1.5,0.6,2.6,0.9,3.8c-6.2,2.5-12.6,5.2-15.5,11.3c-1.7,3.7-5.5,4.1-7.4,6.9
					c-1.2-0.1-0.9-1.8-2.2-2.1c-3.7,4.3-9.3,5.8-14.1,8.6c-3.6,2-7.1,3.5-11.5,3.8c-3.2,0.2-6.8,1.4-7.7,5.2
					c-3.6,0.7-7-3.1-10.6,0.6c-1.1-2.2-3.4-1.9-5.8-1.2c-4.8-5.4-4.3-12.7-8.3-18.2c1.9-0.8,2.2,0.1,2.6,0.7c0.6,0.8,1.2,1,2.1,0.4
					c1.6-2-1.8-3.1-0.9-4.8c-0.7-2.8,4.1-4.2,1.6-7.4c0.6-1,2.1-0.1,2.6-1.3c-1.4-1.6-0.3-3.7-1-5.9c3.5-0.9,4.9-3,1.9-6.4
					c2.1-1,3.8-1.9,6.2-3.1c4.4-10.5,11.9-19.8,18-30c2.2-1.1,3.5-3.1,5.2-4.9c4.4-4.7,7.6-10.4,12.8-14.3c3.8-2.8,7.5-5.5,10.8-8.9
					c6.8-7.2,17-10.4,22.3-19.1c10.6,2.7,19.9-0.5,29-4.7c0.8,2-1.9,3-1.5,5.2c2.8-1.5,4.9-0.3,6.9,1.8c2.2,4.6,2.1,9.5,0.9,14.6
					c0.9,0.9,2.2,1.4,3.5,1.7c0.5,6-1.3,8.7-6.6,10.5c-0.4,2.5,2.3,2.5,3.1,4c-5.3,3.9-6.4,10.1-2.6,16.7c0.6,1.1,0.9,2.1,1.2,3.2
					c-2.1-1.4-4.8-1.9-6.9-4.2c-0.7,1.9-1.7,3.4-3.1,4.6c1.4,1.5,3.7-0.5,4.4,2.2c-2.2,0.7-4.4,1.3-7,2.1
					C796.1,210.5,798.6,212.2,798.5,215.1z M802.5,220.3c1.3,1.4,0.8,2-0.5,2.2C800.6,221.4,802.2,221,802.5,220.3z"/>
			</g>
		</g>
		<path class="st2" d="M935.3,88.3c-1.4,1.8-1.2,3.4-0.8,5.1C936.4,92.1,936.8,90.6,935.3,88.3z"/>
		<polygon class="st2" points="938.3,238.7 938.3,238.7 938.3,238.7 		"/>
		<path class="st2" d="M957.5,66.7c-1.1,1.9-1.8,3.2-3,5.2C957.8,71.3,958.1,69.8,957.5,66.7z"/>
		<path class="st2" d="M961.6,238.3c0.6,1.6,1.3,3.1,1.9,4.7C963.5,241.2,965.2,238.6,961.6,238.3z"/>
		<path class="st2" d="M961.5,238.2c0,0-0.1,0-0.1,0C961.4,238.3,961.5,238.3,961.5,238.2C961.5,238.3,961.5,238.3,961.5,238.2
			C961.5,238.3,961.5,238.3,961.5,238.2z"/>
		<g>
			<g>
				<path class="st2" d="M1019,97.8c-0.4-7.3-2.2-13.6-10.9-15.4c0.2-3-2.5-4.7-3.6-7.1c-1.1-0.7-2.5,0.7-3.6-0.7
					c-0.1-1.6-0.2-3.4-0.4-5.2c-3.2,0.2-4-5.1-7.8-2.4c-0.6-5.4-5.2-4.2-7.9-5.8c-4.1-2.4-4.6,4.8-8.2,3.1
					c-2.4,4.5-3.1,10.1-8.3,12.6c0.2,2.4,0.3,4.7,0.5,7.1c-1.3,0.8-3-0.6-4.2,1.7c0.2,1.5,0.4,3.4,0.7,5.4c-2.2,1.5-2.6,4.6-5.8,5.2
					c-1.1-0.6-2.3-1.3-3.5-2c-1.2-0.7-2.4-1.6-4-1.5c-1.4,0.3-2.2,1.6-3.2,2.5c1.9,0,3.4,0.4,3.6,2.7c-1.4,2-3.1,0.9-4.7,0.6
					c-1.3,4.2-6.6,7.6-11.6,6.9c1,2.4,1.9,4.6,2.8,6.8c-1.3,4.5-1.3,4.5-4.4,5.1c-0.5-1.2,2.9-0.5,1.3-2.3c-2.9-0.7-3.7,3.1-6.2,2.8
					c-1.7-0.8-0.5-3-2.1-3.7c-2.9-0.4-4.3,1.4-5.3,3.2c-0.5,1.7,1.6,2.9-0.1,4.4c-4.8-0.9-6.1,5.4-11.5,5.5c2.4-7,1.7-14.3,5.9-20.8
					c-1.7-2-1.2-4.7-0.9-6.7c-0.7-1.6-2.1-1.1-2.9-1.9c0.1-1.6,1.1-4.2-1.1-4.6c-3.2-0.5-2.4-2.6-2.9-4.5c-1.4-0.6-2.9-1.3-3.6-1.6
					c-6.6-8.8-15-13.2-25.2-15.7c0,2.1-1.8,2.3-3,3c2,7.6-6.9,11.5-5.7,18.7c-1.5-0.1-2.5-0.1-2.9,1.7c-1.3,12-7.3,23.3-8.9,35.7
					c-0.7,10.3-4.1,20.2-6.1,30c-0.8,0.8-1.3-1-2,0c-0.7,5,0.7,10-0.4,14.6c-1.7,7.4-4.6,14.5-5.9,22c-1.9,10.4-5.1,20.4-9.4,30.1
					c-5.1,11.6-9.7,23.5-13.3,35.7c-0.6,2.1-1.3,4.5-2.7,6.1c-4.6,5.3-5.3,12-7.5,17.7c4.1,7.4,12.9,9.4,16.2,15.8
					c6.8,5.1,14.9,7,19.3,14.4c1,0.2,2.2,0.4,3.4,0.6c2.3,0.4,4-1.8,6.9-0.8c5.3-23.3,17.4-43.4,25.4-65.7c1.4,0.6,2.7-0.1,2.8-2.2
					c1.7-0.7,2-1.8,0.9-3.2c-1.5-0.4-1.8,0.6-1.9,1.7c-0.8-1-1.2-2.1,0-3.9c0.7-1.5,3.3,0.5,4.4-1.4c2.7-4.8,4.5-10.2,10.1-13.1
					c0.2-2.8,0.6-5.7,3.9-6c1.5-2.9-0.5-5.6,0-7.7c2.1-3.1,5.5-0.7,7.4-2.8c-0.4-1.4-2.4-0.9-2.5-2.8c3.4,0.8,2.9-5.3,7.2-3.5
					c-0.9-2.8,1.8-4.4,1.5-6c-0.4-1.9-2.6-1.7-1.9-3.7c1.7,0.2,3.4,0.4,5.1,0.7c1-2.4,1.9-4.6,2.8-6.8c6.7-2.9,8.2-11.3,15.3-13.9
					c-0.9-1.8-2.2-3.5-1.1-5.5c9.9,1.2,4.1,9.2,6.2,13.8c-1.3,0.4-2.4,0.8-3.5,1.2c2.5,9.3-1.6,17.9-1.9,27.5c1.6,1.7,2.9,4,1,7.4
					c-2.7,4.8-4.8,9.8-7.1,14.8c-0.2,0.5-0.2,1.2-0.2,2c1,1.1,2,2.3,2.9,3.4c-0.5,2.2-3.3,2.9-2.9,5.9c2.1,1.7,5,4,0.2,6.5
					c1,1.7,1.9,3,4.6,2.6c0.8,0.1,0.4-2.7,2.3-2.1c0.7,1.6-0.5,2.8-0.5,4.2c0,0-0.1,0-0.1,0c0,0,0,0,0,0.1c0,0,0,0,0.1,0
					c0,0,0,0,0-0.1c2,0,3.8-0.2,3.5-3.3c2.6,2.6,0.1,4.6,0.4,6.6c0,0-0.1,0-0.1,0c0,0,0,0,0,0c0,0,0.1,0.1,0.1,0.1c0,0,0-0.1,0-0.1
					c2.8-1.1,5.6-0.2,8.4-0.6c-0.1-0.8-0.1-1.6-0.2-2.4c-3-1-0.4-6.9-5.6-5.7c2.1-6.4,5-11.8,5.6-18c2.5-0.1,1.6,2.4,2.7,3.4
					c1.4-0.6-0.2-3.6,2.6-3.2c2,1.4-1.2,2.2-0.5,3.3c0.4,2.1,3.1,2,3.5,4c-2,0.1-3.7-0.8-5.8,0c-1.5,4,0.9,8,0.9,12.1
					c2,2,4.4,3.4,7.4,3.2c-0.7-0.9-1.3-1.9-2.1-3c0.9-1.4,1.7-3.1,2-4.9c-1.3,0.1-2.5,0.1-2.3-1.8c1.7-1.1,2.5-0.6,2.7,1.4
					c0.6,0.9,0,2.5,1.6,2.8c2.1-1.6,0.9-4.7,2.9-6.4c2,4.8-0.4,9.8,0.8,15.4c0.6-1.5,0.9-2.2,1.3-3.2c1.2,1.6,1.8,2.5,3,4
					c0-8,5.9-15.4-1.1-22.8c2.2-0.3,4.3-0.7,5.6-3c-0.5-1.6-1.1-3.3-1.6-5c0.9-1.4,1.7-2.7,2.5-4.1c-0.5-1.9-0.6-3.8,0-6.1
					c0.9,1.1,1.6,2,2.3,2.9c2.5-6.6,4.9-13.3,7.1-19.3c-1.5-2.8-3.8-0.2-5.2-2c0.7-1.9,3.5-1,4.3-3.6c0.1-1.4,0.2-3.4,0.4-5.6
					c4.1-2.6,6.4-7,6.9-11.5c1.1-11,5.3-21,8.3-31.4c0.5-1.9-1.1-2.4-1.2-3.8c7.2-2.1,4.2-9.8,7.9-13.8c-0.6-1-1.1-1.9-1.6-2.6
					C1010,119.6,1012.9,108.1,1019,97.8z M909.5,103.8c1.4-1.4,2.2-0.9,2.9,0.8C911.2,105.4,910.3,105.6,909.5,103.8z M917.1,176
					c-1.9-3.5-1.9-3.5,0.6-6C916,171.7,917.6,173.8,917.1,176z M915.9,137.3c-0.8-2.5,0.6-2.6,1.9-3.2
					C918.7,136.1,918.1,137,915.9,137.3z M942.6,113.5c0.1,2.8,0.7,5.2-1.8,6.9C941.9,118.3,938.6,115.4,942.6,113.5z M926.3,120.5
					c2.3,2,0.1,3.9,0.1,5.8c-0.9-0.3-2-0.3-2.7-1.4C923.9,123.2,924.6,121.7,926.3,120.5z M921.8,129.7c0.7-1.5,1.8-1,3.3-0.7
					C923.9,131.5,922.9,130.8,921.8,129.7z M925.4,170.7c-1.2-1.6,0-2.3,1.5-3.6C927,168.9,926,169.7,925.4,170.7z M927.1,132.3
					c-1.1-1.9-0.1-4-0.6-5.9c2.8,0.6,2.6,3.9,4.9,5C929.9,133.6,928.5,133.3,927.1,132.3z M931.5,154.8c-1.4-1.9-3.4-3.3-3.3-6.4
					C931.9,149.6,932.3,151.9,931.5,154.8z M931.6,176c-2.1-2.8,1.9-4.6,0-6.9C935,171.6,935,171.6,931.6,176z M937.2,165.5
					c-2.3-1.6-5.3,0.9-8.1-2.2c2.6-0.6,5.2,1.6,6.4-1.5C936.6,163.1,937.4,163.7,937.2,165.5z M936.3,141.7c2.3,1,2.3,1,3.1,4.2
					C937.6,145.1,936.8,143.6,936.3,141.7z M942.6,169.1c-0.9-0.8-1.7-1.7-1.8-3.4C943.9,166.2,942.1,168.1,942.6,169.1z M941,123.1
					c-1.2-0.7-0.8-1.7-0.3-2.6c0.8,0.5,1.7,1,2.6,1.5C942.7,122.7,941.9,123,941,123.1z M938.2,244.9c2-0.4,2.7,0.5,2.6,2.7
					C938.1,248.1,937.5,247.2,938.2,244.9z M941.9,231.5c-2.9-1.5,3.1-5.7-1.9-6.3c1.5-0.3,3.1-0.5,5.6-0.9
					C943.2,226.6,943.7,229.5,941.9,231.5z M951,207.3c-1.8-2.1-1.1-3.2,1.2-4C953.1,205,952.1,206,951,207.3z M950.2,110.6
					c-1.7-1.8-0.8-3.5,0-5.6c1.9,1.2,3.5,2.2,4,4.2C953.3,111.4,951.8,111.1,950.2,110.6z M958.7,103.5c-1.1-1.1-2.2-1.8-1.6-3.2
					c1.4-0.2,2,0.7,2.4,1.8C959.3,102.4,959.1,102.7,958.7,103.5z"/>
			</g>
		</g>
		<path class="st2" d="M962,261.3c-4.1-1-4.3-3.9-4.4-7.2c-3.2-0.7-5.5-2.9-8-4.1c-1.1-2.1,0.3-3.5,0.6-5c-1.4-0.2-2.7,0.1-3.6,0.8
			c-2.2-0.8-3.1-2.5-4.3-3.7c-1.3-1.1-3.3-1.3-3.9-3.3c-2.4-0.1-2.4,2.9-4,3.4c-1.6-0.2-1.8-2.3-3.6-1.4c-2.2,1.6-2.5,4.3-3.2,6.8
			c1.7,3.5,3.3,6.9,5,10.3c6.7,0.8,10.2,8.6,17.6,7.5c0.7,1.8,1,3.7,3.4,5.1c4.3,0.8,8.7-0.6,13.2-3.6
			C964.4,265.4,964.5,261.9,962,261.3z"/>
		<g>
			<g>
				<path class="st2" d="M633.6,237.5c4.4-11.7,9.9-23,10.5-36.3c2.3-0.8,4.4-2.4,5.1-4.8c0.4-2.7-1.3-5-0.1-7.3
					c9.8-22.5,12.9-47.2,21.8-70.5c-0.7-1.1-1.5-2.6-2.3-4c-2.3-0.4-4.2-1.1-5-2.1c-1.3-1.9,0.3-3.4-1.2-4.3
					c-10.2-8-20.4-16-33.1-17.9c-9,20.5-15.6,41.4-20.4,64.2c-4.1,3.8-3,10.8-4.9,16.7c-1,3.3-4.4,6.4-2.7,10.5
					c1.1-0.2,2.2-0.3,3.5-0.5c0.3,2.5-1.5,2.9-3.1,3.4c0.8,4.2-3.2,3.1-4.6,4.5c-1.1,8.2-3.8,16.1-6.5,23.4
					c-2.4,6.6-2.5,12.5-2,19.1c-1.1,0.4-1.9-1.7-3-0.7c-4.9,4.6,2.2,8.5,0.6,13.2c-2.2-0.7-4.4-1.6-5.4,1c-1.9,7,3.5,7.5,7.7,9.2
					c0.4-1.3,0.8-2.6,2.6-2.6c0.5,1.6-0.4,3-0.6,4.5c0.1,0.5,0.2,1,0.3,1.5c0.2,2.9,3.1,4.6,3.5,7.5c-3.7-1-5.6-2.9-4.1-6.7
					c-1.3,0.7-2.6,1.4-3.9,2.1c-3.4-1.8-6.3-1.6-8.7,1.4c0.7,1.5,1.7,2.1,2.9,2.6c-0.2,3.4-4.2,1.7-4.9,3.1c-0.8,2.8,1.7,4,1.1,5.9
					c-0.9,1.3-2.8,0.6-3.7,2.4c0.1,1.1,0.3,2.5,0.6,4.4c2.6-1.2,4.1,0.9,6.2,1.6c0.5-1,1.1-2,1.5-2.9c1.8,0,2.2,1.1,2.6,1.9
					c-0.7,1.8-1.9,2.3-3.3,2.3c-0.1,3.3-3.9,2.3-4.6,4.5c-3,0.3-5.1-0.4-6.7-2.5c-0.7,1.4-2.5,1.2-3.7,2.6c3.3,3.5-1.2,5.2-2.1,7.5
					c5.9,12.6,19.7,11.2,28.6,17.7c2.7-2.3,5.7-2.8,8.5-4.2c-1.2-1.7-2.2-2.9-3-4c-1.8-0.9-3.1,2.1-5-0.2c1.3-1.9,1.5-4.4,1.7-7.2
					c1.2,1.2,0.5,2.6,1.8,3.1c1.8-0.7,1.2-3.5,3.6-3.9c0.9,0.3,1.9,0.7,2.7,1c2.3-0.6,3-3.2,5.6-3.1c1.8-0.3,1,2.6,2.9,2.5
					c1.8-1.2,3.3-2.7,4.1-4.9c-0.3-2.2-1.2-4.4-0.3-6.6c0.7-1.7,3.3-0.5,4-2.7c0.8-1.2-1.5-1.5-1.2-3c1.7-1.7,3.9-3.2,5-5.7
					c0-1.5-2.5-1.6-2-3.2c5.1-6.5,6-14.4,8.8-21.5c0.5-1,2.3-0.3,3-2.5C630.9,244.1,634.8,240.9,633.6,237.5z M592.6,234.3
					c-3.1-2.5-0.3-2.7,1.1-3.7C594.3,232.6,593.1,233.2,592.6,234.3z M586.8,269.1c1.7,1.9,1.2,3.3-0.4,4.6
					c-0.1-1.7-2.5-1.9-2.6-3.5C584.5,268.7,585.7,269.1,586.8,269.1z M582.9,276.8c0.2-2.3,2.3-2,3.4-2.9c0.2,2,0.3,4.1,3.7,4.9
					C586,280.3,584.4,278.6,582.9,276.8z M590.1,296.4c1.5-5.5-2.5-7.1-4.8-9.6c1.9-1.7,3.6,1.8,5.7-0.7c-0.4,4,1.1,6.1,4.9,6.8
					C593.7,292.9,592.9,294.7,590.1,296.4z M602.6,229c-1.5-0.4-2.2-1.2-2.4-2.7C602,226.5,602.9,227.2,602.6,229z M610.3,232.5
					c1-0.3,1.6,0.1,2,0.8c1.4,2.2,0.9,3.5-1.8,4.2C609.2,235.2,609.5,233.8,610.3,232.5z M613.9,252.3c-1.5,0.1-3.1,0.2-4.6,0.3
					C610.2,250,612.3,251.9,613.9,252.3z M609.1,253c-0.2,1.5,1.3,2.4,1.8,4C607.7,256.4,608.4,254.7,609.1,253z M605.5,269.9
					c0.7-1.9,2-1.2,3.1-1.2c1,0,1.9-0.1,3.3-0.2c0.3,1.5,0.2,3.1-0.9,5.1C608.5,272.9,606.2,272.4,605.5,269.9z M612.1,278.3
					c-1-1.4-0.6-2.1,1.1-2.2C614.3,277.6,613.7,278.2,612.1,278.3z M613.8,257.5c1.4-2.7,2.1-1.9,2.8-0.8
					C616.1,258.1,615.2,257.7,613.8,257.5z M616.6,262.9c2.6-0.4,3.2,1.3,4.5,3.8C617.4,266.8,616.3,265.7,616.6,262.9z
					 M618.1,251.7c1.6,1,3.6-0.7,4.6,2.2C620.3,254.6,619.2,253.8,618.1,251.7z M620.9,230.3c-1.2-2.5,0-2.5,2.1-2.2
					C622.8,230.2,622,230.5,620.9,230.3z"/>
			</g>
		</g>
	</g>
</g>
</svg>
