<?xml version="1.0" encoding="utf-8"?>
<!-- Generator: Adobe Illustrator 26.3.1, SVG Export Plug-In . SVG Version: 6.00 Build 0)  -->
<svg version="1.1" id="Layer_1" xmlns="http://www.w3.org/2000/svg" xmlns:xlink="http://www.w3.org/1999/xlink" x="0px" y="0px"
	 viewBox="0 0 854 345" style="enable-background:new 0 0 854 345;" xml:space="preserve">
<style type="text/css">
	.st0{fill:none;}
	.st1{fill:#F2891C;}
	.st2{fill:#33738C;}
	.st3{fill:#7A4B9D;}
	.st4{fill:#E73920;}
</style>
<rect x="168" y="-308" class="st0" width="686" height="686"/>
<g>
	<polygon class="st1" points="482.3,206.1 503.6,206.1 503.6,312.5 522.3,312.5 522.3,206.1 543.6,206.1 543.6,188.2 482.3,188.2 	
		"/>
	<path class="st2" d="M400.4,122.1c-0.6-2-2.5-3.2-2.5-5.2c-1.6-1.4-3.3-0.3-4.9-0.8l0,0c-1.8-0.2-2.2,1.6-3.3,2.3
		c0-0.2,0-0.5-0.1-0.7c-0.7-0.5-1.3-1-2.2-0.3c-3.2,2.6-5.6,1.6-7.9-1.7c1.7-0.8,1.2-2.3,1.2-3.7l0,0c1.3-1.5-0.3-2.3-1-3.2
		c1.2-2.4,1.8-4.6-0.4-6.5l0,0c1.7-1.6,0.2-3.9,1-5.7c0-0.1,0.1-0.2,0.1-0.2c0-0.2-0.1-0.3-0.2-0.5c0.6-1.1-1.3-2.5,0.4-3.5
		c0,0,0,0,0,0l0,0c0,0,0,0,0,0c0.1-2.5-2.1,0.2-2.6-1.2c0.2-1.4,1.8-0.7,2.3-1.5l0,0c0,0,0.2,0,0.2,0l-0.1-0.2
		c0-2.3,0.1-4.6,0.1-6.2c-1.4-2.8-3.1-0.5-4.6-1.2c0.2-1.4-0.5-3,1.5-3.5l0,0c0.3,0.3,0.5,0.7,1.1,0.4c0-0.7-0.6-0.5-1-0.6
		c1.1-0.9,1.9,0,2.7,0.6l0,0c0.3,0,0.5,0,0.8-0.1l0,0c0.5-1,0-1.9-0.2-2.8c0.9-0.4,1.4-1,1.4-2.1c0-3,0.7-5.9,1.4-8.8
		c1.2-5,2.1-10.1,3-15c-3.4-3.6-6.8-6.7-11.1-8.7c-2.8-3.1-6.2-5.3-9.8-7.4c-3.7-2.2-5.4-1.8-7.1,2.1c-2,4.6-4.8,8.9-6.8,13.6
		c-1.4,3.2-4,6.6-6.7,9.4c-1,1-1.8,2.4-1.2,3.3c-6.6,8.4-10.9,17.9-17.4,25.9c0,0,0,0,0,0c-0.4,0.7-0.8,1.5-1.2,2.2
		c-1.6,0.7-1.9,2.3-2.5,3.7c-1,1-1.8,2.1-1.8,3.6c-2,0.5-1.2,2.4-1.8,3.6c-0.7,0.4-1.5,0.7-1.9,1.4c-5.8,9-11.6,18.1-17.2,27.2
		c-2.2,3.6-3.4,8-7.5,10.1c-5.5,2.9-10,7.4-16.2,9.1c-1,0.3-2.5,0.9-0.6,2.2c1.3,1.1,0.7,2.3,0.3,3.5l0,0c1.3,1.1-0.5,2.4,0.1,3.6
		c3.4,2.1,2.2,6.6,4.8,8.6c-1.6,7-6.5,12-8.3,18.7c-2.5,1-5.8,6.1-5.8,9.6c0.8,0.6,1.6,1.3,2.4,1.9l0,0c-0.4,2.5,1.7,2.1,3,2.6
		c0,0,0,0,0,0c3.7,1.2,7.3,3.1,11.6,3c1.5-1.1,3.3-2.1,5.2-3.1c4.4-2.5,9-5.2,10.9-10.1c2.9-7.2,7.5-13.6,10.3-20.9
		c0.3-0.8,1-1.9,1.7-2.1c4.2-1.4,7.5-4.5,11.6-6.1c6.8-2.6,14-4.2,20.9-6.4c0,0,0,0,0,0c2.8-0.2,5.5-1.6,8.3-0.9
		c1.8,2.7,0.4,5.4,0.6,7.9l0,0c-0.7,0.9-0.8,1.9-0.3,2.9c1,2.4,0.7,4.7-0.4,7l0,0c1,2.4,0.3,4.7-0.2,7.1c-0.6,2.6-0.9,5.2,0.6,7.6
		l0,0c0,0,0,0,0,0.1c0,0.2,0,0.4,0,0.7c0,0,0,0,0,0c-0.2,0.2-0.4,0.5-0.6,0.7c-0.2,0.5-0.4,1-0.6,1.4l0,0c0.9,0.3,1.9,0.6,2.9,0.9
		c-1,1.2-2.8,0.1-3.5,1.6c1.4,2.5,1.4,2.6-0.9,11.9c1.5,7.1,8,7.6,13.1,9.9c1.3,1.7,3.1,0.2,4.5,0.7c1.1,0.3,1.3,2,3,1.8
		c0.6-2.2,1.2-4.5,1.8-6.8c-1.8-1.4-2.2-3.7-4.1-4.5c0.3-2.5,2.4-2.3,4.1-2.7c-0.2-0.7-0.3-1.2-0.5-1.8c0,0,0,0,0,0l0,0c0,0,0,0,0,0
		c-0.2,0-0.4,0-0.7,0c0.2-0.2,0.4-0.5,0.6-0.7c0,0.2,0,0.5,0,0.7c0,0,0,0,0,0c0-0.2,0-0.5-0.1-0.7c1.4-1.1-0.3-3.1,1.1-4.2
		c0,0,0,0,0,0l0,0c0,0,0,0,0,0c0.6-5.1-0.1-10.3,1-15.4c0.1,0,0.2,0.1,0.2,0.1c0,0-0.1-0.1-0.2-0.1l0,0c-0.4-0.9,0.2-2.1-0.9-2.8
		c0.7-0.3,1.3-0.6,2-0.8c0,0,0,0,0,0l0,0c0,0,0,0,0,0c0,0,0,0,0,0c0,0,0,0,0,0c0,0,0,0,0,0l0,0c0,0,0-0.1,0-0.1c0,0,0,0.1,0,0.1
		c-0.2-0.2-0.5-0.4-0.7-0.6c-0.1-0.1-0.1-0.2-0.2-0.2c0.1,0.1,0.1,0.1,0.2,0.2c0.2,0,0.4,0,0.6,0c0,0.2,0.1,0.4,0.1,0.5
		c0-0.2,0-0.5,0-0.7c-1-3.3-1.3-6.4,2.1-8.4c-0.1-2-0.3-3.8-0.4-5.7l0,0c0.1-5.2-0.5-10.4,2.4-15.1c4.7-0.7,7.6-4.7,11.8-6.1
		c0.4-1-0.1-2.3,1.4-2.8c1-0.1,1.4,1.9,2.9,1.2c0.7-0.7,1.3-1.5-0.1-2.3c0.1-1.2,1-1.7,1.7-2.4C400.7,130.5,401.7,126.6,400.4,122.1
		z M380.4,96.2c0,0.2,0,0.4,0,0.6C380.3,96.6,380.3,96.4,380.4,96.2z M380.3,62.9l0.1,0.2l-0.3,0L380.3,62.9z M322.1,103.1l0.1-0.2
		l0.2,0.2L322.1,103.1z M346.9,76.8c-0.6,0.3-0.8,0-1-0.5C346.6,75.9,346.9,76.1,346.9,76.8z M346.6,102.9l-0.2,0.1l0-0.2
		L346.6,102.9z M342.5,66.4l0,0.3l-0.2-0.1L342.5,66.4z M332.3,85c0,0.9-0.3,1-0.8,0.8C331.3,85.1,331.6,85,332.3,85z M327.8,100.3
		c-1.1,0.5-0.8-0.6-1.1-1.1l0,0C327.2,99.5,328.3,99.1,327.8,100.3z M332.4,95.1c-1.9-1.9-1.7-3.2,0.4-4.4
		C334,92.2,333.8,93.5,332.4,95.1z M336.8,79.4l0.1-0.3l0.2,0.2L336.8,79.4z M350.4,143.4c0,0-0.1,0-0.1,0.1
		C350.1,142.6,350.6,143.1,350.4,143.4z M352.3,124C352.3,124,352.3,124,352.3,124c-1.4-0.7-2.2,0.9-3.4,1c-0.2,0-0.5,0-0.7,0
		c-3.2-0.4-6,2.5-9.4,1.2c0-2.2,1.9-2.9,2.9-4.2l0,0c3-5.4,6.4-10.6,10.4-16.1c1.6,3.4,0.8,6.5,0.8,9.6c0,0.8-0.6,1.5,0.3,2.1
		C352.6,119.7,354.1,122.1,352.3,124z M353.3,117.6c0.8-1.2,1.4-0.7,2.1,0.2C354.5,118.6,353.9,117.6,353.3,117.6z M357.7,157
		l0.1-0.2l0.1,0.3L357.7,157z M359.7,81l0.1-0.2l0.1,0.2L359.7,81z M360.3,180.4c-0.1-0.1-0.1-0.2-0.1-0.3c0.1,0,0.1-0.1,0.2-0.1
		C360.4,180.2,360.4,180.3,360.3,180.4z M362.3,111.3l0.2-0.2l0.1,0.2L362.3,111.3z M365.5,80.4l0,0.2l-0.2,0L365.5,80.4z
		 M364.3,116.1c-0.3-1-0.9-2.1,0.5-2.8c0.3,0.5,0.5,0.9,0.7,1.2C365.5,115.5,364.8,115.8,364.3,116.1z M365.7,111.9
		c-0.6-1.2-0.9-1.7-1.1-2.1c0,0,0,0,0,0C365.3,109.5,365.8,109.6,365.7,111.9z M369.1,82c0.2,0.2,0.4,0.4,0.6,0.6
		c-0.1,0.1-0.3,0.2-0.4,0.4c-0.2-0.2-0.4-0.4-0.6-0.6C368.8,82.3,369,82.2,369.1,82z M369.1,112.7c0,0,0,0.1-0.1,0.2
		C369.1,112.9,369.1,112.8,369.1,112.7z M367.6,113.1c0.1-0.1,0.2-0.3,0.3-0.4c0.1,0.1,0.2,0.3,0.4,0.4
		C368.1,113.1,367.8,113.1,367.6,113.1z M369,113c-0.2,0.5-0.4,0.9-0.6,1.4c0-0.4-0.1-0.9-0.1-1.3C368.5,113.1,368.8,113.1,369,113z
		 M370.7,117.2c-1.3,0.5-1.5-0.4-2.4-1.2C370.7,115,371.2,115.6,370.7,117.2z M370.6,78.7c0.7-0.4,0.9-0.2,0.9,0.6
		C370.9,79.6,370.7,79.3,370.6,78.7z M372.3,182.2c-0.1-0.2-0.2-0.3-0.3-0.5C372.5,181.6,372.5,181.9,372.3,182.2z M372.1,185.5
		c0-0.2,0-0.4,0-0.6c0.2,0.2,0.5,0.4,0.7,0.6C372.5,185.5,372.3,185.5,372.1,185.5z M373.2,113.5c0.8,0.1,0.6,0.8,0.8,1.2
		C373.6,114.4,372.9,114.3,373.2,113.5z M373.6,82c0-0.9,0.3-1.1,0.8-1.1C374.7,81.9,374,81.6,373.6,82z M377.7,111.9
		c0.2,0.1,0.4,0.2,0.5,0.3C377.7,112.7,377.7,112.4,377.7,111.9z"/>
	<path class="st1" d="M399.4,284.1c0,3.6-0.9,6.3-2.7,8.2c-1.8,1.9-4.3,2.9-7.7,2.9c-3.2,0-5.7-1-7.5-2.9c-1.8-1.9-2.7-4.7-2.7-8.2
		v-95.9h-18.8v95.3c0,9.7,2.5,17.2,7.6,22.4c5,5.2,12.2,7.9,21.4,7.9c9.3,0,16.5-2.6,21.5-7.9c5.1-5.2,7.6-12.7,7.6-22.4v-95.3
		h-18.8V284.1z"/>
	<path class="st3" d="M350.1,186.9C350.1,186.9,350,186.9,350.1,186.9L350.1,186.9C350,186.9,350,186.9,350.1,186.9
		C350,186.9,350,186.9,350.1,186.9L350.1,186.9c0,0.2,0,0.5,0,0.7l0,0C350.1,187.4,350.1,187.2,350.1,186.9
		C350.1,187,350.1,186.9,350.1,186.9z"/>
	<path class="st3" d="M350.7,186.2c-0.2,0.2-0.4,0.5-0.6,0.7c0.2,0,0.4,0,0.7,0C350.7,186.7,350.7,186.5,350.7,186.2z"/>
	<path class="st2" d="M387.1,117.8C387.1,117.8,387.1,117.8,387.1,117.8C387.1,117.8,387.1,117.9,387.1,117.8L387.1,117.8z"/>
	<path class="st3" d="M369.8,206.3c0.5-1.1-0.3-1.4-1-1.8C369,205.2,368.6,206.2,369.8,206.3z"/>
	<path class="st3" d="M368.8,204.6C368.8,204.5,368.8,204.5,368.8,204.6L368.8,204.6L368.8,204.6c-0.1-0.2-0.2-0.3-0.2-0.3
		C368.6,204.3,368.7,204.4,368.8,204.6L368.8,204.6C368.8,204.5,368.8,204.5,368.8,204.6z"/>
	<path class="st3" d="M478.8,179c0.1,1.1-1.2,1.9-0.7,3.1c0.8,0.2,1.4,0,1.9-0.6C480.2,180.4,479.9,179.5,478.8,179z"/>
	<path class="st2" d="M584.2,145.2c-1.1,0.3-2.1,0.5-2.7,1.5c-0.9,2.1-0.6,4.4-0.7,6.9c0.5,0.7,1.7,1.1,1.8,2.2
		c-1.1,0.4-2.2,0.6-3.3,0.2c-1-0.7,0-2-1.1-2.5c-0.7-0.1-0.4,1.2-1.3,0.8c-0.4-0.2,0.1-1.3-0.8-1.1c-0.5,0.3-0.9,0.8-0.8,1.4
		c0.5,1,1.6,1.2,2.4,2c0.2,0.8,0.3,1.7,0.5,2.8c0.8,0.5,1.8,0.8,2.3,1.8c-1.4,0.6-2.6,0-3.8-0.7c0-0.9,0.9-1.5,0.3-2.4
		c-0.7,0-0.8,1.2-1.9,0.9c-0.6-0.4-1.5-0.9-2.3-1.5c-2.3,1.8-4.9,1.8-7.6,1.3c-0.4,0.5-0.8,1-1.3,1.6c-0.7-0.6-1.3-1.4-2.7-1.1
		c-1.4,3.2-6.4,1.5-7.9,5.3c-0.3-0.3-0.6-0.7-0.9-1c0,0-0.2,0.1,0,0c-3.6,5.2-9.4,5.8-14.5,7.8c-0.1,0.7-0.2,1.4-0.4,2.1
		c-0.6-0.4-0.8-1.4-1.7-1.1c-1.5,0.6-1.1,2.4-2,3.5c-0.9-1.8-2.3-2.4-3.6-1.1c-1.2,1.2-2.4,1.6-4,1.7c-2,0.2-3.6,1.3-4.9,2.8
		c-0.2,0.2-0.6,0.3-0.8,0.3c-1.2,0-2-1.1-3.5-0.8c-3.7,2.9-7-1.1-10.7-1.4c-0.6-1-0.2-2.3-1.1-3.1c-1.6-0.7-3.2-0.6-4.5-0.6
		c-1.3-1.1-0.7-2.3-0.9-3.4c0.4,0.6,0.8,1.1,1.2,1.6c0.7,0.3,1.4,0.4,2.1,0.3c-0.7-2,1.4-3.6,0.6-5.6c0,0,0,0,0,0c0,0,0,0,0,0
		c0,0,0,0,0,0c0,0,0,0,0,0c-1.1,0-1.6-1-2.3-1.3c-1.2-0.3-1.8,0.4-2.6,0.9c-0.2,0.8-0.3,1.5-0.5,2.3c-0.3,0-0.7,0-1,0.1
		c-0.3-1.4,0.5-2,1.5-2.4c0,0,0,0,0,0c0,0,0,0,0,0c0,0,0,0,0,0c0,0,0,0,0,0c-0.1-1-0.2-2-0.2-2.9c2.3,0.2,4.3,0.8,5.2,3.3
		c0.5,0,0.9,0,1.4-0.1c0.9,1.9-1.5,3.2-1.1,5c1.8,1.2,2.7,3,3.4,4.8c0.9,0.3,1.6,0.4,2.2-0.3c0.3-1.4-1.6-2.4-0.7-4.2
		c0.8-0.9,2.6-1.3,3-3c-0.6-0.5-1.6-0.5-2-1.4c1.8-1.3,2.3-0.3,2.4,1.4c3.1-3.7,4.9-8.1,7-12.7c0.2-0.1,0.8,0.6,1.3-0.2
		c0.1-0.9-0.2-2,0.7-3c2.5-0.3,3.6-2.2,4.5-4.3c5.1-5.1,9.8-10.6,16.2-15.1c2.7,0.2,2.9-3.9,5.5-4.9c0.6,0.9-1,1.6,0,2.7
		c0.9-2.9,4.9-1.5,5.7-4.6c0.8,0.9,1.5,0.9,2.1,0.4c4.1-3,8.9-4.7,13.6-6.5c3.3-1.3,6.8-2.5,10.2-3.1c4-0.7,7.2-1.7,9.3-4.9
		c0.1-10.2-5.5-18-9.6-26.2c-3.6-0.9-6.2,0.6-9,2.4c-2.7-1-4.8,0.3-6.8,2.1c-4.4-1.8-7,2.1-10.4,3.1c-3.6,1-7,2.8-10.1,4.1
		c-1,0.8-0.4,1.9-1.3,2.3c-4.7-0.4-12.1,5.8-14.5,8.8c-1-1-2.2-1.5-3,0.3c0.1,0.5,1.1,0.6,0.7,1.4c-0.8,0.7-1.9-0.3-2.5,0.5
		c-0.5,0.8,0.1,1.6-0.5,2.1c-0.8,0.7-1.4-0.9-2.4,0c0.4,2.7-3.2,2.3-3.7,4.6c-0.3-0.4-0.5-1-1.2-0.9c-0.5,1-1,2.1-1.8,3.8
		c-0.1,0.4-1.7-0.5-2,0.8c-0.3,0.4,0.6,1.2-0.2,1.7c-3.4,1.2-5.2,3.8-5.6,7.3c-1.6,0.7-2.6,1.9-3.6,2.9c-0.7,2.3-2,4.4-1.2,6.7
		c-2.4,1-3.6,2.3-4.3,4.9c-0.5,2-0.8,4.1-1.4,6.1c-0.5,1.5-2.4,3.5-0.4,5.3c-0.2,0.1-0.3,0.3-0.5,0.4c-0.9-2.1-2.3-4-4.6-5.4
		c-1.1,0.3-2.1,0.5-2.7,1.5c-0.9,2.1-0.6,4.4-0.7,6.9c0.5,0.7,1.7,1.1,1.8,2.2c-1.1,0.4-2.2,0.6-3.3,0.2c-1-0.7,0-2-1.1-2.5
		c-0.7-0.1-0.4,1.2-1.3,0.8c-0.4-0.2,0.1-1.3-0.8-1.1c-0.5,0.3-0.9,0.8-0.8,1.4c0.5,1,1.6,1.2,2.4,2c0.2,0.8,0.3,1.7,0.5,2.8
		c0.8,0.5,1.8,0.8,2.3,1.8c-1.4,0.6-2.6,0-3.8-0.7c0-0.9,0.9-1.5,0.3-2.4c-0.7,0-0.8,1.2-1.9,0.9c-0.6-0.4-1.5-0.9-2.3-1.5
		c-2.3,1.8-4.9,1.8-7.6,1.3c-0.4,0.5-0.8,1-1.3,1.6c-0.7-0.6-1.3-1.4-2.7-1.1c-1.4,3.2-6.4,1.5-7.9,5.3c-0.3-0.3-0.6-0.7-0.9-1
		c0,0-0.2,0.1,0,0c-3.6,5.2-9.4,5.8-14.5,7.8c-0.1,0.7-0.2,1.4-0.4,2.1c-0.6-0.4-0.8-1.4-1.7-1.1c-1.5,0.6-1.1,2.4-2,3.5
		c-0.9-1.8-2.3-2.4-3.6-1.1c-1.2,1.2-2.4,1.6-4,1.7c-2,0.2-3.6,1.3-4.9,2.8c-0.2,0.2-0.6,0.3-0.8,0.3c-1.2,0-2-1.1-3.5-0.8
		c-3.7,2.9-7-1.1-10.7-1.4c-0.6-1-0.2-2.3-1.1-3.1c-1.6-0.7-3.2-0.6-4.5-0.6c-1.3-1.1-0.7-2.3-0.9-3.4c0.4,0.6,0.8,1.1,1.2,1.6
		c0.7,0.3,1.4,0.4,2.1,0.3c-0.7-2,1.4-3.6,0.6-5.6c0,0,0,0,0,0c0,0,0,0,0,0c0,0,0,0,0,0c0,0,0,0,0,0c-1.1,0-1.6-1-2.3-1.3
		c-1.2-0.3-1.8,0.4-2.6,0.9c-0.2,0.8-0.3,1.5-0.5,2.3c-0.3,0-0.7,0-1,0.1c-0.3-1.4,0.5-2,1.5-2.4c0,0,0,0,0,0c0,0,0,0,0,0
		c0,0,0,0,0,0c0,0,0,0,0,0c-0.1-1-0.2-2-0.2-2.9c2.3,0.2,4.3,0.8,5.2,3.3c0.5,0,0.9,0,1.4-0.1c0.9,1.9-1.5,3.2-1.1,5
		c1.8,1.2,2.7,3,3.4,4.8c0.9,0.3,1.6,0.4,2.2-0.3c0.3-1.4-1.6-2.4-0.7-4.2c0.8-0.9,2.6-1.3,3-3c-0.6-0.5-1.6-0.5-2-1.4
		c1.8-1.3,2.3-0.3,2.4,1.4c3.1-3.7,4.9-8.1,7-12.7c0.2-0.1,0.8,0.6,1.3-0.2c0.1-0.9-0.2-2,0.7-3c2.5-0.3,3.6-2.2,4.5-4.3
		c5.1-5.1,9.8-10.6,16.2-15.1c2.7,0.2,2.9-3.9,5.5-4.9c0.6,0.9-1,1.6,0,2.7c0.9-2.9,4.9-1.5,5.7-4.6c0.8,0.9,1.5,0.9,2.1,0.4
		c4.1-3,8.9-4.7,13.6-6.5c3.3-1.3,6.8-2.5,10.2-3.1c4-0.7,7.2-1.7,9.3-4.9c0.1-10.2-5.5-18-9.6-26.2c-3.6-0.9-6.2,0.6-9,2.4
		c-2.7-1-4.8,0.3-6.8,2.1c-4.4-1.8-7,2.1-10.4,3.1c-3.6,1-7,2.8-10.1,4.1c-1,0.8-0.4,1.9-1.3,2.3c-4.7-0.4-12.1,5.8-14.5,8.8
		c-1-1-2.2-1.5-3,0.3c0.1,0.5,1.1,0.6,0.7,1.4c-0.8,0.7-1.9-0.3-2.5,0.5c-0.5,0.8,0.1,1.6-0.5,2.1c-0.8,0.7-1.4-0.9-2.4,0
		c0.4,2.7-3.2,2.3-3.7,4.6c-0.3-0.4-0.5-1-1.2-0.9c-0.5,1-1,2.1-1.8,3.8c-0.1,0.4-1.7-0.5-2,0.8c-0.3,0.4,0.6,1.2-0.2,1.7
		c-3.4,1.2-5.2,3.8-5.6,7.3c-1.6,0.7-2.6,1.9-3.6,2.9c-0.7,2.3-2,4.4-1.2,6.7c-2.4,1-3.6,2.3-4.3,4.9c-0.5,2-0.8,4.1-1.4,6.1
		c-0.5,1.5-2.4,3.5-0.4,5.3c-1.2,1-1.8,2.3-1.6,4c0.6,0.7,1.4,1.4,2.1,2.1c-1.1,0.7-0.6,2.8-2.6,2.6c0.4,1.5,0.7,2.7,1,3.9
		c-0.9,1-0.6,2.2-0.8,3.3c0.9,0.1,1.4-0.1,1.6-0.8c1.4,1.9,0.3,3.8,0,5.5c1,2.4,2.6,4.2,3.8,6.2c0.8-0.5,1.4-1.3,2.2-0.2
		c0.4,1-0.9,1.7-0.3,3c0.8,0.8,2.1,1.9,1.8,3.6c0.8,0.4,1-0.9,1.8-0.1c0.3,2,1.7,3.6,2.3,5.5c2.1,0,3.8,1.1,5.6,0.7
		c0.8,0.5,0.5,1.7,2,1.9c1.4-0.2,2.9,0.3,4,1.6c3.2,0.5,5.9-0.8,8.5-1.9c0.7,0.5,0.7,2.3,2.2,1.4c0.9-1-1-1.8-0.4-2.5
		c1.7-1.4,1.8,0.7,2.7,0.7c2.7,0,4.3-2.3,6.3-3.1c1.2,0.3,0.7,1.8,2,1.6c0.3-2.7,2-1.9,3.4-1.4c0.9-0.4,0.1-1.2,0.9-1.8
		c2.8,0.5,4.2-4.4,7.8-2.4c0.4-0.9,0.9-1.9,2.1-2.6c1.4-0.2,3-0.5,4.6-0.7c2.5-1.6,3.8-4.1,5.6-6.2c0.1-0.7-1.1-0.4-1-1.2
		c0.5-0.5,1.5-0.4,1.9-1.2c0.8,0.4,1.6,0.3,2.4,0.1c-0.1-0.7-0.3-1.5,0-2.2c0.7-0.4,1.2,0,1.7,0.5c3,0.5,3.5-1.9,4.6-3.8
		c1.4,0.3,2.3-1,3.6-1.1l-0.1,0c0,0,0,0,0.1,0c0,0,0,0,0-0.1c2.5-1.9,5.2-3.3,8.5-3.8c0.3-0.9-1.1-2.5,1.4-2.6
		c-1-0.7-1.6-1.1-2.1-1.5c-0.9,0.3-1.7,0.3-2.5-0.4c-0.1-0.8,0.9-0.9,0.9-1.6c0.5-0.7,1-1.3,1.5-2c0,1.3,0,2.6,0,3.9
		c1.5-0.7,2.5-1.9,3.3-3.4c1.4,0.5,0.6,1.6,0.6,2.8c0.6-0.5,1-1,1.4-1.5c0.1,0.2,0.1,0.5,0.2,0.7c-0.9,1-0.6,2.2-0.8,3.3
		c0.9,0.1,1.4-0.1,1.6-0.8c1.4,1.9,0.3,3.8,0,5.5c1,2.4,2.6,4.2,3.8,6.2c0.8-0.5,1.4-1.3,2.2-0.2c0.4,1-0.9,1.7-0.3,3
		c0.8,0.8,2.1,1.9,1.8,3.6c0.8,0.4,1-0.9,1.8-0.1c0.3,2,1.7,3.6,2.3,5.5c2.1,0,3.8,1.1,5.6,0.7c0.8,0.5,0.5,1.7,2,1.9
		c1.4-0.2,2.9,0.3,4,1.6c3.2,0.5,5.9-0.8,8.5-1.9c0.7,0.5,0.7,2.3,2.2,1.4c0.9-1-1-1.8-0.4-2.5c1.7-1.4,1.8,0.7,2.7,0.7
		c2.7,0,4.3-2.3,6.3-3.1c1.2,0.3,0.7,1.8,2,1.6c0.3-2.7,2-1.9,3.4-1.4c0.9-0.4,0.1-1.2,0.9-1.8c2.8,0.5,4.2-4.4,7.8-2.4
		c0.4-0.9,0.9-1.9,2.1-2.6c1.4-0.2,3-0.5,4.6-0.7c2.5-1.6,3.8-4.1,5.6-6.2c0.1-0.7-1.1-0.4-1-1.2c0.5-0.5,1.5-0.4,1.9-1.2
		c0.8,0.4,1.6,0.3,2.4,0.1c-0.1-0.7-0.3-1.5,0-2.2c0.7-0.4,1.2,0,1.7,0.5c3,0.5,3.5-1.9,4.6-3.8c1.4,0.3,2.3-1,3.6-1.1l-0.1,0
		c0,0,0,0,0.1,0c0,0,0,0,0-0.1c2.5-1.9,5.2-3.3,8.5-3.8c0.3-0.9-1.1-2.5,1.4-2.6c-1-0.7-1.6-1.1-2.1-1.5c-0.9,0.3-1.7,0.3-2.5-0.4
		c-0.1-0.8,0.9-0.9,0.9-1.6c0.5-0.7,1-1.3,1.5-2c0,1.3,0,2.6,0,3.9c1.5-0.7,2.5-1.9,3.3-3.4c1.4,0.5,0.6,1.6,0.6,2.8
		c2.1-1.9,3-4.1,3.6-5.8C589.9,152.5,588.9,148,584.2,145.2z M555.2,100.9c-1,1.4-2.1,1.7-3.5,1.5
		C552.7,101.7,553.2,99.7,555.2,100.9z M533.8,116.4c0.4,1,1.2,1.7,2.3,3C534,118.8,533.1,118.1,533.8,116.4z M524.9,118.9
		c0.7,0.6,0.8,1.1,0.7,1.9C524.9,120.3,524.1,120.1,524.9,118.9z M525.6,138.1c-0.1-1.4-0.2-2.9-0.4-5
		C526.9,135.2,525.6,136.7,525.6,138.1z M524.4,113.3c0.9-0.2,1.1,0.5,1.5,1.5C524.3,115,524.1,114.4,524.4,113.3z M521,139.5
		c0.7,0.3,0.7,1,0.7,2C520.3,140.9,520.5,140.3,521,139.5z M519,152.5c-0.9,0.4-1.1-0.1-1.4-1.2C518.4,151.4,518.9,151.7,519,152.5z
		 M515,118.4c0,1,0.2,2-0.7,2.9C513.5,120,514,119.1,515,118.4z M513.9,124.1c-0.4,2.4,1.4,2.5,2.9,3.3c-1.8,1.3-2.9,0.6-4.1-0.3
		C512.7,125.9,512.9,125.2,513.9,124.1z M511.7,136.9c-0.4,1.4-1.3,1.4-2.5,1.3C510,137.4,510.7,137,511.7,136.9z M507.6,161.5
		c-0.2-1.3-1.2-2.7,0.5-3.9C508.9,160.2,508.9,160.3,507.6,161.5z M508.8,135.6c-0.4,0.7-0.8,1.4-1.2,2.1
		C506.5,137.2,506.6,136.9,508.8,135.6z M507.6,161.6c0.2,1,0.4,2,0.5,3c-0.6,1.2-1.7,1.8-3,2c-0.4-0.9-0.7-1.9-1.2-3
		C505.8,163.9,506.4,162.3,507.6,161.6z M506.3,139.9c-0.1,1.3-1.1,2.6,0.2,3.8c-1.5,0-1.5-1.5-2.7-1.5
		C504.3,141.2,504,139.4,506.3,139.9z M504.1,159c1,0.6,2.1,1.3,0.3,2.6c-0.8-0.7-1.1-1.6-1.3-2.3
		C503.4,158.9,503.8,158.8,504.1,159z M501.5,153.2c0.3,1.5,0.8,2.4-0.3,3.4C500.1,155.4,500.8,154.6,501.5,153.2z M500.3,158.3
		c1,0.7,0.9,1.8,1.6,3.1c-1.3-0.7-2.1-1.2-3-1.7C499.5,159.2,499.9,158.8,500.3,158.3z M459.2,107.7c-1,1.4-2.1,1.7-3.5,1.5
		C456.7,108.5,457.1,106.6,459.2,107.7z M437.7,123.2c0.4,1,1.2,1.7,2.3,3C438,125.6,437.1,125,437.7,123.2z M428.9,125.7
		c0.7,0.6,0.8,1.1,0.7,1.9C428.8,127.2,428.1,126.9,428.9,125.7z M429.5,145c-0.1-1.4-0.2-2.9-0.4-5
		C430.9,142,429.6,143.5,429.5,145z M428.3,120.2c0.9-0.2,1.1,0.5,1.5,1.5C428.2,121.9,428,121.3,428.3,120.2z M425,146.3
		c0.7,0.3,0.7,1,0.7,2C424.2,147.8,424.4,147.1,425,146.3z M422.9,159.3c-0.9,0.4-1.1-0.1-1.4-1.2
		C422.4,158.3,422.8,158.5,422.9,159.3z M418.9,125.2c0,1,0.2,2-0.7,2.9C417.4,126.8,417.9,126,418.9,125.2z M417.8,131
		c-0.4,2.4,1.4,2.5,2.9,3.3c-1.8,1.3-2.9,0.6-4.1-0.3C416.6,132.8,416.8,132.1,417.8,131z M415.7,143.8c-0.4,1.4-1.3,1.4-2.5,1.3
		C413.9,144.3,414.6,143.8,415.7,143.8z M411.6,168.4c-0.2-1.3-1.2-2.7,0.5-3.9C412.8,167.1,412.8,167.1,411.6,168.4z M412.7,142.5
		c-0.4,0.7-0.8,1.4-1.2,2.1C410.4,144.1,410.5,143.7,412.7,142.5z M411.5,168.5c0.2,1,0.4,2,0.5,3c-0.6,1.2-1.7,1.8-3,2
		c-0.4-0.9-0.7-1.9-1.2-3C409.7,170.8,410.3,169.1,411.5,168.5z M410.2,146.8c-0.1,1.3-1.1,2.6,0.2,3.8c-1.5,0-1.5-1.5-2.7-1.5
		C408.3,148,407.9,146.3,410.2,146.8z M408,165.9c1,0.6,2.1,1.3,0.3,2.6c-0.8-0.7-1.1-1.6-1.3-2.3
		C407.4,165.7,407.7,165.7,408,165.9z M405.5,160c0.3,1.5,0.8,2.4-0.3,3.4C404,162.3,404.7,161.4,405.5,160z M404.2,165.2
		c1,0.7,0.9,1.8,1.6,3.1c-1.3-0.7-2.1-1.2-3-1.7C403.4,166,403.8,165.6,404.2,165.2z M397.3,163.8c0.9-0.7,1.2-2.3,2.8-1.8
		C399.3,164.4,398.9,164.7,397.3,163.8z M398.8,166.3c0.7-0.4,1.2-0.5,1.8-0.1c-0.1,0.6-0.2,1.2-0.3,1.9c-0.5,0-1,0.1-1.5,0.1
		C398.9,167.5,398.8,166.9,398.8,166.3z M399.6,171.9c0.3-1.3,1-2.4,0.6-3.6c0.8,0.3,1.4,0.8,1.9,1.5
		C401.2,170.2,401.2,171.7,399.6,171.9z M414.5,193.1c0.4-0.6,0.9-0.8,1.8-0.6C415.7,193.3,415.1,193.2,414.5,193.1z M419.1,202.6
		c0.9,1.1,1.5,1.8,2.1,2.5C419.6,205.2,419.1,204.4,419.1,202.6z M426.8,201.3c1,0,1.3,0.5,1.4,1.4
		C427.4,202.7,427,202.3,426.8,201.3z M433.9,187.8c-1.4-0.1-2.1-0.7-1.1-2.4c0.6,0.8,1.1,1.4,1.5,2
		C434.2,187.5,434,187.8,433.9,187.8z M442.3,196.7c1-0.4,1.5-0.5,2.1,0.1C443.8,197.4,443.2,196.9,442.3,196.7z M445.1,179.6
		c0.7-0.6,1.5-1.2,2.3-1.9c0.4,0.9,0.7,1.7,1,2.4C446.9,181.9,446.2,180.3,445.1,179.6z M450.1,183.4c-0.3-0.2-0.6-0.3-0.9-0.5
		c0.8-1.5,1.1-3.2,0.9-4.9c0.9,0.1,1.4,0.6,2.1,1.2C451.5,180.6,450.8,182,450.1,183.4z M455.1,182.9c-0.7-0.5-0.4-1.2-0.3-2
		c1.1,0.3,1.5,0.8,1.9,1.4C456.3,183,455.8,183.1,455.1,182.9z M456,178.6c0.2-1,0.7-1.2,1.6-1.3C457.4,178.5,456.7,178.4,456,178.6
		z M460.1,175.2c-0.8-0.3-0.6-1.1-0.8-2c1.1,0,1.3,0.8,1.9,1C461.1,175,460.5,174.9,460.1,175.2z M464.9,183.2
		c1.5,0.2,1.5,1.2,1.7,2.2C465.6,185.1,464.8,184.6,464.9,183.2z M461.8,180.5c1.8-1,2.9,0.4,5,0.1
		C464.5,182.4,463.3,181.6,461.8,180.5z M467.3,170.9c-0.6-0.1-1-0.5-0.8-1c0.4-1.2,1.1-0.9,1.8-0.2
		C468.3,170.4,467.9,170.7,467.3,170.9z M474.7,176.6c-1.2-1-0.4-1.9-0.5-2.8C474.9,174.6,475,175.4,474.7,176.6z M475.7,171.1
		c-0.6,0.8-1.3,1.5-1.5,2.6c-3-0.7-3.5-1.4-2.8-3.8c0.5-0.3,0.9,0,1.2,0.3c0.2,0.2,0.5,0.5,0.8,0.8c1-0.7,1.6-2.1,3.2-1.8
		c0.4,0.9,0.8,1.8,1.2,2.7C476.6,172.5,476.5,171.1,475.7,171.1z M488.1,165.8c1.3,0.1,1.2,1.2,1.7,1.8
		C488,168.3,487.7,167.5,488.1,165.8z M493.3,157c0.9-0.7,1.2-2.3,2.8-1.8C495.4,157.6,494.9,157.8,493.3,157z M494.9,159.4
		c0.7-0.4,1.2-0.5,1.8-0.1c-0.1,0.6-0.2,1.2-0.3,1.9c-0.5,0-1,0.1-1.5,0.1C494.9,160.7,494.9,160,494.9,159.4z M495.7,165.1
		c0.3-1.3,1-2.4,0.6-3.6c0.8,0.3,1.4,0.8,1.9,1.5C497.3,163.4,497.3,164.8,495.7,165.1z M510.6,186.3c0.4-0.6,0.9-0.8,1.8-0.6
		C511.7,186.4,511.2,186.4,510.6,186.3z M515.2,195.7c0.9,1.1,1.5,1.8,2.1,2.5C515.7,198.3,515.2,197.5,515.2,195.7z M522.8,194.4
		c1,0,1.3,0.5,1.4,1.4C523.4,195.8,523,195.4,522.8,194.4z M530,180.9c-1.4-0.1-2.1-0.7-1.1-2.4c0.6,0.8,1.1,1.4,1.5,2
		C530.2,180.7,530.1,180.9,530,180.9z M538.4,189.8c1-0.4,1.5-0.5,2.1,0.1C539.9,190.6,539.3,190.1,538.4,189.8z M541.1,172.8
		c0.7-0.6,1.5-1.2,2.3-1.9c0.4,0.9,0.7,1.7,1,2.4C543,175.1,542.2,173.5,541.1,172.8z M546.1,176.5c-0.3-0.2-0.6-0.3-0.9-0.5
		c0.8-1.5,1.1-3.2,0.9-4.9c0.9,0.1,1.4,0.6,2.1,1.2C547.5,173.7,546.8,175.1,546.1,176.5z M551.1,176.1c-0.7-0.5-0.4-1.2-0.3-2
		c1.1,0.3,1.5,0.8,1.9,1.4C552.4,176.2,551.8,176.2,551.1,176.1z M552,171.7c0.2-1,0.7-1.2,1.6-1.3
		C553.5,171.6,552.8,171.6,552,171.7z M556.2,168.4c-0.8-0.3-0.6-1.1-0.8-2c1.1,0,1.3,0.8,1.9,1C557.1,168.2,556.5,168,556.2,168.4z
		 M561,176.4c1.5,0.2,1.5,1.2,1.7,2.2C561.6,178.3,560.9,177.7,561,176.4z M557.8,173.7c1.8-1,2.9,0.4,5,0.1
		C560.5,175.6,559.3,174.7,557.8,173.7z M563.4,164c-0.6-0.1-1-0.5-0.8-1c0.4-1.2,1.1-0.9,1.8-0.2
		C564.4,163.6,563.9,163.9,563.4,164z M570.8,169.7c-1.2-1-0.4-1.9-0.5-2.8C571,167.7,571.1,168.6,570.8,169.7z M571.7,164.2
		c-0.6,0.8-1.3,1.5-1.5,2.6c-3-0.7-3.5-1.4-2.8-3.8c0.5-0.3,0.9,0,1.2,0.3c0.2,0.2,0.5,0.5,0.8,0.8c1-0.7,1.6-2.1,3.2-1.8
		c0.4,0.9,0.8,1.8,1.2,2.7C572.7,165.7,572.5,164.2,571.7,164.2z M584.2,159c1.3,0.1,1.2,1.2,1.7,1.8
		C584.1,161.5,583.7,160.7,584.2,159z"/>
	<path class="st3" d="M574.9,172.2c0.1,1.1-1.2,1.9-0.7,3.1c0.8,0.2,1.4,0,1.9-0.6C576.3,173.5,575.9,172.6,574.9,172.2z"/>
	<path class="st2" d="M650.6,63.4c0.5,0.7-0.2,1.5,0.5,2c0.9,0.7,1.9,0,3.1,0.3c-0.7,0.9-1.8,1.5-1.3,2.9c0.8,1,2.3,1.3,3.6,2.3
		c0.2-1.9,2.2-1.3,3.2-2.7c0.1-1.5,1.2-3.3-0.5-5.3c2.6-0.3,3.6-2,5-3.6c-2-0.3-1.1-2.2-2.1-3c-0.8,0-1.6-0.1-2.4-0.1
		c-1.1-0.4-1.1-0.4-0.4-2.3c0.8,0.4,0.6,1.1,0.3,1.7c1.6,0.1,3-0.3,3.9-2.2c-0.8-1.8-0.1-3.8,0.1-6c-1.5-1.4-1.5-3.4-1.5-5.3
		c1.8-0.2,3.9,0.1,4.1-2.8c-1.5-3.8-7-4.2-7.8-8.6c-0.8,0-0.5,0.8-1,0.9c-0.9-0.1-1.3-2.3-2.9-0.7c0.7,1.2,2.5,1.9,1.7,3.7
		c-3.2,0.9-5.1,3.5-7.3,5.4c-1.6,0.9-2.9-1-4.5-0.3c0.9,1.1,1.3,2.4,1.1,3.7c-0.9,0.5-1.7,1-2.5,1.5c0.3,3.9-3.4,6.3-3.6,10.6
		C643.1,57.9,644.4,63.9,650.6,63.4z M658.4,35.4c0.8,1,1.5,2,2.1,2.7c0.6,1.4-0.1,2.2-0.7,3.2c0.6,0.7,1.8,0.1,2.4,0.8
		c-0.9,0.2-1.7,0.8-2.8,0.6c-0.7-0.6-1.5-1.2-2.2-1.8C656.5,38.8,656.8,37,658.4,35.4z M657.7,46c-0.4,0.8-1,0.7-1.7,0.6
		C656.6,45,656.6,45,657.7,46z M656.7,48.7c2.2,1.6-1.3,3.1,0.4,4.6C654.4,51.9,657.3,50.1,656.7,48.7z M655.8,55
		c1,0.5,1.1,1.1,1.1,1.8C655.3,56.6,655.3,56.6,655.8,55z M643.8,55.1c-0.6-1.2,0.3-1.4,0.8-2.5C645.1,54.2,644.8,54.7,643.8,55.1z
		 M645.8,48.2c-0.5,2.1-1,3.4-3,2C643.3,48.7,644.6,49.1,645.8,48.2z"/>
	<path class="st3" d="M611.6,191c1.7-0.1,3.1,0.6,4.5,2C615.7,190.3,615.7,190.3,611.6,191z"/>
	<path class="st3" d="M650.1,32.5c0-1.2,1.6-2.9-1.2-3.7C649.5,30.2,648.7,31.5,650.1,32.5z"/>
	<path class="st3" d="M601.9,165.3c-0.5-1-1.2-1.5-2.3-1.3c-0.5,0.7-0.3,1.3-0.2,2.3C600.4,166.2,601.4,166.4,601.9,165.3z"/>
	<path class="st2" d="M729.3,162.8c1.7-0.1,2.5,1.7,4,1.7c0-1.3-1.7-1.5-1.3-2.9c1.2,0.6,2.4,1.5,3.2-0.6c0-0.7-0.8-1.7,0-2.7
		c0.5,0,0.5,0.4,1.3,1.3c-0.9-2.6,1.4-2.4,2-3.4c-0.2-2.5-1-4.9,2.5-5.5c0.7-0.1,1.4-1.4,1.2-2.3c-0.8-2.8,1.1-4.6,2.4-6.5
		c0-6.1,0.2-6.9,2.7-10.7c-0.8-1.4,0-3.1-0.6-4.7c0,0,0,0,0,0c-0.1-2.3,0.9-4.3,1.6-6.1c-0.6-2.3-0.8-4.6-1.2-6.9
		c0.4-0.7,0.3-1.5-0.5-2.8c-0.1-0.2-0.2-0.4-0.3-0.6c-0.2-0.5-0.4-1.1-0.7-1.6c-0.3-0.8-0.4-1.6-0.4-2.6c-0.9-0.8-1.6-1.8-2.4-2.6
		c0-0.4,0-0.8-0.2-1.2c-3.5-2.6-6.4-5.7-8-8.9c-0.5-0.4-0.9-0.7-1.4-1.1c0-1.4-0.1-2.9-1-4.2c-0.2,1-0.7,1.8-1.3,2.2
		c-0.6-0.4-1.1-0.8-1.7-1.2c0-0.1,0-0.3-0.1-0.4c-0.2-0.7-1.5-0.5-1.5-1.5c0.7,0,1.3-0.1,2-0.1c-0.1-0.8-0.8-1.2-0.5-2
		c-0.5-0.4-0.9-0.8-1.4-1.3c-0.7,0-1.3,0.9-2.2,0.3c-0.3-0.9-1.1-1.9,0-2.8c1.3,0,1.4,1.1,2,1.7c0.5-0.7,1.1-0.6,1.8-0.4
		c0.5,0.8,0.4,1.7,0,2.5c0.9,0.5,1.8,1.1,2.8,1.6c-0.2-2.2,1.9-1.2,2.7-1.8c0.1-0.7-0.3-1.1-0.7-1.5l0,0c0,0,0,0,0,0c0,0,0,0,0,0
		c-1.6,0.3-3-0.3-4.3-1.2c0.1-0.3,0.2-0.6,0.3-0.9c0.7-0.1,1,1,1.9,0.3c0.7-0.3-0.3-1.6,1-2c0.6,1.2-0.5,3,1.1,3.8
		c0.6-2.5,1.8-3.9,4.3-4.5c-0.1-0.5-0.2-1.1-0.4-1.6c-0.1-0.5-0.3-1.1-0.4-1.7c3.5-1.5,5.7-4,5.9-7.7c1.1-1.2,1.9-0.9,2.8-0.2
		c0.9-0.8-0.3-1.5,0.1-2.4c0.5-0.3,1.2-0.7,1.8-1c-1.9-2.1,0.1-3.9,0.3-5.9c0.7,1.4-0.5,3.3,1.1,4.6c0.3-0.8,0.6-1.7,1.6-1.9
		c1.6-0.3,2.4-1.5,2.9-2.9c2.5-0.3,4.4-1.9,6.6-2.9c1.7-0.8,2.3-2.6,3-5.1c-6.4-7.1-13.6-13.7-22.6-18.7c-1.3,2.1-2.7,3.1-4.8,3.2
		c-0.1,2.2-1.9,3.8-2,6.2c-0.7,0.5-1.6-0.3-2.7,0.1c-0.1,2.4-1.2,4.3-3.6,5.5c0.1,1,1.7,1.4,1.1,2.8c-0.6,1.5-1.9,1.7-2.8,2.4
		c-1.1-0.8,0.2-1.5-0.2-2.3c-1.5,0.7-1.2,2.3-1.8,3.5c-0.7,0.4-1-2.4-2-0.3c-0.7,0.4-1.5,0.8-2.3,1.3c-0.1,1.9,0.2,3.1,2.3,1.7
		c1.4,1.4,0.2,1.9-0.8,2.1c-0.8,0.2-1.7-0.1-2.6-0.2c-1.3,1.1-1.9,2.7-2.9,3.9c-0.4,0.6-0.8,1.2-1.2,1.7c0.6,0.7,1.3,0.5,1.9,0.5
		c-0.4,1.8-1.9,3-2.5,4.6c-0.8,0.5-1.2-1.2-1.9-0.5c-1,1.3,0.8,1.4,0.9,2.3c-1.7,2.4-2,5.5-2.8,8.5c1.5,1.2,2.7,0.1,3.8-0.3
		c0.7-0.7-0.1-1.5,0.6-2c2.8,1.5,0.5,2.6-0.1,3.5c-0.5,1.3,0.8,2.1,0.1,3.4c-1.3-0.4-1.4-3.4-3.8-2c-0.1,1.9,2,3.3,1.6,5.3
		c-0.9-0.3-1.9,0.2-2.5,0.4c-4.5,1.4-8.7-0.7-13.2-0.8c-0.6,0.8-1.2,1.7-1.9,2.6c-0.6-0.5-1-0.9-1.7-0.5c-0.7,0.4,0.3,1.4-0.7,1.8
		c-1.6-0.9-3-0.5-4.3,0.6c-0.9,0.6,0.2,2-1,2.4c-1.2-0.4,0-1.5-0.6-2.1c-4,1.2-6.4,4.8-10.1,6.3c-1.9,0.8-3.4,2.1-4.9,3.7
		c-1.5,1.6-3,3.5-4.9,4.8c-7.2,4.7-11.1,12-15.1,19.1c-1.3,2.4-2.4,4.7-4.4,5.3c-5.1,6.5-5.7,14.3-8.9,21.3c1.1,0.5,1.1,2.2,2.1,4.2
		c-1.5-0.6-2.6-0.1-2.6,0.9c-0.1,2.1-0.6,4.5,0.9,6.3c0.5,0.6,1.1,1,1,2c-0.4,3.9,0.9,7.5,2.2,9.9c7.2,7.6,14.2,14,22.6,18.3
		c0.9,0.5,0.1,1.8,1.5,2.4c1.1-0.7,2.4-1.3,3.2,0.4c1.2-0.4,1.9-2.3,3.3-0.9c0.5,1.4-1.9,1.1-1.3,2.6c2.1,1.1,4.2-0.9,6.3,0
		c0.2,0.4-0.3,0.9,0.4,1.1c3.1-0.8,6.3-1.3,8.9-0.8c3.1-2,5.5-3.8,8.8-3.9c1.7,0,3.3-0.1,3.2-2.5c5,2.5,6.1-3.4,9.5-4.1
		c0.5-1-0.4-2.1,0.6-2.8c1.4-0.2,0.5,1.8,2,1.8c1.4,0.4,1.9-1.1,2.8-1.9c-0.5-0.5-1.2-0.4-1-1.3c1.5-1,2.7-2.9,5-2.4
		c1.7-2.5-0.5-4.1-1.1-6.3c0.8,1.3,1.6,2.2,3,1.1c0.1,1.3,0.3,2.5,2.3,1.8c0.8-4.1,5.2-5.3,7.7-8.7c-1.4-1.2-2.1-3-3.9-4
		C727.2,164.9,728.2,163.6,729.3,162.8z M754,58.2c-1-0.3-2-0.6-2.4-1.8C753.3,56.2,753.8,57,754,58.2z M749.5,56.4
		c0,0.9-0.7,1.3-1.1,2C748.2,57.4,748,56.5,749.5,56.4z M745.4,51.9c0.2,1-0.1,1.7-0.6,2.6C744.8,53.5,744.8,52.7,745.4,51.9z
		 M732.6,77.8c-0.7-0.9-0.9-1.7-0.4-2.9C732.8,75.9,733.6,76.6,732.6,77.8z M733.2,53c0.6,0.5,1.2,1.1,1.3,2.1
		C732.3,55.3,733.1,53.9,733.2,53z M734.7,69.4c-0.9-2,0.7-3.4,0.6-5.3c2.1,1,0.2,2.4,0.8,3.3C735.1,67.6,735.4,68.9,734.7,69.4z
		 M736,60.5c0.7-0.7,1.2-0.7,1.9-0.3C737.5,61.9,736.8,61.3,736,60.5z M735.9,76.7c-0.6-2.1-0.2-3,0.6-3.8c0.2,0.1,0.5,0.2,0.7,0.3
		C736.8,74.1,736.4,75.1,735.9,76.7z M743.2,65c-1-0.3-1-1.1-1.4-2.3C743,63.4,743.9,63.8,743.2,65z M740.6,71.4
		c-0.2,0-0.3-0.3-0.5-0.4c0.2-0.8,0.5-1.6,1.8-2.1C742.5,70.5,742.3,71.4,740.6,71.4z M741.7,57.5c-0.8,1.4-0.8,1.4-2.3,0.3
		C740.2,57.5,740.7,56.7,741.7,57.5z M739.9,66.7c-0.6,1-0.7,2.5-2.3,3c-0.4,0.6-0.9,1-1.7,0.1c0.1-0.7,0.1-1.5,0.2-2.4
		c0.4,0.4,0.8,0.8,1.2,1.2c0.2-0.8-0.2-1.7,0.5-2.7C738.4,66.8,739.3,65.4,739.9,66.7z M738.4,40.6c0.4,1.6-0.2,2.6-1.2,3.4
		C737.8,43.1,737.4,41.7,738.4,40.6z M737.2,46.3c-1,0.9-1.1,2.2-2.3,2.1C735.3,47.6,735.8,46.8,737.2,46.3z M734.8,48.5
		c-0.3,0.7,0.1,1.7-1.4,2.6c1.4-2.5-1.7-1.7-1.6-3.4C733.3,46.2,733.8,48.5,734.8,48.5z M732.3,51.7c0.7,0.1,0.7,0.7,0.8,1.2
		c-0.4,0.1-0.8,0.1-1.2,0.2C731.8,52.5,731.7,52.1,732.3,51.7z M639,158.4c-0.1-1.7,0.4-2,1.6-1.3C640.5,157.9,640,158.1,639,158.4z
		 M728.9,151.2c-0.9-0.3-0.4-1-0.5-1.5c-0.1-0.3,0-0.4,0.3-0.3C729.1,149.9,729.6,150.4,728.9,151.2z M728.8,138.3
		c1-0.1,0.6-1,1-1.7c1,0.4,1.8,2.5,3.4,0.7C732,139.4,730.5,139.4,728.8,138.3z M714.2,92.7c-0.8,0.1-1.2-0.2-1.9-0.7
		c0.4-1.3,0.2-2.7,0.8-4c0.6,0.8,1.1,1.7,1.8,2.4c-0.2,0.1-0.4,0.1-0.7,0.1C713.6,91.4,714.4,92.1,714.2,92.7z M733.5,116.7
		c-0.2,1.2-1.2,1.3-1.9,1.7C731.7,117.4,731.6,116.2,733.5,116.7z M733.5,128.2c-2.6,0.3-2.1-1.3-2.4-3.4
		C732.7,125.9,731.4,128.3,733.5,128.2z M731,159.6c0.7-1.1,1.2-1.1,1.8-0.4C732.2,160.2,731.7,159.6,731,159.6z M734.1,157.8
		c-0.4-0.9-0.6-1.8,0.8-2.3C735.4,156.8,734.5,157.2,734.1,157.8z M732.4,150.6c1.1-1.8,1.1-1.8,2.8-0.8
		C734.4,150.9,733.4,150.5,732.4,150.6z M736.3,121.1c-0.4-1.5-0.6-2.5-0.8-3.4C736.5,118.5,736.4,119.4,736.3,121.1z M737.6,139.1
		c0.3-0.8,0.7-0.8,1.3-0.7C739.1,139.5,738.7,139.6,737.6,139.1z M740.6,126.7c-0.5-1.1,0.1-1.5,0.3-2.4
		C741.5,125.4,741.1,125.9,740.6,126.7z M742.3,135.4c0-0.9,0.4-1.2,0.9-1.3C743.5,134.9,743.2,135.2,742.3,135.4z M743.4,129.9
		c0.6-1.1,1.2-0.5,2-0.7C744.8,130.3,744.3,130.6,743.4,129.9z M744.3,125.3c1.6-0.4,1.8,0.8,2.5,1.2
		C745.4,127.4,745.4,125.9,744.3,125.3z M727.7,63.3c-0.5,0.7-1.4,1-2.3,0.9c0.1-1.1,2-1.6,1.2-3.1c0,0,0,0,0,0c0,0,0,0,0,0
		c0,0,0,0,0,0c0,0,0,0,0,0c-0.7,0.1-1.5,0.2-2-0.8c0-0.5-0.1-1.3-0.1-2c0.7,0.9,1.4,1.9,2.2,2.8C728.4,61,728.6,62,727.7,63.3z
		 M728,59.2c-1.5,0.2-2.3-1.2-3.6-1c0-0.1-0.1-0.2-0.2-0.3C725.7,57.4,726.9,57.7,728,59.2z M724.1,88c-0.3,0.1-0.6,0.1-0.9,0.2
		c-0.3-0.6-0.4-1.2,0.4-1.8C724.3,87,724.3,87.5,724.1,88z M723.7,75.6c-0.6,0.5-1,1-1.8,0.7C722.1,75.4,722.5,74.9,723.7,75.6z
		 M719.3,61.4c0.6,0.3,0.6,0.7,0.5,1.2c0.7,0.9,0.4,1.8-0.2,2.6c-0.7-0.5-0.9-1.2-0.9-1.9C718.1,62.4,718.2,61.7,719.3,61.4z
		 M719.5,75.3c-0.2,0.8-0.6,1.1-1.2,0.5C718.4,74.9,718.8,74.8,719.5,75.3z M688.9,91.1c1.4,0,1.9,0.7,1.8,2.5
		C689.5,92.8,688.7,92.4,688.9,91.1z M650.3,161.7c0.2,1.8-0.7,2.2-1.7,2.8C647.9,162.8,648.8,162.3,650.3,161.7z M646.7,155.1
		c-0.8,0.6-1.3,0.5-1.4-0.6C646.1,154.1,646.6,154,646.7,155.1z M645.2,159.8c1.3,0.7,0.2,1.7,0.5,2.4
		C645.1,161.6,644.4,161,645.2,159.8z M645.8,162.4c1.1,1.3,1.1,1.3-0.1,2.3C644.5,163.9,645.6,163.2,645.8,162.4z M645.8,167.4
		c0.5-2.1,1.7-1.5,2.8-0.9C647.8,167.5,646.5,165.9,645.8,167.4z M649.6,169c0.5-1.5,1.7-2.3,1.6-4.2C652.1,169,652.1,169,649.6,169
		z M652.9,169.8c0.9-0.5,1.6-0.9,2.5-1.4C655.3,169.9,654.6,170.3,652.9,169.8z M656.1,174.9c-1.1-1.2-0.5-2.4-0.3-3.4
		C657.1,172.5,657.5,173.6,656.1,174.9z M658.8,151.7c0.5-0.7,0.7-1.3,1.4-1.3C660.8,151.5,660.3,151.8,658.8,151.7z M679.2,185.3
		L679.2,185.3c0.9-0.7,1.3-0.3,1.4,0.8C679.6,186.3,679.4,185.9,679.2,185.3z M686.7,182c0.2-1.4-3.1-1.4-1.5-3.6
		C686.7,179.3,687,180.5,686.7,182z M699.1,186.2c1.3,0.9,2.8,1.6,2.8,3.5C699.2,187.7,699.2,187.7,699.1,186.2z M700.6,171.9
		c1.9,0.3,1.9,0.3,2.9,3.4C703.1,175.1,701.4,173.2,700.6,171.9z M708.2,165.3c0.8-1.2,2-1.1,3.2-1.2
		C710.6,165.3,709.4,165.4,708.2,165.3z M715.4,155.9c-1-0.6-0.3-1.6-0.9-2.6c0.7,0.3,1,0.5,1.3,0.6
		C715.9,154.6,715.9,155.3,715.4,155.9z M719.5,173.7c-0.9-1.1-0.1-1.2,0.4-1.6C720.8,173.2,720.3,173.4,719.5,173.7z M723.6,145.1
		c-0.8,1-1.5-0.3-2.3,0c-0.6,0.6-0.4,2.4-2.2,1.8c-0.6-0.7,0.6-1.1,0.3-1.8c-0.6-0.4-1.3,0.2-2,0c-0.3,1.7-1.2,3.5,0.7,5.1
		c0.5,0.5,0.4-0.8,1.6-0.4c0.2,0.1,0.7,0.6,1,1.7c-1.6,0.2-2.7,0.9-2.5,2.5c-0.9,0.5-1.5,0-2.2-0.1c0-0.9,0.2-1.8-0.6-2.6
		c-0.5,0.1-1,0.2-1.6,0.3c-0.4,1,0,2.3-1,3.2c0.7,1.7-0.2,3-0.8,4.6c-0.9-1.1-0.7-2.2-0.8-3.1c-1.1,0.4-2,1.1-3.3,1.2
		c0.2,0.9,0.4,1.5,0.5,2.2c-3.5,1.5-7.2,3-8.9,6.5c-1,2.1-3.2,2.3-4.3,4c-0.7,0-0.5-1-1.2-1.2c-2.1,2.5-5.3,3.3-8.1,4.9
		c-2.1,1.2-4.1,2-6.6,2.2c-1.8,0.1-3.9,0.8-4.4,3c-2.1,0.4-4-1.8-6.1,0.4c-0.6-1.3-2-1.1-3.3-0.7c-2.7-3.1-2.5-7.3-4.7-10.5
		c1.1-0.5,1.2,0.1,1.5,0.4c0.3,0.4,0.7,0.6,1.2,0.2c0.9-1.1-1-1.8-0.5-2.7c-0.4-1.6,2.4-2.4,0.9-4.2c0.3-0.6,1.2-0.1,1.5-0.8
		c-0.8-0.9-0.2-2.1-0.6-3.4c2-0.5,2.8-1.7,1.1-3.7c1.2-0.6,2.2-1.1,3.6-1.8c2.5-6,6.8-11.3,10.3-17.2c1.2-0.6,2-1.8,3-2.8
		c2.5-2.7,4.3-6,7.3-8.2c2.2-1.6,4.3-3.1,6.2-5.1c3.9-4.1,9.8-6,12.8-10.9c6.1,1.5,11.4-0.3,16.6-2.7c0.5,1.2-1.1,1.7-0.8,3
		c1.6-0.9,2.8-0.2,4,1c1.3,2.6,1.2,5.4,0.5,8.3c0.5,0.5,1.3,0.8,2,1c0.3,3.4-0.7,5-3.8,6c-0.2,1.4,1.3,1.4,1.8,2.3
		c-3.1,2.2-3.6,5.8-1.5,9.6c0.3,0.6,0.5,1.2,0.7,1.9c-1.2-0.8-2.8-1.1-4-2.4c-0.4,1.1-1,1.9-1.8,2.6c0.8,0.9,2.1-0.3,2.5,1.3
		c-1.2,0.4-2.5,0.8-4,1.2C722.2,142.5,723.7,143.4,723.6,145.1z M725.9,148.1c0.7,0.8,0.5,1.1-0.3,1.2
		C724.8,148.7,725.7,148.5,725.9,148.1z"/>
	<path class="st3" d="M802,72.4c-0.8,1-0.7,2-0.4,2.9C802.6,74.6,802.9,73.7,802,72.4z"/>
	<polygon class="st3" points="803.8,158.6 803.8,158.6 803.8,158.6 	"/>
	<path class="st3" d="M814.7,60c-0.6,1.1-1.1,1.8-1.7,3C814.9,62.7,815.1,61.8,814.7,60z"/>
	<path class="st3" d="M817.1,158.4c0.4,0.9,0.7,1.8,1.1,2.7C818.2,160,819.2,158.5,817.1,158.4z"/>
	<path class="st3" d="M817.1,158.4C817,158.4,817,158.4,817.1,158.4C817,158.4,817,158.4,817.1,158.4
		C817,158.4,817.1,158.4,817.1,158.4C817.1,158.4,817.1,158.4,817.1,158.4z"/>
	<path class="st2" d="M850,77.9c-0.2-4.2-1.3-7.8-6.2-8.8c0.1-1.7-1.4-2.7-2.1-4.1c-0.6-0.4-1.4,0.4-2-0.4c-0.1-0.9-0.1-2-0.2-3
		c-1.8,0.1-2.3-2.9-4.5-1.4c-0.4-3.1-3-2.4-4.6-3.3c-2.3-1.4-2.6,2.7-4.7,1.8c-1.4,2.6-1.8,5.8-4.7,7.2c0.1,1.4,0.2,2.7,0.3,4.1
		c-0.7,0.5-1.7-0.3-2.4,1c0.1,0.8,0.2,2,0.4,3.1c-1.2,0.8-1.5,2.7-3.3,3c-0.6-0.3-1.3-0.7-2-1.1c-0.7-0.4-1.4-0.9-2.3-0.9
		c-0.8,0.2-1.2,0.9-1.8,1.4c1.1,0,2,0.2,2.1,1.6c-0.8,1.1-1.8,0.5-2.7,0.3c-0.7,2.4-3.8,4.3-6.7,4c0.6,1.4,1.1,2.6,1.6,3.9
		c-0.8,2.6-0.8,2.6-2.5,2.9c-0.3-0.7,1.7-0.3,0.7-1.3c-1.6-0.4-2.1,1.8-3.5,1.6c-1-0.5-0.3-1.7-1.2-2.1c-1.6-0.3-2.5,0.8-3.1,1.9
		c-0.3,1,0.9,1.7,0,2.5c-2.7-0.5-3.5,3.1-6.6,3.1c1.4-4,1-8.2,3.4-11.9c-1-1.2-0.7-2.7-0.5-3.8c-0.4-0.9-1.2-0.6-1.6-1.1
		c0-0.9,0.6-2.4-0.6-2.6c-1.8-0.3-1.4-1.5-1.7-2.6c-0.8-0.4-1.7-0.7-2.1-0.9c-3.8-5-8.6-7.6-14.4-9c0,1.2-1,1.3-1.7,1.7
		c1.2,4.4-3.9,6.6-3.3,10.7c-0.8-0.1-1.4-0.1-1.6,1c-0.8,6.9-4.2,13.3-5.1,20.5c-0.4,5.9-2.3,11.6-3.5,17.2c-0.4,0.5-0.8-0.6-1.1,0
		c-0.4,2.9,0.4,5.8-0.2,8.4c-1,4.2-2.6,8.3-3.4,12.6c-1.1,6-2.9,11.7-5.4,17.3c-2.9,6.7-5.5,13.5-7.6,20.5c-0.4,1.2-0.7,2.6-1.5,3.5
		c-2.6,3-3,6.9-4.3,10.2c2.4,4.2,7.4,5.4,9.3,9c3.9,2.9,8.5,4,11.1,8.2c0.6,0.1,1.3,0.2,1.9,0.4c1.3,0.2,2.3-1,4-0.4
		c3-13.3,10-24.9,14.6-37.7c0.8,0.3,1.5-0.1,1.6-1.3c1-0.4,1.2-1,0.5-1.8c-0.9-0.2-1,0.3-1.1,1c-0.4-0.6-0.7-1.2,0-2.2
		c0.4-0.8,1.9,0.3,2.5-0.8c1.5-2.8,2.6-5.9,5.8-7.5c0.1-1.6,0.3-3.3,2.3-3.5c0.8-1.6-0.3-3.2,0-4.4c1.2-1.8,3.1-0.4,4.2-1.6
		c-0.2-0.8-1.4-0.5-1.5-1.6c2,0.4,1.6-3,4.1-2c-0.5-1.6,1-2.5,0.8-3.4c-0.2-1.1-1.5-1-1.1-2.1c1,0.1,1.9,0.3,2.9,0.4
		c0.6-1.4,1.1-2.7,1.6-3.9c3.8-1.7,4.7-6.5,8.8-8c-0.5-1-1.3-2-0.6-3.1c5.7,0.7,2.3,5.2,3.6,7.9c-0.7,0.2-1.4,0.5-2,0.7
		c1.5,5.3-0.9,10.3-1.1,15.8c0.9,1,1.7,2.3,0.6,4.3c-1.5,2.7-2.8,5.6-4.1,8.5c-0.1,0.3-0.1,0.7-0.1,1.1c0.6,0.6,1.1,1.3,1.7,1.9
		c-0.3,1.3-1.9,1.7-1.6,3.4c1.2,1,2.9,2.3,0.1,3.7c0.6,1,1.1,1.7,2.6,1.5c0.4,0.1,0.2-1.6,1.3-1.2c0.4,0.9-0.3,1.6-0.3,2.4
		c0,0,0,0-0.1,0c0,0,0,0,0,0c0,0,0,0,0,0c0,0,0,0,0,0c1.1,0,2.2-0.1,2-1.9c1.5,1.5,0.1,2.6,0.2,3.8c0,0,0,0-0.1,0c0,0,0,0,0,0
		c0,0,0,0,0.1,0c0,0,0,0,0-0.1c1.6-0.6,3.2-0.1,4.8-0.3c0-0.5-0.1-0.9-0.1-1.4c-1.7-0.6-0.3-4-3.2-3.3c1.2-3.7,2.9-6.8,3.2-10.3
		c1.4-0.1,0.9,1.4,1.6,1.9c0.8-0.4-0.1-2.1,1.5-1.8c1.2,0.8-0.7,1.3-0.3,1.9c0.2,1.2,1.8,1.1,2,2.3c-1.1,0.1-2.1-0.5-3.4,0
		c-0.9,2.3,0.5,4.6,0.5,6.9c1.2,1.2,2.5,2,4.2,1.9c-0.4-0.5-0.8-1.1-1.2-1.7c0.5-0.8,1-1.8,1.1-2.8c-0.7,0.1-1.4,0-1.3-1.1
		c1-0.6,1.4-0.3,1.5,0.8c0.4,0.5,0,1.4,0.9,1.6c1.2-0.9,0.5-2.7,1.6-3.6c1.2,2.7-0.2,5.6,0.5,8.8c0.4-0.9,0.5-1.3,0.8-1.8
		c0.7,0.9,1.1,1.4,1.7,2.3c0-4.6,3.4-8.8-0.6-13.1c1.3-0.2,2.5-0.4,3.2-1.7c-0.3-0.9-0.6-1.9-0.9-2.8c0.5-0.8,1-1.6,1.4-2.3
		c-0.3-1.1-0.4-2.2,0-3.5c0.5,0.6,0.9,1.1,1.3,1.7c1.4-3.8,2.8-7.6,4.1-11c-0.8-1.6-2.2-0.1-3-1.2c0.4-1.1,2-0.6,2.5-2.1
		c0-0.8,0.1-1.9,0.2-3.2c2.4-1.5,3.7-4,3.9-6.6c0.6-6.3,3.1-12.1,4.8-18c0.3-1.1-0.6-1.4-0.7-2.2c4.1-1.2,2.4-5.6,4.5-7.9
		c-0.4-0.6-0.6-1.1-0.9-1.5C844.9,90.4,846.5,83.7,850,77.9z M787.2,81.3c0.8-0.8,1.3-0.5,1.7,0.5C788.2,82.2,787.7,82.3,787.2,81.3
		z M791.6,122.7c-1.1-2-1.1-2,0.4-3.4C790.9,120.2,791.9,121.4,791.6,122.7z M790.9,100.5c-0.5-1.4,0.4-1.5,1.1-1.8
		C792.5,99.8,792.1,100.3,790.9,100.5z M806.2,86.8c0.1,1.6,0.4,3-1,3.9C805.8,89.6,803.9,87.9,806.2,86.8z M796.9,90.9
		c1.3,1.1,0.1,2.3,0.1,3.3c-0.5-0.2-1.1-0.2-1.5-0.8C795.5,92.4,795.9,91.5,796.9,90.9z M794.3,96.1c0.4-0.9,1.1-0.6,1.9-0.4
		C795.5,97.2,794.9,96.7,794.3,96.1z M796.3,119.6c-0.7-0.9,0-1.3,0.9-2.1C797.2,118.6,796.7,119,796.3,119.6z M797.3,97.6
		c-0.6-1.1-0.1-2.3-0.3-3.4c1.6,0.4,1.5,2.3,2.8,2.8C798.9,98.3,798.1,98.2,797.3,97.6z M799.8,110.5c-0.8-1.1-2-1.9-1.9-3.7
		C800.1,107.5,800.3,108.9,799.8,110.5z M799.9,122.7c-1.2-1.6,1.1-2.6,0-4C801.9,120.2,801.9,120.2,799.9,122.7z M803.1,116.6
		c-1.3-0.9-3,0.5-4.6-1.2c1.5-0.4,3,0.9,3.7-0.8C802.7,115.3,803.2,115.6,803.1,116.6z M802.6,103c1.3,0.6,1.3,0.6,1.8,2.4
		C803.3,104.9,802.9,104.1,802.6,103z M806.2,118.7c-0.5-0.5-1-1-1-1.9C806.9,117,805.9,118.1,806.2,118.7z M805.3,92.3
		c-0.7-0.4-0.4-1-0.2-1.5c0.5,0.3,1,0.6,1.5,0.8C806.3,92.1,805.8,92.3,805.3,92.3z M803.7,162.2c1.1-0.2,1.5,0.3,1.5,1.6
		C803.6,164,803.3,163.5,803.7,162.2z M805.8,154.5c-1.6-0.8,1.8-3.3-1.1-3.6c0.9-0.1,1.8-0.3,3.2-0.5
		C806.5,151.7,806.9,153.3,805.8,154.5z M811,140.6c-1-1.2-0.6-1.8,0.7-2.3C812.2,139.3,811.6,139.8,811,140.6z M810.5,85.2
		c-1-1-0.5-2,0-3.2c1.1,0.7,2,1.3,2.3,2.4C812.3,85.6,811.5,85.4,810.5,85.2z M815.4,81.1c-0.7-0.6-1.2-1-0.9-1.8
		c0.8-0.1,1.1,0.4,1.4,1C815.8,80.5,815.7,80.7,815.4,81.1z"/>
	<path class="st3" d="M817.3,171.6c-2.4-0.6-2.5-2.2-2.5-4.1c-1.8-0.4-3.2-1.7-4.6-2.4c-0.6-1.2,0.1-2,0.3-2.9
		c-0.8-0.1-1.6,0-2.1,0.4c-1.3-0.5-1.8-1.4-2.5-2.1c-0.7-0.7-1.9-0.8-2.2-1.9c-1.4-0.1-1.4,1.7-2.3,1.9c-0.9-0.1-1-1.3-2.1-0.8
		c-1.2,0.9-1.4,2.4-1.8,3.9c1,2,1.9,4,2.9,5.9c3.8,0.5,5.8,4.9,10.1,4.3c0.4,1,0.6,2.1,1.9,2.9c2.5,0.5,5-0.4,7.6-2.1
		C818.7,173.9,818.7,171.9,817.3,171.6z"/>
	<path class="st1" d="M336.8,190.7c-4.4-2.5-9.7-3.8-15.9-3.8c-6.2,0-11.4,1.3-15.8,3.8c-4.4,2.5-7.8,6.1-10.1,10.8
		c-2.3,4.7-3.5,10.4-3.5,17.2v63.3c0,6.7,1.2,12.4,3.5,17.1c2.3,4.8,5.7,8.4,10.1,10.9c4.4,2.5,9.7,3.7,15.8,3.7
		c6.3,0,11.6-1.3,15.9-3.8c4.4-2.5,7.7-6.1,10-10.8c2.3-4.7,3.4-10.4,3.5-17.2v-7.6h-19v7.6c0,4.2-0.9,7.4-2.7,9.7
		c-1.8,2.3-4.4,3.5-7.8,3.5c-3.3,0-5.9-1.1-7.7-3.4c-1.8-2.3-2.7-5.5-2.7-9.7v-63.3c0-4.2,0.9-7.5,2.7-9.7c1.8-2.3,4.4-3.4,7.7-3.4
		c2.3,0,4.2,0.5,5.7,1.6c1.5,1.1,2.7,2.6,3.5,4.5c0.8,1.9,1.2,4.3,1.2,7.1v7.6h19v-7.6c0-6.7-1.2-12.5-3.5-17.2
		C344.5,196.8,341.2,193.2,336.8,190.7z"/>
	<polygon class="st1" points="450.3,188.2 431.5,188.2 431.5,312.5 440.3,312.5 450.3,312.5 484.1,312.5 484.1,294.7 450.3,294.7 	
		"/>
	<path class="st1" d="M589.4,284.1c0,3.6-0.9,6.3-2.7,8.2c-1.8,1.9-4.3,2.9-7.7,2.9c-3.2,0-5.7-1-7.5-2.9c-1.8-1.9-2.7-4.7-2.7-8.2
		v-95.9H550v95.3c0,9.7,2.5,17.2,7.6,22.4c5,5.2,12.2,7.9,21.4,7.9c9.3,0,16.5-2.6,21.5-7.9c5.1-5.2,7.6-12.7,7.6-22.4v-95.3h-18.8
		V284.1z"/>
	<path class="st1" d="M668.5,256.5c4.7-2.3,8.3-5.6,10.9-9.9c2.5-4.3,3.8-9.6,3.8-15.7v-14.5c0-6-1.3-11.1-3.8-15.3
		c-2.5-4.2-6.1-7.4-10.9-9.6c-4.7-2.2-10.4-3.3-17.1-3.3H640h-10h-8.5v124.4H640V260h10.5l15.8,52.6h20.3l-18.4-55.9
		C668.2,256.6,668.4,256.6,668.5,256.5z M640,206h12.7c3.6,0,6.4,1,8.4,3.1c2,2.1,3,5,3,8.7v13.3c-0.1,3.5-1.1,6.2-3,8.1
		c-2,1.9-4.7,2.9-8.3,2.9H640V206z"/>
	<path class="st1" d="M719.5,188.2l-29.2,124.3h19.2l4.5-23.3h25.9l4.5,23.3h19.2l-29.2-124.3H719.5z M717.4,271.8l9.6-49.4
		l9.6,49.4H717.4z"/>
	<polygon class="st1" points="792.5,294.7 792.5,188.2 773.7,188.2 773.7,312.5 782.5,312.5 792.5,312.5 826.4,312.5 826.4,294.7 	
		"/>
	<path class="st2" d="M629.1,157.9c2.5-6.7,5.7-13.2,6-20.8c1.3-0.5,2.5-1.3,2.9-2.8c0.2-1.6-0.8-2.9,0-4.2
		c5.6-12.9,7.4-27.1,12.5-40.4c-0.4-0.6-0.9-1.5-1.3-2.3c-1.3-0.2-2.4-0.6-2.9-1.2c-0.7-1.1,0.2-2-0.7-2.5
		c-5.8-4.6-11.7-9.2-19-10.3c-5.2,11.8-8.9,23.7-11.7,36.8c-2.3,2.2-1.7,6.2-2.8,9.6c-0.6,1.9-2.5,3.7-1.6,6c0.6-0.1,1.3-0.2,2-0.3
		c0.2,1.4-0.9,1.7-1.8,2c0.5,2.4-1.8,1.8-2.6,2.6c-0.6,4.7-2.2,9.2-3.7,13.4c-1.4,3.8-1.4,7.2-1.1,10.9c-0.6,0.2-1.1-1-1.7-0.4
		c-2.8,2.6,1.2,4.9,0.3,7.6c-1.2-0.4-2.5-0.9-3.1,0.5c-1.1,4,2,4.3,4.4,5.3c0.2-0.7,0.4-1.5,1.5-1.5c0.3,0.9-0.2,1.7-0.4,2.6
		c0.1,0.3,0.1,0.6,0.2,0.9c0.1,1.7,1.8,2.7,2,4.3c-2.1-0.6-3.2-1.7-2.3-3.9c-0.7,0.4-1.5,0.8-2.2,1.2c-1.9-1-3.6-0.9-5,0.8
		c0.4,0.9,1,1.2,1.6,1.5c-0.1,1.9-2.4,1-2.8,1.8c-0.4,1.6,1,2.3,0.6,3.4c-0.5,0.7-1.6,0.4-2.1,1.4c0.1,0.6,0.2,1.4,0.3,2.5
		c1.5-0.7,2.4,0.5,3.5,0.9c0.3-0.6,0.6-1.2,0.9-1.7c1,0,1.2,0.6,1.5,1.1c-0.4,1-1.1,1.3-1.9,1.3c0,1.9-2.3,1.3-2.6,2.6
		c-1.7,0.2-2.9-0.2-3.8-1.5c-0.4,0.8-1.4,0.7-2.1,1.5c1.9,2-0.7,3-1.2,4.3c3.4,7.2,11.3,6.4,16.4,10.2c1.6-1.3,3.3-1.6,4.8-2.4
		c-0.7-0.9-1.3-1.7-1.7-2.3c-1-0.5-1.8,1.2-2.8-0.1c0.8-1.1,0.8-2.5,1-4.1c0.7,0.7,0.3,1.5,1.1,1.8c1-0.4,0.7-2,2-2.2
		c0.5,0.2,1.1,0.4,1.6,0.6c1.3-0.3,1.7-1.9,3.2-1.7c1-0.2,0.6,1.5,1.7,1.4c1-0.7,1.9-1.5,2.4-2.8c-0.2-1.3-0.7-2.5-0.2-3.8
		c0.4-1,1.9-0.3,2.3-1.5c0.5-0.7-0.9-0.9-0.7-1.7c1-1,2.3-1.8,2.9-3.3c0-0.9-1.4-0.9-1.1-1.8c2.9-3.7,3.4-8.2,5-12.3
		c0.3-0.6,1.3-0.2,1.7-1.5C627.5,161.7,629.8,159.9,629.1,157.9z M605.6,156.1c-1.8-1.4-0.2-1.5,0.6-2.1
		C606.5,155.1,605.8,155.4,605.6,156.1z M602.2,176.1c1,1.1,0.7,1.9-0.2,2.6c-0.1-1-1.4-1.1-1.5-2
		C600.9,175.8,601.6,176,602.2,176.1z M600,180.5c0.1-1.3,1.3-1.1,1.9-1.7c0.1,1.1,0.2,2.3,2.1,2.8
		C601.8,182.5,600.9,181.5,600,180.5z M604.1,191.7c0.8-3.2-1.4-4.1-2.7-5.5c1.1-1,2.1,1,3.2-0.4c-0.3,2.3,0.7,3.5,2.8,3.9
		C606.2,189.7,605.7,190.7,604.1,191.7z M611.3,153.1c-0.8-0.2-1.3-0.7-1.4-1.5C611,151.6,611.4,152,611.3,153.1z M615.7,155
		c0.6-0.2,0.9,0.1,1.1,0.5c0.8,1.2,0.5,2-1,2.4C615.1,156.6,615.2,155.8,615.7,155z M617.8,166.4c-0.9,0.1-1.8,0.1-2.7,0.2
		C615.7,165.1,616.8,166.2,617.8,166.4z M615,166.8c-0.1,0.9,0.8,1.4,1,2.3C614.2,168.8,614.6,167.8,615,166.8z M613,176.5
		c0.4-1.1,1.2-0.7,1.8-0.7c0.6,0,1.1-0.1,1.9-0.1c0.2,0.9,0.1,1.8-0.5,2.9C614.7,178.2,613.4,178,613,176.5z M616.7,181.3
		c-0.6-0.8-0.4-1.2,0.7-1.2C618,180.9,617.6,181.3,616.7,181.3z M617.7,169.4c0.8-1.5,1.2-1.1,1.6-0.4
		C619,169.8,618.5,169.5,617.7,169.4z M619.3,172.5c1.5-0.2,1.8,0.7,2.6,2.2C619.8,174.7,619.2,174.1,619.3,172.5z M620.2,166.1
		c0.9,0.6,2-0.4,2.6,1.2C621.5,167.7,620.8,167.3,620.2,166.1z M621.8,153.8c-0.7-1.4,0-1.4,1.2-1.3
		C622.9,153.7,622.4,153.9,621.8,153.8z"/>
</g>
<g>
	<g>
		<g>
			<g>
				<path class="st4" d="M140,194.9c2.3,1.4,8.5,0.6,10.5-1.5c0.5-0.5,0.8-1.3,0.9-1.5c2.1-4.8,0.8-9-3.1-11.3
					c-0.6-0.4-1.3-0.7-1.9-1c-5.5-2.8-8.8-1.1-10,5.3C135.4,189.2,136.7,192.8,140,194.9z M147.5,184.9c0.6,0.6,0.8,1.6,1.2,2.5
					c-0.8,0.1-1.7,0.6-2.3,0.3c-0.6-0.3-0.8-1.3-1.6-2.6C146.2,185,147.2,184.6,147.5,184.9z M143.7,188.6c0.4,0,0.9,1.3,1.7,2.7
					c-1.6,0.6-2.8,1.5-3.3,1.1c-0.8-0.5-1.2-1.9-1.8-2.9C141.5,189.1,142.6,188.6,143.7,188.6z M139.1,181.1
					c1.1,0.8,2.1,1.5,3.2,2.3c-0.7,0.7-1.4,1.5-2.1,2.2c-0.7-1.1-1.5-2.2-2.2-3.2C138.3,181.9,138.7,181.5,139.1,181.1z"/>
			</g>
		</g>
		<g>
			<g>
				<path class="st4" d="M118.5,319.2c3.2,2.4,6.7,1.7,9.5-0.7c2-1.7,3.7-4.1,5.1-6.5c1.5-2.6,0.6-6.4-1.8-8.7
					c-2-1.9-4.3-3.6-6.4-5.3c-5.2-2.6-12-1.1-15,3.5c-2,3.1-1.9,7.7,0.7,10.7C112.9,314.8,115.7,317.1,118.5,319.2z M126.1,306.6
					c0.3-0.7,2.5-1.3,2.9-0.9c0.9,0.9,1.1,2.5,1.6,3.9c-1,0.4-2.1,0.8-3.9,1.4C126.3,309,125.7,307.5,126.1,306.6z M113.7,300.9
					c1-0.8,2.6-1,3.9-0.9c0.3,0,1.1,2.6,0.7,3.1c-0.8,1-2.3,1.5-3.4,2.2c-0.3-0.2-0.7-0.4-1-0.6
					C113.8,303.3,113.2,301.3,113.7,300.9z M114.6,309.3c0.3-0.5,1.5-0.9,2-0.6c2.4,1.4,4.8,2.7,7,4.5c1.4,1.2,0.7,2.8-0.8,3.4
					c-1.1,0.4-2.4,0-3.7,0c-1.5-1.7-3-3.3-4.3-5C114.3,311.1,114.3,309.9,114.6,309.3z"/>
			</g>
		</g>
		<g>
			<path class="st4" d="M43.2,210.8c2.3-0.9,2.6-2,0.8-3.6l-9.2,1.7C37.4,211.6,39.7,212.1,43.2,210.8z"/>
		</g>
		<g>
			<path class="st4" d="M54.5,292.5c5-4.6,3.6-14.5-2.5-17.7c-8.6-4.6-17.3-9.1-25.9-13.6c0.2,1.2,0.5,2.4,0.7,3.6
				c1.6,8,3.7,16,5.7,23.9c1.4,5.2,2.7,10.4,4.7,15.4c0.1,0.3,0.2,0.5,0.3,0.8c2.1-1.5,4.2-2.8,6.3-4.3
				C47.5,298,51.2,295.5,54.5,292.5z"/>
		</g>
		<g>
			<path class="st4" d="M227.4,259.5c0.9,2.3,2,4.5,2.9,6.7c0.8-2.4,1.6-4.8,2.4-7.2C231.1,259.2,229.4,259.4,227.4,259.5z"/>
		</g>
		<g>
			<path class="st4" d="M224.8,263.4c-0.3-0.5-1.5-1-1.9-0.7c-1.4,0.9-2.7,2.1-4.5,3.6c1.1,0.9,1.9,1.5,2.7,2
				c2.6,1.7,4.6,3.9,5.9,6.4c0.1-0.3,0.2-0.5,0.3-0.8c0.3-0.8,0.7-1.6,1-2.5c-0.2-0.6-0.4-1.2-0.7-1.8
				C226.9,267.4,225.9,265.4,224.8,263.4z"/>
		</g>
		<g>
			<path class="st4" d="M233.3,257.4c0.2-0.6,0.4-1.1,0.5-1.7c0.9-2.8,1.7-5.6,2.5-8.4c-2.4,2.7-4.7,5.5-7.3,8.3
				C230.6,256.3,232,256.8,233.3,257.4z"/>
		</g>
		<g>
			<path class="st4" d="M236.4,218.8c-1.6,3-1.2,5.7,1.3,9c1.1,1.5,2.2,2.9,3.2,4.5c0.2-0.6,0.3-1.1,0.5-1.7
				c0.9-3.7,1.2-7.6,2.1-11.3c0.3-1.3,0.6-2.6,1-3.9C241.3,214.7,237.8,216.2,236.4,218.8z"/>
		</g>
		<g>
			<path class="st4" d="M213.8,281.2c0,2.3,1.3,4.2,3.2,4.3c2,0.1,3.5-1.7,3.4-4.2c-0.1-2.2-0.6-4.1-3.2-4
				C214.9,277.2,213.8,278.4,213.8,281.2z"/>
		</g>
		<g>
			<path class="st4" d="M222.1,285.7c-1.2,1.8-3,3-4.7,2.8c-3.5-0.2-6.8-4.7-6.6-9c0.1-3.5,2.8-6.1,6-5.8c4.9,0.1,6.8,4.1,6.8,7.4
				c0,0.9-0.2,1.8-0.5,2.7c0.9-1.8,1.7-3.6,2.5-5.5c-2.1-7.2-8.8-10-14.9-6.2c-2.3,1.4-3.4,3.6-3.3,6.1c-0.1,6.5,3.9,11.9,9.4,13.1
				c0.8,0.2,1.6,0.2,2.3,0c0.1-0.2,0.3-0.4,0.4-0.7C220.4,289,221.2,287.3,222.1,285.7z"/>
		</g>
		<g>
			<path class="st4" d="M134.7,341.5c5.3-6.3,8.3-13.6,8.5-22.2c0.1-2.7-0.6-5.5-1.4-8.2c-0.3-1.1-1.6-1.8-2.5-2.7
				c-0.7,0.9-1.8,1.6-2.2,2.6c-1.4,3.9-3.8,6.9-6.9,9.3c-4.1,3.3-8.5,3.9-13.1,1.1c-4.8-2.9-9.8-5.9-11-12.5
				c-0.4-2.2,0.2-4.5,0.3-6.8c-5.5-2.1-12.6,3.4-11.9,10c0.9,8.3,3.5,16,6.9,23.3c1.5,3.1,3.1,6.2,4.8,9.2
				C115.9,344.2,125.3,343.1,134.7,341.5z"/>
		</g>
		<g>
			<g>
				<path class="st4" d="M105.2,264.9c-0.1,0-0.2-0.1-0.3-0.1c-1,3-2.2,5.9-3,9c-0.3,1,0.5,2.3,0.8,3.5c0.8-0.7,2-1.2,2.4-2.2
					c2.3-5.7,4.5-11.4,6.6-17.1c2.2-5.9,0.6-9.4-5.2-10.8c-8.4-1.9-7.5-4.2-6-10.9c1.1-5,2.5-9.9,3.8-14.8c0.9-3.3,3.1-5.4,6.6-4.5
					c1.9,0.5,3.9,0.3,5.9,0.6c5.7,0.9,9.2-1.1,11.6-6.7c1-2.5,1.9-5,2.7-7.6c0.2-0.7-0.2-1.6-0.3-2.4c-0.7,0.2-1.5,0.1-1.9,0.6
					c-1.3,1.5-2.6,3.2-3.6,4.9c-3.5,6-13.2,7-17.6,1.8c-2.2-2.5-1.6-8.9,1.1-11.1c1.9-1.4,4.1-2.3,6.1-3.5c1.7-1,3.5-1.9,5.1-3.1
					c4-3.1,3.9-9-0.3-11.9c-2.6-1.8-5.4-3.1-8.2-4.6c-2.1-1.1-3.9-0.1-5.3,1.6c-3.5,4.1-4.2,9.2-4.2,14.6c0,3.9-0.3,7.6-3,10.5
					c-1.7,1.8-3.5,2.3-5.8,1c-3.6-1.9-6.1-4.9-8.2-8.4c-1.4-2.4-1.6-5-0.5-7.6c1.1-2.6,2.4-5.1,3.7-7.7c0.7-1.4,1.2-2.7-0.2-3.9
					c-1.4-1.2-3.1-1.3-4.1,0.3c-2.8,4.7-5.9,9.4-5.7,15.3c0.1,2.5,1.1,5.6,2.7,7.4c4,4.4,8.4,8.3,12.9,12c2.4,2,3.6,4.2,2.7,7.2
					c-1.6,5.7-3.4,11.4-5.3,17c-0.8,2.4-2.6,3.2-5,2.5c-2.9-0.9-6-1.5-8.9-2.1c-3.8-0.8-5.9,0.8-6.9,4.8c-0.8,3.1-1.8,6.1-2.5,9.2
					c-0.2,0.8,0.4,1.9,0.6,2.8c0.8-0.5,2-0.7,2.4-1.5c1-1.9,1.6-4.1,2.6-6c0.5-0.9,1.3-2,2.2-2.3c5-1.7,9.8-1.6,14.1,2.7
					c1.4,1.4,1.8,2.8,1.2,4.6c-1.7,5.2-3.2,10.5-5.1,15.6c-0.8,2.2-0.4,3.5,1.2,4.8c1.2,1,2.3,1.3,3.1-0.4c1.3-2.8,2.9-5.5,3.8-8.5
					c2.1-6.9,5.4-8.4,11.2-5.9c1.9,0.8,2.7,2.3,2.2,4.4C106.9,260.4,106,262.6,105.2,264.9z M118.6,181c1.3,0.7,2.5,2.4,1.2,4.1
					c-0.6,0.8-2.4,1.7-2.9,1.3c-0.9-0.7-1.3-2.3-2.2-4.2C116.6,181.6,117.9,180.6,118.6,181z M111,176.5c0.7,0.4,1.2,2.4,0.9,3.3
					c-0.5,1.6-1.9,2.6-3.6,1.6c-0.7-0.4-1-1.5-1.2-1.9C108.2,177.2,109.1,175.3,111,176.5z M107.2,187.3c1.3-0.9,3.2-1.4,4.5-1
					c0.9,0.3,1.9,2.6,1.8,3.9c-0.1,1.6-3.3,2.1-5.6,1.3C107.6,190,106.8,187.6,107.2,187.3z"/>
			</g>
		</g>
		<g>
			<path class="st4" d="M116.2,270.2c2.1-5,4.9-6.8,9.1-6.5c2.5,0.2,5,0.5,7.5,0.6c3.6,0.2,7.5-2.9,8-6.7c0.1-0.8-0.9-2.3-1.7-2.7
				c-2-1.1-4.2-1.7-6.2-2.8c-6.1-3.2-8.1-7.6-7-14.8c0.3-1.8,0.9-3.6,1.1-5.4c0.1-0.9-0.4-2-0.6-3c-0.9,0.5-2.3,0.7-2.7,1.6
				c-1.3,2.9-2.5,6-3.4,9.1c-2.6,8.5-5,17.1-7.7,25.6c-1.3,4.2-3.2,8.2-4.7,12.3c-0.4,1-0.1,2.4-0.1,3.6c1.1-0.6,2.6-0.8,3.3-1.8
				C113.1,276.2,114.8,272.7,116.2,270.2z"/>
		</g>
		<g>
			<path class="st4" d="M47.8,207.4c0.1,0.1,0.5,0,0.8,0L47.8,207.4z"/>
		</g>
		<g>
			<g>
				<path class="st4" d="M20.1,225.1c0.3,2.4,0.6,4.7,1,7c0.9,6.5,2,13,3.2,19.5c0.6-0.7,1.3-1.5,2.1-2.5c2.6-3.2,5-6.5,7.5-9.7
					c1.1-1.4,1.1-2.5-0.3-3.6C29.1,232.2,24.7,228.6,20.1,225.1z M26.9,234.8c0.7,0.4,1.3,2.5,1,3c-0.6,0.9-2,1.4-3,1.3
					c-0.5,0-0.9-1.8-1.7-3.6C25,235.1,26.3,234.4,26.9,234.8z"/>
			</g>
		</g>
		<g>
			<g>
				<path class="st4" d="M77.9,267.5c-4.7-0.4-8.3,1.9-10.2,6.2c-2.7,6.1-0.9,11.2,5,13.6c1.4,0.6,2.9,1.1,4.4,1.5
					c3.6,0.9,6.9,0.4,9.2-2.8c2.3-3.3,2.7-7.2,1.3-11C85.8,270.3,82.4,267.9,77.9,267.5z M71.5,283c-1.9-0.6-2.1-2.5-1.4-4.3
					c0.7-1.8,2.2-1.5,3.3-0.6c0.8,0.6,1.2,1.9,2.1,3.6C73.6,282.3,72.4,283.3,71.5,283z M83,283.8c-0.4,1.8-1.5,3.1-4.5,1.6
					c-0.1-0.7-0.9-2.2-0.5-3.3c0.6-1.9,2.4-2.8,4.1-1.9C82.8,280.7,83.2,282.7,83,283.8z M84.4,276.6c-0.3,0.7-1.8,1.2-2.7,1.1
					c-1.6-0.2-3.1-0.8-4.2-1.1c-0.9-0.6-1.5-0.8-1.8-1.2c-0.6-0.7-1.5-1.6-1.4-2.2c0.1-0.6,1.2-1.3,2-1.5c2.7-0.7,5.2-0.2,7.2,2
					C84.1,274.3,84.7,275.8,84.4,276.6z"/>
			</g>
		</g>
		<g>
			<path class="st4" d="M35.1,221.3c1.3,1.9,2.5,3.7,3.9,5.7C40.1,223.2,38.7,221.2,35.1,221.3z"/>
		</g>
		<g>
			<path class="st4" d="M29.9,227.1c1.8,2.7,4.2,3.3,7.8,2c-1.3-1.9-2.6-3.7-4.2-5.9C32.5,224.3,31.2,225.7,29.9,227.1z"/>
		</g>
		<g>
			<path class="st4" d="M53.6,215.2c2.3,1.2,4.5,2.3,6.8,3.5c2.2,1.2,6.7-0.7,7.3-3.3c0.1-0.6-0.5-2-1-2.1
				c-4.8-1.5-9.6-2.8-14.4-4.1c-0.4-0.1-1.3,0.3-1.3,0.5c-0.1,1.1-0.3,2.4,0.2,3.3c0.4,1,1.5,1.6,2.3,2.3
				C53.5,215.3,53.6,215.2,53.6,215.2z"/>
		</g>
		<g>
			<g>
				<path class="st4" d="M64.1,315.5c4.9-0.3,9.9,0.8,14.9,1.5c4.1,0.6,5.5-0.4,6.3-4.8c0.2-1,0.3-1.9,0.5-2.9
					c1-5.5,0.5-6.3-4.4-8.2c-4.2-1.6-8.4-3-12.5-4.8c-2.2-1-3.2-0.4-4.2,1.7c-3.9,7.7-9.5,13.6-15.7,19c-0.7,0.7-2.1,1.3-2.9,1
					c-0.9-0.3-1.7-0.6-2.6-1c0.3,0.6,0.7,1.2,1,1.8c2.4,4.3,4.8,8.7,7.9,12.4c5.1,6.2,11.4,10.7,18.9,12.7c-0.5-1-1.4-1.7-2.1-2.6
					c-3.3-4.4-6.9-8.5-10-13.1C55.8,323,58.5,315.8,64.1,315.5z M75.2,304.6c1,0.1,2.2-0.1,3.1,0.4c0.6,0.3,0.7,1.7,1,2.5
					c-0.9,0.2-1.9,0.9-2.5,0.6c-0.9-0.5-1.4-1.7-2-2.6C74.9,305.2,75,304.9,75.2,304.6z"/>
			</g>
		</g>
		<g>
			<g>
				<path class="st4" d="M29.6,93.2c-2.4-3.7-4.7-7.7-7.3-11.3C18.4,76.4,8,75.7,5.2,83.7c-1.8,4.9-3.8,10.2-3.7,15.3
					C1.6,111,2.6,123.2,4,135.2c1,8.7,3.1,17.4,5,25.9c1.7,7.3,4.5,14.3,5.7,21.6c2,12.8,3.3,25.7,5,38.6c2.1,1.5,4.2,2.9,6.4,4.2
					c0.6,0.4,2,0.1,2.6-0.4c1.5-1.5,2.7-3.3,4-5c3.4-4.9,3.4-6.6-0.9-10.8l3.1-0.6c-0.4-0.4-0.7-0.8-1.1-1.3l10.3-0.4c0,0,0,0,0,0
					l7.5-1.4c3.5,0.8,6.8,1.3,9.9,2.4c3.1,1.1,6.1,2.9,9.2,4.3c2,0.9,1.9,2,0.6,3.4c-1.7,1.8-3.3,3.8-5.1,5.5
					c-2,1.9-4.2,1.6-6.5,0.2c-2.5-1.6-5.1-2.9-7.6-4.5c-1.2-0.8-2.1-2.1-3.2-3.1c-0.6-0.5-1.3-1.4-1.8-1.3c-3,0.7-6.1,1.6-9,2.6
					c-0.7,0.3-1.2,1.5-1.8,2.2c0.8,0.4,1.7,0.8,2.5,1.2c1.5,0.6,3.1,1.1,4.6,1.9c0.2,0.1,0.2,1.9-0.1,2c-1.6,0.6-1.5,1.9-1.4,3.3
					c0.2,2.8-0.3,5.1-3.6,5.1c-0.8,0-1.6,0.9-2.4,1.4c2.7,6.1,2.6,6.1-1.4,11.2c-3.2,3.9-6.2,8-9.4,12.2c0.1,0.6,0.2,1.2,0.3,1.7
					c1.1,0.7,2.3,1.5,3.5,2.1c8.4,4,16.9,8,25.4,11.9c2.5,1.2,4.2,3.1,5.1,5.8c0.8,2.4,1.3,4.9,1.8,7.4c0.6,2.9-0.3,5.7-2.3,7.3
					c-4.7,3.9-9.6,7.6-14.4,11.2c-1.4,1-3,1.6-4.4,2.7c-0.6,0.5-1,1-1.3,1.6c0.6,1.4,1.3,2.8,2,4.2c1.4,1,3.1,1.7,4.6,2.7
					c1.4,1,2.5,0.6,3.6-0.6c5.5-6.1,11.6-11.7,15.2-19.5c0.8-1.8,2-2.2,3.7-1.4c2.9,1.3,5.9,2.4,8.9,3.6c3.1,1.2,6.3,2.3,9.4,3.8
					c0.9,0.5,2.1,2,2.1,3c-0.2,3.6-0.5,7.2-1.4,10.6c-1.7,5.8-3.7,6.8-9.2,6c-4.2-0.6-8.4-1.1-12.6-1.5c-3.8-0.3-5,3.6-3.8,6.4
					c3,6.6,7,12.3,12.1,15.7c0.4,1.3,0.7,2.7,1,3.9c0.8,0.1,1.7,0.2,2.5,0.3c8.2,0.7,16.5,0.4,24.8,0.1c0.3,0,0.6,0,0.9,0
					c-5.7-10.3-9.3-21.5-10.3-33.8c-0.4-4.9,1-8.1,5.2-10c2.4-1.1,5.1-1.6,7.6-2.5c2.3-0.8,4.5-1.6,6.7-2.6
					c3.5-1.4,6.9-4.1,10.7-2.2c4.8,2.3,9.6,5.1,12.8,10.1c0.5,0.8,1.1,1.5,1.6,2.2c4.6-2.4,6-1.8,8.1,3.5c1.5,3.8,2.3,7.6,1.1,11.6
					c-0.6,2-0.9,4.2-1.1,6.3c-0.3,5.3-2.4,9.5-5.3,13.2c2.3-0.4,4.7-0.8,7-1.3c4.1-0.8,8-2.2,12-3c10.9-2,20.3-7.2,29.1-13.4
					c3.9-2.8,7.9-5.5,11.6-8.5c-0.7-0.6-1.4-1.3-2.1-1.9c-2.6-2.3-5.2-4.6-7.3-6.4c-3,2.8-5.4,5.4-8.2,7.3c-2.9,2.1-6,1.4-8.7-1.1
					c-4.7-4.3-4.6-10-4-15.6c1.1-9.8,7-16.8,12.2-24.7c-3.9-2.6-6.2-7.9-11.7-8.8c-2.4-0.4-4.6-1.5-7-2c-2.5-0.5-5-0.9-7.5-0.9
					c-2.7,0-4.7,2.4-5.3,5.6c-0.5,2.9,1,4.6,3.2,5.8c1.5,0.8,2.9,1.5,4.3,2.4c3.7,2.3,7.2,5.3,7.3,10.3c0.2,9.7-2.9,18.4-7.9,26.3
					c-1.6,2.5-3.7,3.1-6.4,2.1c-2.6-1-3.5-2.9-3.7-5.8c-0.2-2.8,0.3-5,1.8-7.3c5.4-8.2,5.3-9.8-0.6-16.3c-0.3-0.4-0.7-0.7-1-1
					c-3.3-2.9-4.3-2.7-6.9,1c-2.6,3.7-5.3,7.2-8,10.7c-0.5,0.6-1.8,1.1-2.6,0.9c-3.5-1.1-5-4.8-3.4-8.4c1.3-2.7,2.7-5.2,4.1-7.8
					c0.9-1.6,1.6-3.2,0.6-5.2c-0.2-0.4,0.4-1.3,0.6-2c0.6,0.4,1.8,0.7,1.9,1.2c0.2,1.4,0.4,3-0.1,4.2c-1.2,3.5-2.9,6.8-4.2,10.3
					c-0.4,1-0.1,2.3-0.1,3.4c1-0.5,2.4-0.8,3-1.6c1.9-2.9,3.5-6,5.3-9.1c1.8-3.1,4.5-4.3,7.5-2.6c2.7,1.5,5.4,3.2,7.8,5.2
					c3.1,2.6,4.1,6.1,2.7,10.2c-0.6,1.8-1.5,3.5-2.3,5.2c-1,2.3-2.1,4.5-3,6.8c-0.7,1.7-0.5,3.3,0.9,4.4c1.7,1.2,2.6-0.3,3.5-1.5
					c4.1-5.8,6.3-12.5,7.2-19.7c0.2-1.5-0.4-3.3-1-4.7c-1.7-4.2-5.7-5.7-8.8-8c-6.2-4.7-7-8-3-14.8c2-3.3,4.8-4.6,8.3-3.7
					c3.9,0.9,7.7,2.1,11.5,3.1c3.2,0.8,6.9-0.7,8.5-3.8c2.7-5.3,5.1-10.8,7.6-16.3c0.3-0.7-0.1-1.9-0.2-2.9
					c-0.9,0.4-2.1,0.4-2.5,1.1c-1.6,2.6-2.8,5.4-4.4,8c-1.5,2.6-3,5.2-4.8,7.6c-1.7,2.2-4.2,3.1-6.8,2.2c-2.8-1-5.5-2.4-8.3-3.7
					c-1.8-0.8-2.9-2.2-2.3-4.4c1.3-5,2.8-9.6,7.9-11.8c3.9-1.7,6.8-5,7.2-9.7c0.8-8.4-6-15.9-13.7-15.6c-4.3,0.2-7.2,3.1-9.6,6.5
					c-1.3,1.8-1.5,3.9-0.7,6.1c0.8,2.2,1.7,4.3,2.7,6.4c3,6.2,1.7,15.2-5.7,17.4c-7.6,2.2-12.5-2.2-11.1-9.7c0.2-1,0.4-2.2,0.2-3.2
					c-0.3-1.2-1-2.4-1.5-3.5c-0.3,0.1-0.6,0.1-0.9,0.2c-0.4,1.2-0.9,2.4-1.2,3.7c-1.8,7,1.1,12.8,7.5,15.2c1.5,0.5,2.9,1,4.3,1.7
					c2.7,1.3,4.2,5.6,2.7,8.2c-1.6,2.5-3.5,4.8-5.5,7c-0.7,0.7-1.9,1-2.9,1.1c-3.8,0.1-7.5-0.1-11.3,0.2c-1.3,0.1-2.9,1.1-3.6,2.2
					c-1.8,2.7-3.1,5.9-4.9,8.6c-5.2,8-7.3,8.1-13.9,1.5c-1.6-1.6-2.7-3.6-1.9-6c1.3-4.3,2.9-8.5,4.2-12.8c0.4-1.4,2-3.4-0.1-4.2
					c-1.3-0.5-3.3,0.5-4.8,1.3c-0.7,0.4-1.1,1.7-1.5,2.6c-1.1,2.4-2,4.9-3.2,7.3c-1.3,2.8-1.9,5.6-1.7,8.9
					c0.5,8.5-4.6,16.3-14.1,15.2c-9.3-1-14.2-5.6-14.9-14.6c-0.5-6.7,3.8-13,9.9-14c2.2-0.4,4.5-0.4,6.7,0c2.1,0.3,3.1-0.5,3.6-2.4
					c1.1-3.8,2.3-7.5,3.1-11.4c0.2-1.1-0.3-3.2-1-3.8c-4.3-2.9-10-3.5-11.9,4.3c-0.9,3.8-2.6,5.4-5.2,4.9c-3-0.6-4.9-3.1-4.1-6.7
					c1.1-5,2.5-10.1,4.4-14.8c1.7-4.1,4.5-5,8.5-3.9c2.4,0.6,4.7,1.5,7,2c2.2,0.5,3.9-0.3,4.6-2.8c1.3-4.2,2.5-8.5,3.6-12.7
					c0.5-1.9-0.1-3.2-1.6-4.5c-4.2-3.7-8.3-7.6-12.3-11.6c-2.2-2.2-3.5-4.9-3.9-8.2c-1.1-8.5,3-14.9,7.1-21.2c2.1-3.2,5.4-3.8,8-2.2
					c2.4,1.4,3.6,4.9,2.4,8.5c-0.9,2.8-2.5,5.3-3.6,8c-0.5,1.2-1.2,3.2-0.6,4c1.7,2.8,3.8,5.5,6,7.8c1.6,1.7,3.3,1,4-1.1
					c0.6-1.6,0.8-3.4,0.9-5.1c0.2-5.4,0.9-10.6,3.1-15.5c2.2-4.9,4.5-6.4,9.4-5.5c5.6,1,10,4.6,13.2,9.5c2.9,4.4,0.7,12.6-3.5,15
					c-3,1.7-6.1,3.1-9.2,4.6c-3.1,1.5-3.3,2.9-0.9,5.6c3,3.3,8.8,2.6,11.3-1.4c1.2-1.8,2.2-3.9,3.8-5.1c1.6-1.2,3.9-2,5.8-1.7
					c2.3,0.4,2.9,3,2.3,5.5c-0.6,2.3-1.7,4.6-2.1,6.9c-0.8,4.1-3,7.1-5.4,10.1c-2,2.5-4.5,3.1-7.5,2.6c-2.7-0.5-5.3-0.8-8-1.2
					c-2.3-0.3-3.9,0.5-4.5,3c-1.3,5.4-2.5,10.9-3.7,16.3c-0.2,0.8,0.4,2.4,1,2.7c3.5,1.9,7.2,3.5,10.9,5.3c0.2-0.6,0.5-1.2,0.6-1.8
					c1.2-4.8,2.4-9.7,3.6-14.5c1-4.1,3.6-6.1,7.5-5.9c3.6,0.2,6,3.3,8.6,5.5c0.6,0.5,0,2.7,0,4.2c0,2-0.1,4.1,0.2,6
					c0.3,2.4,2,3.7,4.1,3.3c2-0.4,4.2-1.1,5.7-2.5c3.3-3.2,3.2-7.2,0.7-12.1c-1.3-2.6-2.7-5.6-2.6-8.4c0.3-7.9,9.7-17.6,18.6-13.7
					c2.7,1.2,4.5,0,5.9-2.2c0.8-1.3,1.3-2.7,1.8-4.2c0.7-2.5,3.3-4.9,6.2-4.5c-2.3,3.8-4.2,7.4-6.6,10.6c-1.4,1.9-1.2,3.2-0.1,5.2
					c2.1,4,3.9,8.1,3.9,12.9c0,7.5-4.1,13-11,13.9c-0.8,0.1-1.6,0.5-2.5,0.8c1.1,1,2.2,1.2,3.1,1.7c0.7,0.4,1.3,1.3,1.7,2
					c0.1,0.1-0.7,1.2-0.8,1.1c-0.7-0.4-1.4-1-2.1-1.5c-0.6-0.5-1.3-1.5-1.7-1.4c-0.6,0.2-1.3,1.2-1.4,1.9c-0.1,1.5-0.3,3.2,0.3,4.5
					c1.5,3.5,9.5,5.2,11.7,2.3c2.8-3.7,4.8-8,7.4-11.9c1.3-2,2.9-3.9,4.7-5.2c1.8-1.3,6.1,2.1,5.7,4.5c-0.4,2.1-1.1,4.3-2,6.2
					c-1.5,3.1-3.7,5.8-4.7,9c-1.3,4-3.5,7-6.3,9.7c-0.1,0.1,0,0.4-0.1,0.9c5.5,5.2,11.2,10.6,16.7,16c0.6,0.6,1.1,1.6,1.1,2.4
					c0,1.5-0.6,2.9-0.7,4.4c-0.3,4.1-0.2,8.3-0.8,12.5c-0.3,2.3,0,3.7,1.9,5.2c3.1,2.4,6.2,4.9,9,7.6c1.7-1.6,3.4-3.3,4.9-5.2
					c3.1-3.8,6.3-7.5,9.1-11.5c-5.2-1.6-8.8-5.4-11.3-10.4c-3.7-7.3-0.9-14.3,6.1-17.1c2.1-0.9,4.1-2.2,5.9-3.8
					c1.5-1.3,2.6-3.3,4-4.9c2.4-2.9,5-5.5,7.1-8.5c2.2-3.1,1.9-4.1-1.2-6.5c-2.2-1.7-4.6-3.2-6.5-5.2c-2.8-2.8-7.5-2.5-9.6,0.7
					c-0.7,1.1-2,2.6-2.8,2.4c-1-0.2-1.9-1.8-2.6-3c-1.8-3-2.3-6.9-5.6-8.7c-0.3-0.2-0.1-1.7-0.1-2.5c0.7,0.1,1.7,0,2,0.5
					c1.5,2.2,2.8,4.6,4.1,6.9c1.9,3.3,2.1,3.3,4.7,0.9c1.1-1.1,2.4-1.9,3.7-2.8c0.5-0.3,1.3-0.5,1.7-0.3c3.7,2.4,7.4,4.8,11,7.3
					c1.4,1,2.7,2.3,4.2,3.3c0.6,0.4,1.5,0.5,2.2,0.7c0.2-0.4,0.4-0.7,0.6-1.1c-3.4-3.1-6.9-6.1-10.3-9.2c0.1-0.3,0.2-0.7,0.3-1
					c1.1,0.3,2.4,0.4,3.3,1c2.7,2,5.1,4.3,7.8,6.3c0.6,0.4,2.1,0.4,2.6-0.1c0.4-0.4,0.7-0.8,0.9-1.2c0.2-0.5,0.3-1.1,0.5-1.6
					c0.2-1.5-0.4-3.2-1.6-4.9c-1.8-2.5-3.4-5.2-4.9-7.9c-0.5-1-0.7-2.5-0.5-3.6c1.3-6.6,5.8-9.8,12-9c0.3,0,0.6,0.1,0.9,0.2
					c1.6-6.3,3.3-12.6,5-18.9c2.2-7.9,4.6-15.8,6.8-23.7c0.7-2.4,1-4.9,1.9-7.2c2.5-6.4-1.7-14.4-8.5-15.6
					c-8.3-1.4-16.1,0.2-23.3,4.4c-11.4,6.6-18.1,16.7-21.6,29.4c-1.5,5.7-3.4,11.4-6,16.7c-2.9,5.8-9.6,5.7-13.2,0.3
					c-3.2-4.8-5.1-10.1-6.1-15.7c-1.5-8.3-2.8-16.7-4.1-25c-1.3-8.4-2.8-16.7-3.9-25.1c-0.6-4.2-0.6-8.4-1-12.6
					c-2-18.9-3.9-37.8-6.1-56.7c-1.1-9.5-2.8-19-4.4-28.5c-0.5-2.9-1.2-5.8-2.1-8.6c-0.2-0.6-1.2-1-1.9-1.6c-1-2.6-2.1-5.6-3.2-8.6
					c-0.3,0.1-0.6,0.2-0.9,0.2c-0.2,0.7-0.4,1.4-0.5,2.2c-0.3,0.1-0.6,0.1-0.8,0.2c0-3.8-1.1-6.8-4.5-9c-3.9-2.5-8-3.5-12-1.9
					c-9.5,3.9-15.1,11.3-16.4,21.6c-0.7,5.6-1.1,11.3-0.8,17c0.8,15.5,1.8,31.1,3,46.6c1.4,17.1,3.4,34.2,4.9,51.4
					c0.1,1.5-1.3,3.1-2,4.6c-1.5-0.9-3-1.8-4.5-2.8c-0.4-0.3-0.5-1-0.6-1.5c-1-4-2.4-8-2.9-12c-1.6-11.1-3-22.3-4.2-33.5
					c-2.5-23.4-4.8-46.8-7.4-70.1c-0.8-7.5-3.2-14.6-7.4-20.9c-2.2-3.3-5.1-6.2-9.1-6.6c-9.8-1-13.8,1.3-18.4,8.6
					c-4.2,6.6-4.7,14.1-5.4,21.5c-0.4,4.4,0,9-0.1,13.5c0,0.7-0.6,1.3-0.8,2c-0.5-0.4-1.2-0.7-1.6-1.2c-0.7-0.9-1.3-1.9-2-2.9
					c-5.2-8.1-12.1-8.6-19.9-3.9c-5.3,3.2-7,8.7-9,13.9c-3.1,7.8-2.5,15.9-1.4,24c0.8,5.5,1.8,11,2.6,16.5c0.1,0.7-0.4,1.5-0.7,2.3
					C30.7,94.2,30,93.8,29.6,93.2z M150.7,330.6c1.2-0.7,2.1-1.4,3.1-2c0.7,1.6,1.5,3.3,2.2,4.9c-1.7,0.4-3.4,0.9-5.1,1.3
					C150.9,333.6,150.8,332.3,150.7,330.6z M141.4,292.6c0.5-1.8,1.8-2.8,3.2-1.5c0.8,0.7,1.2,2.7,1,3.9c-0.3,1.7-1.9,1.8-3.3,1.1
					C140.5,295.3,140.5,294,141.4,292.6z M155.9,240.3c-0.8,0-1.6-0.1-2.4-0.1c0.2-1.1,0.4-2.2,0.6-3.4c0.5,0,1.1,0.1,1.6,0.1
					C155.7,238.1,155.8,239.2,155.9,240.3z M160.7,223.4c0.6-1.6,3.6-3.1,4.9-2.5c1.9,0.9,2.9,3.6,2.1,5.4c-0.9,2.2-3.5,3.3-5.4,2.3
					C160.6,227.7,159.9,225.5,160.7,223.4z M158.4,228.5c1.2,1.3,1.6,3.3,2.4,5c-1.8,0.4-3.7,0.9-6.3,1.5c-0.4-2.2-1-3.6-0.7-4.8
					C154.2,228.4,157.3,227.2,158.4,228.5z M149.8,219c1-0.4,2.4-1.4,3.9-1.4c1.3,0,3,4.6,2.2,5.3c-1.4,1.1-3.5,2.4-5,2
					C149.3,224.5,148.9,222,149.8,219z M151.2,247c0.1,0.9,0.6,2,0.3,2.8c-0.2,0.6-1.2,0.9-1.9,1.4c-0.3-0.8-0.6-1.7-1-2.9
					C149.8,247.7,150.5,247.4,151.2,247z M91.3,333.4c0.9,1.1,1.9,2.1,2.6,3.3c0.5,0.7,0.5,1.8,0.8,2.7c-0.9-0.2-2-0.2-2.5-0.7
					c-1.7-2.1-3.6-4.2-4.7-6.7c-1.9-4.1-3.4-8.6-0.9-13c0.5-0.9,1.8-1.4,2.8-2.1c0.2,0.3,0.5,0.5,0.7,0.8c-0.2,0.9-0.4,1.8-0.7,2.7
					C87.4,325.2,88.3,329.5,91.3,333.4z M114.6,233.9c-0.2,0.6-1.8,1.2-2.5,0.9c-1.8-0.8-1.9-2.7-1.1-4.1c0.5-0.8,1.9-1,2.8-1.5
					c0.3,0.2,0.6,0.4,0.9,0.6C114.7,231.2,115,232.7,114.6,233.9z M247.4,157.1c0.2,1.3,0.5,2.5,0.6,3.8c0,0.1-1,0.3-1.5,0.4
					c-0.3-1.3-0.5-2.6-0.8-3.9C246.3,157.3,246.8,157.2,247.4,157.1z M206.8,198.1c3-6.6,9.4-8.8,15.9-5.2
					c5.9,3.2,8.5,10.8,5.6,16.8c-3,6.2-10.4,8.9-16,5.8C206.7,212.3,204.1,204.1,206.8,198.1z M205.4,244.1c1.8,3.5,2.8,3.7,5.8,1.4
					c2.2-1.8,4.4-3.6,8.1-2.2c-0.8,1-1.2,1.7-1.8,2.2c-2.9,2.4-5.8,4.9-8.9,7.2c-0.5,0.3-1.9,0.1-2.1-0.3c-2.7-5.7-5.4-11.4-8-17.2
					c-0.3-0.8-0.1-1.8-0.1-2.8c0.2,0,0.5-0.1,0.7-0.1C201.1,236.2,203.3,240.1,205.4,244.1z M191.3,208.6c2.2-2.3,4.7-4.2,7.1-6.3
					c0.3,0.3,0.6,0.6,0.9,0.9c-0.7,1.6-1.2,3.4-2.2,4.7c-1.5,2-3.4,3.6-5.1,5.4c-2.8,2.9-5.5,6-8.3,8.8c-0.5,0.5-1.7,0.1-2.6,0.2
					c0.1-0.9,0-2.2,0.5-2.8C184.7,215.7,187.9,212,191.3,208.6z M185.1,213.1c-2.2,0.4-4.1,2.1-5.3-1.1c-0.8-2.1,0-3.5,1.6-3.7
					C184.6,208,183.6,211.3,185.1,213.1z M177.6,173c-0.4,0.1-0.7,0.1-1.1,0.2c-0.6-3.8-1.1-7.6-1.7-11.4c0.3-0.1,0.7-0.1,1-0.2
					C176.4,165.5,177,169.2,177.6,173z M168,114.9c0.3,0,0.6-0.1,0.8-0.1c0.3,2.6,0.5,5.2,0.8,7.9c-0.3,0-0.6,0.1-0.8,0.1
					C168.6,120.1,168.3,117.5,168,114.9z M174,157.9c-1.5-9.9-3.1-19.7-4.7-30.2C171.4,129.6,175.6,155,174,157.9z M171.2,156.4
					c0.2,0,0.5-0.1,0.7-0.1c-0.4,2.9,2.6,5.5,0.9,8.6c-0.3,0-0.5,0.1-0.8,0.1C171.8,162.1,171.5,159.2,171.2,156.4z M167.5,183.1
					c0.8-0.7,2-0.9,2.7-1.1c1.5,1.1,2.5,1.7,3.2,2.5c0.4,0.4,0.6,1.6,0.3,1.9c-2.6,3.3-5.2,6.5-7.9,9.7c-1.5,1.8-2.8,0.6-4-0.9
					c-1.2-1.6-2.2-3.3-0.7-5.1C163.1,187.6,165.2,185.3,167.5,183.1z M153.1,154.6c-0.2-5.1-0.1-10.3-0.6-15.4
					c-2.2-23.9-4.6-47.8-6.8-71.8c-0.6-6.1-0.8-12.2-0.9-18.3c0-2.1,0.5-4.3,1.1-6.3c0.2-0.7,1.4-1.1,2.2-1.7c0.5,0.7,1.3,1.3,1.4,2
					c0.9,4.5,1.7,9,2.5,13.5c0.1,0,0.3,0,0.4,0c1.3,12.7,2.5,25.4,3.9,38.1c1.1,9.6,2.4,19.3,3.5,28.9c1.2,10.5,2.3,21.1,3.4,31.6
					c0.5,4.7-2.9,7.6-6.9,5.9C153.6,159.9,153.2,157.3,153.1,154.6z M143.4,238.4c-1.1,0.7-2.5,0.9-3.9,1.4c-0.1-1-0.6-2.3-0.2-3
					c0.5-0.9,1.7-1.4,2.6-2c0.3,0.2,0.7,0.4,1,0.6C143.2,236.4,143.7,238.2,143.4,238.4z M135.1,180.6c3.3-6.6,6.5-7.7,12.7-4.2
					c1.9,1.1,3.7,2.8,5.2,4.5c3.2,3.8,3.2,8.6,0.4,13.8c-1.4,2.7-7.8,5.3-10.8,4.2C136.3,196.6,130.3,189.8,135.1,180.6z M85,71.9
					c-1.1-12.6-0.9-25.3-1-38c0-2.9,1.2-5.8,2.1-8.6c0.3-0.8,1.6-1.2,2.4-1.8c0.4,0.8,1,1.6,1.2,2.5c0.2,1.2,0.2,2.5,0.3,3.8
					c1.1,28.2,4.9,56.1,8.2,84.1c1.5,12.2,3.2,24.4,4.8,36.7c0.1,1.1,0.4,2.6-0.2,3.4c-0.8,1.2-2.2,2.6-3.5,2.8
					c-1.1,0.2-3.2-1-3.5-2c-1.3-3.5-2.4-7.2-2.8-10.8C90.2,119.8,87.2,95.9,85,71.9z M72.3,149.7c-1.4,3.4-2.9,5-4.6,4.5L72.3,149.7
					z M45,73.1c-0.1-1.4,0.1-2.9,0.5-4.2c0.2-0.6,1-1.4,1.6-1.5c0.5,0,1.4,0.8,1.6,1.4c1,3,2.1,6,2.7,9c2.1,10.4,3.9,20.9,6.1,31.3
					c3.4,16.7,7,33.5,10.5,50.2c0.5,2.4,0.9,4.8,1.4,7.2c0,0-0.1,0-0.1,0c0.1,1.3,0.3,2.7,0.4,4c0.2,3.4-1.2,5.2-4.4,5.6
					c-2.9,0.4-4-0.9-4.8-4.5c-2.2-10.5-5-21-6.8-31.6c-2.7-15.9-4.9-31.8-7.1-47.8C45.7,85.9,45.5,79.5,45,73.1z M50.7,184.1
					c0.2,0.6,0.2,1.2,0.4,2.6c-0.2,1.3-0.4,3.4-0.8,5.4c-0.4,2.1-1.7,3.8-3.7,3.5c-1.2-0.2-2.6-1.8-3.1-3.2c-1.5-4.3-2.6-8.8-4-13.2
					c-4.8-14.3-9.5-28.6-14.5-42.8c-2.5-7-5.6-13.8-8.2-20.8c-0.9-2.4-1.4-5-1.8-7.6c-0.1-1,0.7-2.1,1-3.1c1,0.4,2.3,0.4,2.9,1.1
					c1.7,2,3.4,4.2,4.8,6.5c5.2,9.1,8.7,19,12.7,28.7C42,155.3,46.7,169.6,50.7,184.1z"/>
			</g>
		</g>
		<g>
			<g>
				<path class="st4" d="M181.6,277.8c-5,6.7-10.7,13.2-9,23.1c0.4,2.3,1,4.8,2.1,6.9c1.6,3.1,3.9,3.7,6.2,1.3
					c2.8-2.8,5.1-6.1,7.6-9.1c2.8-6.5,1.3-17-3.5-22C183.8,276.5,182.6,276.4,181.6,277.8z M180.4,291.6c-0.3,0.9-1.7,1.3-2.6,2
					c-0.3-0.2-0.7-0.4-1-0.6c0-1.3-0.5-2.8,0-3.8c0.3-0.7,1.8-0.8,2.8-1.1C180,289.3,180.7,290.7,180.4,291.6z M182.9,298
					c-0.1,0-1-2-0.7-2.3c0.9-0.9,2.1-1.5,3.7-2.5c0.6,1.6,1,2.5,1.3,3.4C185.8,297.2,184.4,297.7,182.9,298z"/>
			</g>
		</g>
	</g>
</g>
</svg>
