<?xml version="1.0" encoding="utf-8"?>
<!-- Generator: Adobe Illustrator 26.3.1, SVG Export Plug-In . SVG Version: 6.00 Build 0)  -->
<svg version="1.1" id="Layer_1" xmlns="http://www.w3.org/2000/svg" xmlns:xlink="http://www.w3.org/1999/xlink" x="0px" y="0px"
	 viewBox="0 0 2124 345" style="enable-background:new 0 0 2124 345;" xml:space="preserve">
<style type="text/css">
	.st0{fill:#F2891C;}
	.st1{fill:none;}
	.st2{fill:#33738C;}
	.st3{fill:#7A4B9D;}
</style>
<g>
	<polygon class="st0" points="1411.6,95.7 1455.6,95.7 1455.6,314.5 1493.9,314.5 1493.9,95.7 1537.8,95.7 1537.8,59 1411.6,59 	"/>
	<path class="st0" d="M1241.3,256.2c0,7.4-1.8,13-5.5,17c-3.7,3.9-8.9,5.9-15.7,5.9c-6.6,0-11.7-2-15.4-5.9c-3.7-3.9-5.5-9.6-5.5-17
		V59h-38.7v196c0,19.9,5.2,35.3,15.6,46c10.4,10.8,25,16.2,44,16.2c19.1,0,33.9-5.4,44.3-16.2c10.4-10.8,15.6-26.1,15.6-46V59h-38.7
		V256.2z"/>
	<path class="st0" d="M1112.6,64.1c-9-5.2-19.9-7.7-32.8-7.7c-12.7,0-23.5,2.6-32.5,7.7c-9,5.2-15.9,12.6-20.7,22.2
		c-4.8,9.7-7.2,21.5-7.2,35.4v130.2c0,13.7,2.4,25.5,7.2,35.2c4.8,9.8,11.7,17.2,20.7,22.3c9,5.1,19.9,7.6,32.5,7.6
		c12.9,0,23.8-2.6,32.8-7.7c9-5.2,15.8-12.6,20.5-22.2c4.7-9.7,7.1-21.5,7.2-35.4v-15.6h-39v15.6c0,8.6-1.8,15.2-5.4,19.9
		c-3.6,4.7-9,7.1-16,7.1c-6.8,0-12.1-2.3-15.8-7c-3.8-4.7-5.6-11.3-5.6-19.9V121.7c0-8.7,1.9-15.3,5.6-20c3.7-4.7,9-7,15.8-7
		c4.7,0,8.6,1.1,11.8,3.3c3.2,2.2,5.6,5.2,7.2,9.2c1.6,4,2.5,8.8,2.5,14.6v15.6h39v-15.6c0-13.8-2.4-25.6-7.1-35.3
		C1128.4,76.7,1121.6,69.2,1112.6,64.1z"/>
	<polygon class="st0" points="1345.9,59 1307.2,59 1307.2,314.5 1325.3,314.5 1345.9,314.5 1415.5,314.5 1415.5,277.8 1345.9,277.8 
			"/>
	<path class="st0" d="M1631.8,256.2c0,7.4-1.8,13-5.5,17c-3.7,3.9-8.9,5.9-15.7,5.9c-6.6,0-11.7-2-15.4-5.9c-3.7-3.9-5.5-9.6-5.5-17
		V59H1551v196c0,19.9,5.2,35.3,15.6,46c10.4,10.8,25,16.2,44,16.2c19.1,0,33.9-5.4,44.3-16.2c10.4-10.8,15.6-26.1,15.6-46V59h-38.7
		V256.2z"/>
	<path class="st0" d="M1794.4,199.4c9.7-4.7,17.2-11.5,22.3-20.4c5.2-8.9,7.7-19.7,7.7-32.3v-29.9c0-12.3-2.6-22.8-7.7-31.5
		c-5.2-8.7-12.6-15.3-22.3-19.8c-9.7-4.5-21.4-6.8-35.1-6.8h-23.4h-20.6h-17.6v255.7h38.1V206.4h21.5l32.4,108.1h41.8l-37.9-114.8
		C1794,199.6,1794.2,199.5,1794.4,199.4z M1735.9,95.5h26.2c7.4,0,13.1,2.1,17.2,6.4c4.1,4.3,6.2,10.2,6.2,17.8V147
		c-0.1,7.1-2.2,12.7-6.2,16.7c-4,4-9.8,6-17.1,6h-26.2V95.5z"/>
	<path class="st0" d="M1899.3,59l-60.1,255.5h39.5l9.2-47.8h53.2l9.2,47.8h39.5L1929.9,59H1899.3z M1895,230.7l19.6-101.6
		l19.6,101.6H1895z"/>
	<polygon class="st0" points="2049.4,277.8 2049.4,59 2010.7,59 2010.7,314.5 2028.8,314.5 2049.4,314.5 2119,314.5 2119,277.8 	"/>
</g>
<rect x="-77" y="-308" class="st1" width="686" height="686"/>
<g>
	<path class="st2" d="M254.6,175c-1-3.5-4.4-5.6-4.4-9c-2.8-2.4-5.8-0.5-8.5-1.3l0.1,0c-3.1-0.4-3.8,2.8-5.8,4
		c0-0.4-0.1-0.8-0.1-1.2c-1.2-0.8-2.3-1.7-3.8-0.5c-5.5,4.5-9.8,2.8-13.7-3c3-1.4,2.1-4,2.2-6.4l0,0c2.2-2.6-0.5-4-1.7-5.6
		c2.1-4.1,3.2-8-0.7-11.4l0,0c3-2.9,0.4-6.7,1.8-9.9c0.1-0.1,0.2-0.3,0.2-0.4c-0.1-0.3-0.2-0.6-0.3-0.9c1-1.9-2.2-4.4,0.7-6.1
		c0,0,0,0,0,0l0,0c0,0,0,0,0,0c0.2-4.4-3.7,0.3-4.5-2c0.3-2.5,3.1-1.2,4.1-2.7l0,0c0,0,0.4,0,0.4,0l-0.1-0.4c0.1-4,0.1-8,0.2-10.8
		c-2.4-4.9-5.5-0.8-8-2c0.3-2.4-0.9-5.2,2.5-6.1l0,0c0.5,0.6,1,1.3,1.9,0.7c0-1.2-1-0.8-1.7-1c2-1.6,3.3,0,4.8,1l0,0
		c0.4,0,0.9-0.1,1.3-0.1l0,0c0.8-1.7,0-3.2-0.3-4.8c1.6-0.7,2.4-1.8,2.5-3.7c0.1-5.2,1.1-10.3,2.4-15.4c2.2-8.7,3.6-17.7,5.3-26.2
		c-6-6.3-11.9-11.7-19.4-15.2c-4.9-5.4-10.9-9.3-17.1-12.9c-6.5-3.8-9.5-3.1-12.4,3.7c-3.5,8.1-8.4,15.5-11.9,23.6
		c-2.4,5.6-6.9,11.6-11.7,16.5c-1.7,1.8-3.2,4.2-2.2,5.7c-11.4,14.7-19.1,31.2-30.4,45.2c0,0,0,0,0,0c-0.7,1.3-1.5,2.5-2.2,3.8
		c-2.8,1.2-3.4,4-4.4,6.4c-1.8,1.7-3.2,3.7-3.2,6.3c-3.4,0.9-2.2,4.2-3.2,6.3c-1.1,0.8-2.7,1.3-3.3,2.4
		c-10.1,15.8-20.2,31.5-29.9,47.4c-3.9,6.3-6,13.9-13,17.6c-9.5,5.1-17.5,12.9-28.2,15.9c-1.7,0.5-4.3,1.6-1.1,3.8
		c2.3,1.9,1.2,4,0.5,6.1l-0.1,0c2.2,2-0.9,4.2,0.2,6.2c6,3.6,3.8,11.4,8.3,15c-2.7,12.2-11.4,20.9-14.4,32.7
		c-4.4,1.8-10.1,10.7-10.1,16.8c1.4,1.1,2.8,2.3,4.1,3.4l0,0c-0.8,4.4,2.9,3.7,5.2,4.6c0,0,0,0,0,0c6.5,2.1,12.7,5.4,20.2,5.2
		c2.7-2,5.8-3.7,9-5.5c7.7-4.3,15.6-9.1,19.1-17.7c5.1-12.6,13.1-23.7,17.9-36.4c0.5-1.4,1.7-3.2,3-3.6c7.4-2.4,13.1-7.8,20.3-10.6
		c11.9-4.6,24.4-7.3,36.5-11.2c0,0,0,0,0.1,0c4.9-0.3,9.7-2.8,14.5-1.5c3.2,4.7,0.6,9.3,1,13.8l0-0.1c-1.1,1.6-1.4,3.3-0.6,5.1
		c1.7,4.2,1.2,8.2-0.7,12.2l0-0.1c1.7,4.2,0.5,8.3-0.4,12.4c-1,4.5-1.6,9,1,13.3l0,0c0,0,0,0.1,0,0.1c0,0.4,0.1,0.8,0.1,1.1
		c0,0,0,0,0,0.1c-0.4,0.4-0.7,0.8-1.1,1.3c-0.4,0.8-0.7,1.7-1.1,2.5l0,0c1.6,0.5,3.3,1.1,5,1.6c-1.8,2.1-4.9,0.2-6.1,2.8
		c2.4,4.4,2.4,4.5-1.6,20.8c2.6,12.4,13.9,13.3,22.8,17.3c2.2,2.9,5.4,0.3,7.9,1.3c2,0.5,2.4,3.5,5.2,3.1c1-3.9,2.1-7.8,3.1-11.8
		c-3.1-2.5-3.8-6.4-7.2-7.9c0.6-4.4,4.1-4.1,7.1-4.7c-0.3-1.1-0.6-2.1-0.8-3.1c0,0,0,0,0,0l0,0c0,0,0,0,0,0c-0.4,0-0.8,0-1.1,0
		c0.4-0.4,0.7-0.8,1-1.3c0,0.4,0.1,0.8,0.1,1.2c0,0,0,0,0,0c0-0.4-0.1-0.9-0.1-1.3c2.4-2-0.6-5.4,1.9-7.4c0,0,0,0,0,0l0-0.1
		c0,0,0,0,0,0c1.1-8.9-0.2-18.1,1.8-26.9c0.2,0.1,0.3,0.1,0.4,0.1c-0.1,0-0.2-0.1-0.4-0.2l0,0.1c-0.7-1.5,0.3-3.6-1.5-4.8
		c1.2-0.5,2.4-1,3.5-1.5c0,0,0,0,0,0l0,0c0,0,0,0,0,0c0,0,0,0,0,0c0,0,0,0,0,0c0,0,0,0,0,0l0,0c0-0.1,0-0.1,0-0.2c0,0.1,0,0.1,0,0.2
		c-0.4-0.4-0.9-0.7-1.3-1.1c-0.1-0.1-0.2-0.3-0.3-0.4c0.1,0.1,0.2,0.3,0.3,0.4c0.4,0,0.7,0.1,1.1,0.1c0.1,0.3,0.1,0.6,0.2,0.9
		c0-0.4,0-0.8,0.1-1.2c-1.7-5.7-2.3-11.2,3.7-14.7c-0.3-3.5-0.5-6.7-0.7-9.9l0,0c0.1-9-0.9-18.2,4.2-26.4
		c8.2-1.3,13.2-8.3,20.7-10.6c0.7-1.7-0.2-4,2.5-4.9c1.7-0.2,2.4,3.2,5.1,2.1c1.2-1.3,2.3-2.6-0.2-4c0.2-2,1.8-2.9,3-4.3
		C255.2,189.7,256.9,182.9,254.6,175z M219.7,129.8c0,0.4,0,0.7,0.1,1.1C219.6,130.5,219.6,130.1,219.7,129.8z M219.6,71.8l0.2,0.4
		l-0.5,0L219.6,71.8z M118.1,141.8l0.2-0.4l0.3,0.4L118.1,141.8z M161.4,96.1c-1,0.6-1.4,0.1-1.7-1
		C160.9,94.3,161.4,94.7,161.4,96.1z M160.8,141.5l-0.3,0.1l0-0.4L160.8,141.5z M153.8,77.8l0.1,0.5l-0.4-0.1L153.8,77.8z
		 M136,110.2c0,1.6-0.6,1.7-1.4,1.3C134.1,110.4,134.8,110.2,136,110.2z M128.1,137c-2,0.8-1.4-1.1-1.9-1.8l0,0
		C127,135.5,128.9,134.8,128.1,137z M136.1,127.9c-3.3-3.3-3-5.6,0.6-7.7C138.9,122.8,138.4,125.1,136.1,127.9z M143.7,100.5
		l0.1-0.5l0.3,0.3L143.7,100.5z M167.6,212.2c-0.1,0-0.1,0.1-0.2,0.1C167,210.8,167.8,211.7,167.6,212.2z M170.7,178.3
		C170.7,178.3,170.7,178.3,170.7,178.3c-2.5-1.2-3.9,1.5-6,1.7c-0.4,0-0.8,0.1-1.2,0.1c-5.6-0.8-10.5,4.4-16.3,2.1
		c0-3.8,3.3-5,5-7.3l0,0.1c5.3-9.4,11.2-18.4,18.2-28c2.9,5.9,1.5,11.4,1.5,16.7c0,1.3-1.1,2.7,0.5,3.7
		C171.3,170.8,173.9,175,170.7,178.3z M172.5,167.2c1.4-2.1,2.4-1.2,3.6,0.4C174.6,168.9,173.6,167.1,172.5,167.2z M180.2,235.8
		l0.2-0.4l0.2,0.5L180.2,235.8z M183.7,103.4l0.2-0.4l0.2,0.3L183.7,103.4z M184.8,276.7c-0.1-0.2-0.1-0.3-0.2-0.5
		c0.1-0.1,0.3-0.1,0.4-0.2C184.9,276.3,184.8,276.5,184.8,276.7z M188.2,156.2l0.3-0.4l0.2,0.4L188.2,156.2z M193.8,102.3l0.1,0.3
		l-0.3,0L193.8,102.3z M191.8,164.6c-0.6-1.8-1.6-3.6,0.9-4.9c0.5,0.8,0.9,1.6,1.3,2.2C193.8,163.6,192.7,163.9,191.8,164.6z
		 M194.2,157.3c-1.1-2.1-1.6-2.9-2-3.6c0,0,0,0,0,0C193.5,153,194.4,153.2,194.2,157.3z M200.1,105.1c0.3,0.4,0.7,0.7,1,1.1
		c-0.3,0.2-0.5,0.4-0.8,0.6c-0.3-0.3-0.7-0.7-1-1C199.6,105.6,199.9,105.3,200.1,105.1z M200.1,158.7c0,0.1-0.1,0.2-0.1,0.4
		C200,158.9,200.1,158.8,200.1,158.7z M197.6,159.3c0.2-0.3,0.3-0.5,0.5-0.8c0.2,0.2,0.4,0.5,0.6,0.7
		C198.3,159.3,197.9,159.3,197.6,159.3z M199.9,159.2c-0.3,0.8-0.7,1.6-1,2.4c-0.1-0.8-0.1-1.5-0.2-2.3
		C199.1,159.2,199.5,159.2,199.9,159.2z M202.9,166.5c-2.2,0.9-2.6-0.7-4.2-2.1C202.9,162.6,203.7,163.6,202.9,166.5z M202.7,99.3
		c1.2-0.7,1.6-0.3,1.6,1C203.3,100.9,202.9,100.4,202.7,99.3z M205.7,279.9c-0.2-0.3-0.3-0.6-0.5-0.8
		C206.1,278.9,206,279.3,205.7,279.9z M205.3,285.7c0-0.4-0.1-0.7-0.1-1.1c0.4,0.3,0.8,0.7,1.2,1C206,285.6,205.7,285.7,205.3,285.7
		z M207.3,160c1.4,0.2,1,1.4,1.4,2.1C207.9,161.6,206.8,161.4,207.3,160z M207.9,105.1c0-1.6,0.4-2,1.4-1.9
		C209.8,104.9,208.7,104.4,207.9,105.1z M215.1,157.2c0.4,0.2,0.7,0.3,1,0.5C215.1,158.6,215,158.1,215.1,157.2z"/>
	<path class="st3" d="M166.9,288.1C166.9,288.1,166.9,288.1,166.9,288.1L166.9,288.1C166.8,288.1,166.8,288.1,166.9,288.1
		C166.8,288.1,166.8,288.1,166.9,288.1L166.9,288.1c0,0.4,0,0.9,0,1.3l0,0C166.9,289,166.9,288.6,166.9,288.1
		C166.9,288.1,166.9,288.1,166.9,288.1z"/>
	<path class="st3" d="M168,286.9c-0.4,0.4-0.7,0.8-1.1,1.2c0.4,0,0.8-0.1,1.1-0.1C168,287.6,168,287.3,168,286.9z"/>
	<path class="st2" d="M231.5,167.6C231.5,167.6,231.5,167.6,231.5,167.6C231.5,167.6,231.5,167.6,231.5,167.6L231.5,167.6z"/>
	<path class="st3" d="M201.4,321.9c0.8-1.9-0.5-2.5-1.8-3.1C199.9,320,199.3,321.7,201.4,321.9z"/>
	<path class="st3" d="M199.6,318.8C199.6,318.8,199.6,318.8,199.6,318.8L199.6,318.8L199.6,318.8c-0.2-0.3-0.3-0.5-0.3-0.5
		C199.3,318.3,199.4,318.6,199.6,318.8L199.6,318.8C199.6,318.8,199.6,318.8,199.6,318.8z"/>
	<path class="st3" d="M391.5,274.3c0.1,1.9-2.1,3.3-1.2,5.3c1.5,0.3,2.5-0.1,3.4-1.1C393.9,276.6,393.4,275.1,391.5,274.3z"/>
	<path class="st2" d="M575.4,215.3c-1.9,0.5-3.6,0.8-4.8,2.7c-1.5,3.7-1,7.7-1.3,12.1c0.8,1.3,2.9,1.9,3.2,3.8
		c-1.9,0.6-3.9,1-5.7,0.4c-1.7-1.1,0-3.5-1.9-4.3c-1.2-0.2-0.6,2.1-2.3,1.4c-0.7-0.3,0.2-2.2-1.5-1.9c-0.9,0.6-1.5,1.3-1.3,2.5
		c0.8,1.8,2.9,2.1,4.2,3.5c0.3,1.4,0.6,3,0.9,4.9c1.4,0.8,3.2,1.5,4,3.2c-2.5,1.1-4.6,0-6.7-1.2c0-1.6,1.6-2.7,0.5-4.2
		c-1.3,0-1.4,2-3.3,1.6c-1.1-0.7-2.6-1.6-4-2.6c-4,3.1-8.6,3.1-13.2,2.2c-0.8,0.9-1.4,1.7-2.2,2.8c-1.2-1-2.2-2.4-4.7-1.9
		c-2.5,5.6-11.2,2.6-13.8,9.2c-0.6-0.6-1.1-1.1-1.6-1.7c-0.1-0.1-0.4,0.1-0.1,0c-6.3,9.1-16.5,10.2-25.3,13.6
		c-0.2,1.2-0.4,2.4-0.6,3.6c-1.1-0.7-1.3-2.4-3-1.9c-2.7,1-1.9,4.1-3.6,6c-1.6-3.1-4-4.2-6.3-1.9c-2.1,2.1-4.3,2.7-6.9,3
		c-3.5,0.4-6.2,2.2-8.5,4.8c-0.4,0.4-1.1,0.5-1.4,0.6c-2.2,0-3.4-1.9-6.1-1.4c-6.4,5.1-12.1-1.9-18.6-2.4c-1.1-1.7-0.4-4.1-2-5.3
		c-2.8-1.2-5.6-1.1-7.9-1.1c-2.3-1.9-1.2-4.1-1.6-6c0.7,1,1.4,1.9,2.1,2.8c1.2,0.6,2.4,0.6,3.6,0.4c-1.2-3.4,2.4-6.3,1.1-9.8
		c0,0,0,0,0.1,0c0,0,0-0.1,0-0.1c0,0,0,0-0.1,0c0,0,0,0,0,0.1c-1.9,0-2.8-1.8-4.1-2.2c-2.2-0.5-3.2,0.8-4.5,1.6
		c-0.3,1.3-0.6,2.6-0.9,3.9c-0.6,0-1.1,0.1-1.8,0.1c-0.5-2.4,0.9-3.4,2.6-4.1c0,0,0,0.1,0,0.1c0,0,0,0,0.1,0c0,0,0-0.1,0-0.1
		c0,0-0.1,0-0.1,0c-0.1-1.7-0.3-3.4-0.4-5.1c4,0.3,7.6,1.4,9,5.7c0.8,0,1.6-0.1,2.4-0.1c1.5,3.4-2.6,5.5-1.9,8.7
		c3.1,2.1,4.8,5.2,5.9,8.4c1.6,0.6,2.8,0.7,3.8-0.5c0.4-2.4-2.7-4.1-1.2-7.3c1.3-1.6,4.5-2.2,5.2-5.2c-1.1-0.9-2.7-0.9-3.6-2.4
		c3.2-2.2,4-0.6,4.2,2.4c5.4-6.5,8.6-14.1,12.2-22.1c0.3-0.1,1.4,1.1,2.2-0.4c0.2-1.6-0.4-3.5,1.2-5.2c4.4-0.6,6.4-3.9,7.8-7.5
		c8.9-8.9,17.1-18.5,28.2-26.4c4.7,0.4,5-6.7,9.5-8.6c1,1.5-1.8,2.8,0,4.7c1.6-5.1,8.5-2.6,9.9-8c1.3,1.5,2.5,1.5,3.6,0.8
		c7.2-5.2,15.5-8.1,23.7-11.4c5.8-2.3,11.9-4.4,17.8-5.4c6.9-1.2,12.6-2.9,16.2-8.5c0.1-17.8-9.6-31.4-16.8-45.7
		c-6.2-1.5-10.9,1.1-15.6,4.1c-4.8-1.8-8.5,0.6-11.8,3.7c-7.6-3.2-12.1,3.7-18.2,5.4c-6.3,1.8-12.3,4.9-17.6,7.1
		c-1.8,1.4-0.7,3.3-2.3,4.1c-8.2-0.7-21.2,10.2-25.3,15.4c-1.8-1.8-3.9-2.6-5.3,0.5c0.2,0.9,1.9,1.1,1.2,2.4
		c-1.3,1.3-3.3-0.6-4.3,0.8c-0.8,1.3,0.2,2.7-0.9,3.7c-1.4,1.2-2.5-1.6-4.2,0.1c0.7,4.6-5.6,4.1-6.4,8c-0.6-0.7-0.8-1.8-2.1-1.6
		c-0.9,1.8-1.8,3.6-3.2,6.6c-0.2,0.7-2.9-0.9-3.5,1.5c-0.5,0.7,1,2.1-0.4,3c-6,2.2-9,6.6-9.7,12.7c-2.7,1.3-4.6,3.3-6.3,5.1
		c-1.2,4.1-3.5,7.6-2.1,11.7c-4.2,1.7-6.4,4-7.5,8.6c-0.9,3.4-1.3,7.2-2.4,10.7c-0.8,2.6-4.1,6.1-0.7,9.3c-0.3,0.2-0.5,0.5-0.8,0.7
		c-1.5-3.8-4-6.9-8.1-9.4c-1.9,0.5-3.6,0.8-4.8,2.7c-1.5,3.7-1,7.7-1.3,12.1c0.8,1.3,2.9,1.9,3.2,3.8c-1.9,0.6-3.9,1-5.7,0.4
		c-1.7-1.1,0-3.5-1.9-4.3c-1.2-0.2-0.6,2.1-2.3,1.4c-0.7-0.3,0.2-2.2-1.5-1.9c-0.9,0.6-1.5,1.3-1.3,2.5c0.8,1.8,2.9,2.1,4.2,3.5
		c0.3,1.4,0.6,3,0.9,4.9c1.4,0.8,3.2,1.5,4,3.2c-2.5,1.1-4.6,0-6.7-1.2c0-1.6,1.6-2.7,0.6-4.2c-1.3,0-1.4,2-3.3,1.6
		c-1.1-0.7-2.6-1.6-4-2.6c-4,3.1-8.6,3.1-13.2,2.2c-0.8,0.9-1.4,1.7-2.2,2.8c-1.2-1-2.2-2.4-4.7-1.9c-2.5,5.6-11.2,2.6-13.8,9.2
		c-0.6-0.6-1.1-1.1-1.6-1.7c-0.1-0.1-0.4,0.1-0.1,0c-6.3,9.1-16.5,10.2-25.3,13.6c-0.2,1.2-0.4,2.4-0.6,3.6c-1.1-0.7-1.3-2.4-3-1.9
		c-2.7,1-1.9,4.1-3.6,6c-1.6-3.1-4-4.2-6.3-1.9c-2.1,2.1-4.3,2.7-6.9,3c-3.5,0.4-6.2,2.2-8.5,4.8c-0.4,0.4-1.1,0.5-1.4,0.6
		c-2.2,0-3.4-1.9-6.1-1.4c-6.4,5.1-12.1-1.9-18.6-2.4c-1.1-1.7-0.4-4.1-2-5.3c-2.8-1.2-5.6-1.1-7.9-1.1c-2.3-1.9-1.2-4.1-1.6-6
		c0.7,1,1.4,1.9,2.1,2.8c1.2,0.6,2.4,0.6,3.6,0.4c-1.2-3.4,2.4-6.3,1.1-9.8c0,0,0,0,0.1,0c0,0,0-0.1,0-0.1c0,0,0,0-0.1,0
		c0,0,0,0,0,0.1c-1.9,0-2.8-1.8-4.1-2.2c-2.2-0.5-3.2,0.8-4.5,1.6c-0.3,1.3-0.6,2.6-0.9,3.9c-0.6,0-1.1,0.1-1.8,0.1
		c-0.5-2.4,0.9-3.4,2.6-4.1c0,0,0,0.1,0,0.1c0,0,0,0,0.1,0c0,0,0-0.1,0-0.1c0,0-0.1,0-0.1,0c-0.1-1.7-0.3-3.4-0.4-5.1
		c4,0.3,7.6,1.4,9,5.7c0.8,0,1.6-0.1,2.4-0.1c1.5,3.4-2.6,5.5-1.9,8.7c3.1,2.1,4.8,5.2,5.9,8.4c1.6,0.6,2.8,0.7,3.8-0.5
		c0.4-2.4-2.7-4.1-1.2-7.3c1.3-1.6,4.5-2.2,5.2-5.2c-1.1-0.9-2.7-0.9-3.6-2.4c3.2-2.2,4-0.6,4.2,2.4c5.4-6.5,8.6-14.1,12.2-22.1
		c0.3-0.1,1.4,1.1,2.2-0.4c0.2-1.6-0.4-3.5,1.2-5.2c4.4-0.6,6.4-3.9,7.8-7.5c8.9-8.9,17.1-18.5,28.2-26.4c4.7,0.4,5-6.7,9.5-8.6
		c1,1.5-1.8,2.8,0,4.7c1.6-5.1,8.5-2.6,9.9-8c1.3,1.5,2.5,1.5,3.6,0.8c7.2-5.2,15.5-8.1,23.7-11.4c5.8-2.3,11.9-4.4,17.8-5.4
		c6.9-1.2,12.6-2.9,16.2-8.5c0.1-17.8-9.6-31.4-16.8-45.7c-6.2-1.5-10.9,1.1-15.6,4.1c-4.8-1.8-8.5,0.6-11.8,3.7
		c-7.6-3.2-12.1,3.7-18.2,5.4c-6.3,1.8-12.3,4.9-17.6,7.1c-1.8,1.4-0.7,3.3-2.3,4.1c-8.2-0.7-21.2,10.2-25.3,15.4
		c-1.8-1.8-3.9-2.6-5.3,0.5c0.2,0.9,1.9,1.1,1.2,2.4c-1.3,1.3-3.3-0.6-4.3,0.8c-0.8,1.3,0.2,2.7-0.9,3.7c-1.4,1.2-2.5-1.6-4.2,0.1
		c0.7,4.6-5.6,4.1-6.4,8c-0.6-0.7-0.8-1.8-2.1-1.6c-0.9,1.8-1.8,3.6-3.2,6.6c-0.2,0.7-2.9-0.9-3.5,1.5c-0.5,0.7,1,2.1-0.4,3
		c-6,2.2-9,6.6-9.7,12.7c-2.7,1.3-4.6,3.3-6.3,5.1c-1.2,4.1-3.5,7.6-2.1,11.7c-4.2,1.7-6.4,4-7.5,8.6c-0.9,3.4-1.3,7.2-2.4,10.7
		c-0.8,2.6-4.1,6.1-0.7,9.3c-2.1,1.8-3.1,4-2.8,7.1c1.1,1.2,2.4,2.4,3.6,3.7c-1.9,1.3-1.1,4.9-4.5,4.5c0.7,2.6,1.2,4.7,1.8,6.8
		c-1.6,1.7-1,3.8-1.4,5.7c1.6,0.1,2.5-0.3,2.8-1.4c2.4,3.3,0.5,6.6,0,9.7c1.7,4.1,4.5,7.3,6.7,10.9c1.4-0.9,2.5-2.2,3.8-0.4
		c0.7,1.7-1.5,2.9-0.5,5.2c1.4,1.5,3.7,3.3,3.1,6.2c1.4,0.8,1.8-1.5,3.1-0.2c0.5,3.4,2.9,6.2,4,9.6c3.6,0,6.6,1.9,9.8,1.3
		c1.3,0.9,0.8,3,3.4,3.2c2.4-0.3,5.1,0.6,6.9,2.9c5.6,0.8,10.2-1.3,14.9-3.3c1.3,0.9,1.1,4,3.9,2.5c1.6-1.7-1.7-3.2-0.7-4.3
		c3-2.4,3.2,1.3,4.8,1.1c4.7,0,7.5-4,10.9-5.5c2,0.5,1.2,3.1,3.4,2.8c0.5-4.7,3.5-3.3,5.9-2.4c1.5-0.7,0.1-2.1,1.6-3.1
		c4.8,0.8,7.3-7.7,13.6-4.2c0.8-1.6,1.5-3.3,3.6-4.5c2.4-0.4,5.2-0.8,8-1.2c4.3-2.7,6.6-7.2,9.8-10.8c0.1-1.2-1.9-0.8-1.7-2.2
		c0.9-0.9,2.7-0.7,3.4-2.1c1.3,0.7,2.7,0.5,4.1,0.1c-0.1-1.3-0.6-2.6,0-3.9c1.2-0.6,2.1,0.1,3,0.8c5.2,0.9,6.1-3.3,7.9-6.6
		c2.4,0.5,4-1.7,6.2-1.9l-0.1,0.1c0,0,0.1,0,0.1,0c0,0,0-0.1,0-0.1c4.3-3.3,9.1-5.7,14.8-6.7c0.5-1.6-1.9-4.3,2.5-4.5
		c-1.8-1.2-2.7-1.9-3.7-2.5c-1.5,0.6-3,0.5-4.3-0.7c-0.2-1.4,1.5-1.6,1.6-2.7c0.9-1.2,1.7-2.3,2.6-3.5c0,2.3,0,4.5,0.1,6.8
		c2.7-1.2,4.4-3.4,5.8-5.9c2.4,0.9,1,2.8,1.1,4.9c1-0.9,1.8-1.8,2.5-2.7c0.1,0.4,0.2,0.8,0.3,1.2c-1.6,1.7-1,3.8-1.4,5.7
		c1.6,0.1,2.5-0.3,2.8-1.4c2.4,3.3,0.5,6.6,0,9.7c1.7,4.1,4.5,7.3,6.7,10.9c1.4-0.9,2.5-2.2,3.8-0.4c0.7,1.7-1.5,2.9-0.5,5.2
		c1.4,1.5,3.7,3.3,3.1,6.2c1.4,0.8,1.8-1.5,3.1-0.2c0.5,3.4,2.9,6.2,4,9.6c3.6,0,6.6,1.9,9.8,1.3c1.3,0.9,0.8,3,3.4,3.2
		c2.4-0.3,5.1,0.6,6.9,2.9c5.6,0.8,10.2-1.3,14.9-3.3c1.3,0.9,1.1,4,3.9,2.5c1.6-1.7-1.7-3.2-0.7-4.3c3-2.4,3.2,1.3,4.8,1.1
		c4.7,0,7.5-4,10.9-5.5c2,0.5,1.2,3.1,3.4,2.8c0.5-4.7,3.5-3.3,5.9-2.4c1.5-0.7,0.1-2.1,1.6-3.1c4.8,0.8,7.3-7.7,13.6-4.2
		c0.8-1.6,1.5-3.3,3.6-4.5c2.4-0.4,5.2-0.8,8-1.2c4.3-2.7,6.6-7.2,9.8-10.8c0.1-1.2-1.9-0.8-1.7-2.2c0.9-0.9,2.7-0.7,3.4-2.1
		c1.3,0.7,2.7,0.5,4.1,0.1c-0.1-1.3-0.6-2.6,0-3.9c1.2-0.6,2.1,0.1,3,0.8c5.2,0.9,6.1-3.3,7.9-6.6c2.4,0.5,4-1.7,6.2-1.9l-0.1,0.1
		c0,0,0.1,0,0.1,0c0,0,0-0.1,0-0.1c4.3-3.3,9.1-5.7,14.8-6.7c0.5-1.6-1.9-4.3,2.5-4.5c-1.8-1.2-2.7-1.9-3.7-2.5
		c-1.5,0.6-3,0.5-4.3-0.7c-0.2-1.4,1.5-1.6,1.6-2.7c0.9-1.2,1.7-2.3,2.6-3.5c0,2.3,0,4.5,0.1,6.8c2.7-1.2,4.4-3.4,5.8-5.9
		c2.4,0.9,1,2.8,1.1,4.9c3.8-3.2,5.2-7.1,6.2-10.2C585.3,228,583.5,220.2,575.4,215.3z M524.8,138c-1.7,2.4-3.7,3-6,2.6
		C520.5,139.4,521.3,136,524.8,138z M487.4,165c0.7,1.7,2.1,2.9,4,5.2C487.8,169.2,486.3,168.1,487.4,165z M472,169.3
		c1.2,1,1.4,1.9,1.2,3.3C471.8,171.9,470.6,171.5,472,169.3z M473.1,203c-0.2-2.5-0.4-5-0.6-8.7C475.4,197.8,473.2,200.4,473.1,203z
		 M471,159.7c1.6-0.3,1.9,0.9,2.7,2.6C470.8,162.6,470.5,161.6,471,159.7z M465.2,205.3c1.3,0.6,1.3,1.7,1.2,3.4
		C463.8,207.8,464.2,206.7,465.2,205.3z M461.6,228c-1.5,0.6-2-0.2-2.4-2C460.6,226.2,461.4,226.6,461.6,228z M454.6,168.5
		c0,1.7,0.3,3.5-1.2,5.1C452,171.3,452.9,169.8,454.6,168.5z M452.6,178.5c-0.7,4.2,2.4,4.4,5.1,5.7c-3.1,2.2-5,1-7.2-0.6
		C450.6,181.7,450.9,180.4,452.6,178.5z M448.9,200.8c-0.7,2.5-2.3,2.4-4.4,2.2C445.9,201.7,447.1,201,448.9,200.8z M441.7,243.8
		c-0.4-2.3-2.1-4.8,0.9-6.7C443.9,241.5,443.9,241.6,441.7,243.8z M443.8,198.5c-0.7,1.2-1.4,2.4-2.1,3.6
		C439.7,201.4,440,200.8,443.8,198.5z M441.7,243.9c0.3,1.7,0.6,3.4,0.9,5.2c-1.1,2.1-2.9,3.2-5.2,3.6c-0.6-1.6-1.3-3.2-2.1-5.3
		C438.5,247.9,439.6,245.1,441.7,243.9z M439.4,206.1c-0.2,2.3-1.9,4.5,0.4,6.7c-2.7,0-2.6-2.7-4.7-2.6
		C436,208.3,435.4,205.2,439.4,206.1z M435.5,239.4c1.7,1.1,3.6,2.3,0.5,4.5c-1.5-1.3-1.9-2.7-2.3-4
		C434.4,239.1,435,239.1,435.5,239.4z M431.1,229.2c0.5,2.6,1.4,4.2-0.6,5.9C428.6,233.1,429.8,231.6,431.1,229.2z M429,238.2
		c1.7,1.1,1.6,3.1,2.8,5.5c-2.2-1.2-3.7-2-5.3-2.9C427.6,239.7,428.2,239,429,238.2z M357.2,149.9c-1.7,2.4-3.7,3-6,2.6
		C352.9,151.3,353.7,148,357.2,149.9z M319.8,176.9c0.7,1.7,2.1,2.9,4,5.2C320.2,181.2,318.7,180,319.8,176.9z M304.4,181.3
		c1.2,1,1.4,1.9,1.2,3.3C304.2,183.8,303,183.4,304.4,181.3z M305.5,214.9c-0.2-2.5-0.4-5-0.6-8.7
		C307.9,209.7,305.6,212.4,305.5,214.9z M303.4,171.6c1.6-0.3,1.9,0.9,2.7,2.6C303.2,174.6,302.9,173.5,303.4,171.6z M297.6,217.2
		c1.3,0.6,1.3,1.7,1.2,3.4C296.3,219.8,296.6,218.6,297.6,217.2z M294,239.9c-1.5,0.6-2-0.2-2.4-2C293,238.1,293.8,238.5,294,239.9z
		 M287,180.5c0,1.7,0.3,3.5-1.2,5.1C284.4,183.3,285.3,181.8,287,180.5z M285,190.5c-0.7,4.2,2.4,4.4,5.1,5.7c-3.1,2.2-5,1-7.2-0.6
		C283,193.7,283.4,192.4,285,190.5z M281.3,212.8c-0.7,2.5-2.3,2.4-4.4,2.2C278.3,213.7,279.5,212.9,281.3,212.8z M274.2,255.7
		c-0.4-2.3-2.1-4.8,0.9-6.7C276.3,253.5,276.4,253.5,274.2,255.7z M276.2,210.5c-0.7,1.2-1.4,2.4-2.1,3.6
		C272.1,213.3,272.4,212.7,276.2,210.5z M274.1,255.9c0.3,1.7,0.6,3.4,0.9,5.2c-1.1,2.1-2.9,3.2-5.2,3.6c-0.7-1.6-1.3-3.2-2.1-5.3
		C270.9,259.9,272,257,274.1,255.9z M271.8,218c-0.2,2.3-1.9,4.5,0.4,6.7c-2.7,0-2.6-2.7-4.7-2.6C268.5,220.2,267.8,217.2,271.8,218
		z M268,251.4c1.7,1.1,3.6,2.3,0.5,4.5c-1.5-1.3-1.9-2.7-2.3-4C266.9,251.1,267.4,251,268,251.4z M263.5,241.1
		c0.5,2.6,1.4,4.2-0.6,5.9C261,245,262.2,243.6,263.5,241.1z M261.4,250.1c1.7,1.1,1.6,3.1,2.8,5.5c-2.2-1.2-3.7-2-5.3-2.9
		C260,251.6,260.7,250.9,261.4,250.1z M249.2,247.8c1.5-1.2,2-4,5-3.2C252.9,248.8,252.1,249.3,249.2,247.8z M252,252.1
		c1.1-0.7,2-0.8,3.1-0.2c-0.1,1.1-0.3,2.2-0.5,3.3c-0.9,0.1-1.7,0.1-2.6,0.2C252,254.2,252,253.1,252,252.1z M253.4,261.9
		c0.6-2.2,1.8-4.2,1.1-6.3c1.4,0.6,2.4,1.5,3.3,2.6C256.2,259,256.2,261.5,253.4,261.9z M279.3,298.9c0.7-1,1.6-1.4,3.1-1
		C281.4,299.2,280.4,299.1,279.3,298.9z M287.3,315.4c1.6,1.9,2.6,3.1,3.7,4.3C288.3,319.9,287.4,318.5,287.3,315.4z M300.7,313.1
		c1.8,0,2.3,0.9,2.5,2.4C301.8,315.6,301,314.9,300.7,313.1z M313.2,289.6c-2.5-0.2-3.7-1.2-2-4.1c1.1,1.4,1.9,2.4,2.7,3.4
		C313.6,289.1,313.4,289.6,313.2,289.6z M327.9,305.1c1.7-0.7,2.6-0.8,3.6,0.2C330.4,306.4,329.4,305.5,327.9,305.1z M332.6,275.3
		c1.3-1.1,2.6-2.1,4-3.3c0.6,1.5,1.2,2.9,1.7,4.1C335.9,279.4,334.5,276.6,332.6,275.3z M341.3,281.9c-0.5-0.3-1-0.6-1.6-0.9
		c1.4-2.7,1.8-5.6,1.7-8.5c1.6,0.1,2.4,1,3.6,2C343.8,277,342.5,279.5,341.3,281.9z M350.1,281.1c-1.2-0.9-0.8-2-0.5-3.5
		c1.9,0.5,2.6,1.5,3.3,2.4C352.3,281.2,351.3,281.4,350.1,281.1z M351.7,273.6c0.4-1.7,1.3-2.2,2.8-2.2
		C354.2,273.4,353,273.3,351.7,273.6z M358.9,267.6c-1.4-0.6-1.1-1.9-1.4-3.5c2,0,2.3,1.5,3.3,1.8
		C360.6,267.3,359.5,267.1,358.9,267.6z M367.3,281.7c2.6,0.3,2.6,2.2,2.9,3.8C368.4,285,367.1,284,367.3,281.7z M361.7,276.9
		c3.2-1.7,5.1,0.6,8.7,0.1C366.5,280.2,364.4,278.7,361.7,276.9z M371.4,260.1c-1-0.2-1.7-0.9-1.4-1.7c0.7-2.1,1.9-1.6,3.1-0.4
		C373.2,259.3,372.4,259.8,371.4,260.1z M384.3,270.1c-2-1.7-0.6-3.4-0.8-4.9C384.7,266.5,384.9,268,384.3,270.1z M386,260.4
		c-1.1,1.4-2.4,2.7-2.6,4.6c-5.2-1.3-6.1-2.5-5-6.6c0.9-0.5,1.5-0.1,2.1,0.5c0.4,0.4,0.8,0.9,1.4,1.4c1.8-1.3,2.9-3.6,5.5-3.2
		c0.7,1.5,1.4,3.1,2.1,4.7C387.7,263,387.4,260.4,386,260.4z M407.7,251.3c2.2,0.2,2.1,2.2,3,3.2C407.5,255.6,407,254.3,407.7,251.3
		z M416.8,235.8c1.5-1.2,2-4,5-3.2C420.4,236.9,419.6,237.4,416.8,235.8z M419.5,240.1c1.1-0.7,2-0.8,3.1-0.2
		c-0.2,1.1-0.3,2.2-0.5,3.3c-0.9,0.1-1.7,0.1-2.6,0.2C419.6,242.3,419.6,241.1,419.5,240.1z M421,249.9c0.6-2.2,1.8-4.2,1.1-6.3
		c1.4,0.6,2.4,1.5,3.3,2.6C423.7,247,423.7,249.5,421,249.9z M446.9,286.9c0.7-1,1.6-1.4,3.1-1C448.9,287.2,448,287.1,446.9,286.9z
		 M454.9,303.4c1.6,1.9,2.6,3.1,3.7,4.3C455.9,307.9,455,306.6,454.9,303.4z M468.3,301.2c1.8,0,2.3,0.9,2.5,2.4
		C469.4,303.6,468.6,302.9,468.3,301.2z M480.7,277.6c-2.5-0.2-3.7-1.2-2-4.1c1.1,1.4,1.9,2.4,2.7,3.4
		C481.2,277.2,481,277.6,480.7,277.6z M495.4,293.1c1.7-0.7,2.6-0.8,3.6,0.2C498,294.4,497,293.6,495.4,293.1z M500.2,263.4
		c1.3-1.1,2.6-2.1,4-3.3c0.6,1.5,1.2,2.9,1.7,4.1C503.4,267.4,502.1,264.6,500.2,263.4z M508.9,270c-0.5-0.3-1-0.6-1.6-0.9
		c1.4-2.7,1.8-5.6,1.7-8.5c1.6,0.1,2.4,1,3.6,2C511.3,265.1,510.1,267.5,508.9,270z M517.7,269.1c-1.2-0.9-0.8-2-0.5-3.5
		c1.9,0.5,2.6,1.5,3.3,2.4C519.9,269.3,518.9,269.4,517.7,269.1z M519.2,261.6c0.4-1.7,1.3-2.2,2.8-2.2
		C521.8,261.4,520.6,261.3,519.2,261.6z M526.5,255.7c-1.4-0.6-1.1-1.9-1.4-3.5c2,0,2.3,1.5,3.3,1.8
		C528.1,255.4,527.1,255.2,526.5,255.7z M534.9,269.7c2.6,0.3,2.6,2.2,2.9,3.8C535.9,273,534.7,272.1,534.9,269.7z M529.3,265
		c3.2-1.7,5.1,0.6,8.7,0.1C534.1,268.3,532,266.8,529.3,265z M539,248.2c-1-0.2-1.7-0.9-1.4-1.7c0.7-2.1,1.9-1.6,3.1-0.4
		C540.7,247.3,540,247.9,539,248.2z M551.9,258.1c-2-1.7-0.6-3.4-0.8-4.9C552.3,254.6,552.5,256.1,551.9,258.1z M553.5,248.5
		c-1.1,1.4-2.4,2.7-2.6,4.6c-5.2-1.3-6.1-2.5-5-6.6c0.9-0.5,1.5-0.1,2.1,0.5c0.4,0.4,0.9,0.9,1.4,1.4c1.8-1.3,2.9-3.6,5.5-3.2
		c0.7,1.5,1.4,3.1,2.1,4.7C555.3,251,555,248.5,553.5,248.5z M575.3,239.3c2.2,0.2,2.1,2.2,3,3.2
		C575.1,243.7,574.5,242.3,575.3,239.3z"/>
	<path class="st3" d="M559,262.4c0.1,1.9-2.1,3.3-1.2,5.3c1.5,0.3,2.5-0.1,3.4-1.1C561.5,264.7,560.9,263.2,559,262.4z"/>
	<path class="st2" d="M691.2,72.6c0.9,1.2-0.3,2.6,0.9,3.5c1.5,1.3,3.4,0,5.4,0.5c-1.1,1.6-3.1,2.6-2.3,5c1.4,1.8,4,2.2,6.3,4.1
		c0.4-3.4,3.9-2.2,5.6-4.8c0.2-2.6,2.2-5.7-0.8-9.2c4.5-0.5,6.3-3.4,8.7-6.3c-3.5-0.5-1.9-3.8-3.7-5.3c-1.4-0.1-2.8-0.2-4.2-0.2
		c-2-0.7-2-0.7-0.6-4c1.4,0.8,1.1,1.8,0.6,3c2.8,0.1,5.2-0.6,6.8-3.8c-1.4-3.1-0.2-6.7,0.2-10.5c-2.6-2.5-2.5-5.9-2.6-9.2
		c3.1-0.4,6.8,0.1,7.2-4.9c-2.7-6.6-12.2-7.3-13.6-14.9c-1.5-0.1-1,1.3-1.8,1.6c-1.6-0.2-2.3-4-5-1.2c1.2,2,4.4,3.2,3,6.4
		c-5.6,1.5-8.9,6.1-12.8,9.3c-2.9,1.5-5.1-1.8-7.9-0.5c1.6,2,2.2,4.1,1.8,6.5c-1.5,0.9-2.9,1.7-4.4,2.6c0.6,6.8-6,11-6.3,18.5
		C678,63.1,680.4,73.5,691.2,72.6z M704.7,23.7c1.3,1.7,2.6,3.4,3.6,4.7c1.1,2.4-0.1,3.9-1.2,5.5c1.1,1.3,3.1,0.1,4.1,1.4
		c-1.5,0.4-2.9,1.3-4.8,1c-1.2-1-2.6-2.1-3.9-3.1C701.5,29.7,702,26.6,704.7,23.7z M703.6,42.2c-0.6,1.3-1.8,1.3-3,1.1
		C701.5,40.6,701.5,40.6,703.6,42.2z M701.8,46.9c3.8,2.8-2.3,5.4,0.8,8.1C697.8,52.5,702.8,49.5,701.8,46.9z M700.3,57.9
		c1.8,0.8,2,1.9,1.9,3.1C699.4,60.8,699.4,60.8,700.3,57.9z M679.3,58.1c-1.1-2,0.4-2.5,1.3-4.4C681.6,56.5,681,57.4,679.3,58.1z
		 M682.8,46.1c-0.9,3.7-1.7,5.9-5.2,3.5C678.4,47,680.7,47.6,682.8,46.1z"/>
	<path class="st3" d="M623.2,295.2c2.9-0.3,5.4,1,7.8,3.5C630.4,294,630.3,294,623.2,295.2z"/>
	<path class="st3" d="M690.2,18.6c0-2.1,2.8-5-2-6.5C689.2,14.7,687.8,17,690.2,18.6z"/>
	<path class="st3" d="M606.2,250.4c-0.9-1.8-2.1-2.7-4.1-2.3c-0.9,1.2-0.6,2.3-0.4,4C603.6,251.9,605.3,252.3,606.2,250.4z"/>
	<path class="st2" d="M828.4,246c3-0.2,4.4,2.9,7.1,3c0-2.3-3-2.6-2.2-5.1c2.1,1.1,4.1,2.6,5.7-1c-0.1-1.3-1.4-3,0-4.7
		c0.9-0.1,0.8,0.8,2.3,2.3c-1.6-4.6,2.5-4.1,3.5-5.9c-0.3-4.3-1.7-8.5,4.4-9.6c1.3-0.2,2.5-2.5,2.1-4.1c-1.4-4.9,1.9-8,4.1-11.3
		c0-10.6,0.3-12.1,4.7-18.7c-1.5-2.4,0.1-5.4-1-8.2c0,0,0,0,0,0c-0.2-4,1.5-7.5,2.8-10.7c-1-4-1.5-8.1-2.2-12
		c0.7-1.2,0.5-2.7-0.9-4.8c-0.2-0.3-0.4-0.6-0.6-1c-0.4-0.9-0.8-1.9-1.2-2.7c-0.5-1.4-0.7-2.9-0.6-4.5c-1.5-1.4-2.8-3.1-4.2-4.6
		c0-0.7-0.1-1.4-0.4-2c-6.1-4.5-11.1-9.9-14-15.6c-0.8-0.6-1.6-1.3-2.4-1.9c0-2.5-0.3-5-1.8-7.3c-0.4,1.8-1.1,3.1-2.3,3.9
		c-1-0.8-2-1.5-3-2.1c0-0.2,0-0.5-0.1-0.7c-0.4-1.3-2.6-0.8-2.7-2.6c1.2-0.1,2.3-0.1,3.5-0.2c-0.2-1.3-1.4-2.2-0.9-3.5
		c-0.8-0.7-1.6-1.5-2.5-2.2c-1.3,0-2.3,1.6-3.9,0.5c-0.5-1.6-2-3.3,0-4.9c2.2,0,2.4,2,3.4,3c0.8-1.3,2-1.1,3.1-0.7
		c0.8,1.5,0.7,2.9,0,4.4c1.6,0.9,3.2,1.8,4.8,2.8c-0.3-3.9,3.2-2.1,4.8-3.2c0.1-1.2-0.5-1.9-1.2-2.6l0.1,0c0,0,0,0-0.1,0
		c0,0,0,0,0,0.1c-2.8,0.5-5.2-0.5-7.5-2.1c0.2-0.5,0.3-1,0.5-1.5c1.2-0.2,1.8,1.8,3.4,0.4c1.2-0.5-0.5-2.9,1.7-3.5
		c1.1,2.1-0.8,5.2,2,6.6c1-4.4,3.2-6.8,7.5-7.9c-0.2-0.9-0.4-1.8-0.6-2.8c-0.2-0.9-0.5-1.8-0.7-2.9c6.2-2.7,10-7,10.4-13.4
		c1.8-2,3.4-1.5,4.9-0.3c1.5-1.4-0.6-2.5,0.1-4.2c0.9-0.5,2-1.1,3.2-1.8c-3.3-3.6,0.2-6.9,0.6-10.3c1.3,2.5-0.8,5.8,1.9,7.9
		c0.6-1.4,1-3,2.8-3.3c2.9-0.5,4.1-2.6,5-5c4.3-0.5,7.7-3.2,11.5-5c2.9-1.4,4-4.6,5.1-8.9c-11.2-12.4-23.8-24-39.4-32.6
		c-2.3,3.7-4.8,5.3-8.3,5.6c-0.2,3.9-3.3,6.7-3.5,10.7c-1.3,0.9-2.8-0.6-4.8,0.1c-0.1,4.2-2.1,7.5-6.3,9.5c0.2,1.8,2.9,2.5,2,4.9
		c-1,2.6-3.2,3-4.9,4.2c-1.9-1.4,0.4-2.7-0.4-4c-2.6,1.3-2.1,4-3.1,6c-1.2,0.6-1.8-4.2-3.4-0.5c-1.3,0.7-2.6,1.5-3.9,2.2
		c-0.1,3.2,0.3,5.4,4.1,3c2.5,2.4,0.4,3.3-1.5,3.6c-1.4,0.3-3-0.3-4.5-0.4c-2.3,1.9-3.3,4.7-5.1,6.9c-0.7,1-1.5,2-2.2,3
		c1.1,1.2,2.2,0.9,3.3,0.8c-0.7,3.1-3.4,5.2-4.4,8c-1.4,0.9-2-2-3.4-0.8c-1.7,2.3,1.4,2.4,1.5,4.1c-2.9,4.3-3.5,9.5-4.9,14.8
		c2.6,2.1,4.7,0.1,6.5-0.4c1.2-1.1-0.2-2.6,1-3.4c4.9,2.6,0.9,4.5-0.2,6.2c-0.9,2.2,1.4,3.7,0.1,5.9c-2.3-0.7-2.5-5.9-6.6-3.5
		c-0.2,3.3,3.5,5.8,2.8,9.2c-1.5-0.6-3.4,0.4-4.4,0.7c-7.9,2.5-15.2-1.1-23-1.4c-1,1.3-2.1,2.9-3.3,4.5c-1-0.9-1.8-1.6-3-0.9
		c-1.3,0.6,0.6,2.4-1.1,3.1c-2.7-1.5-5.3-0.8-7.6,1c-1.6,1,0.3,3.4-1.8,4.2c-2-0.8,0.1-2.6-1-3.6c-6.9,2.1-11.1,8.3-17.7,11
		c-3.3,1.3-5.9,3.7-8.5,6.5c-2.7,2.8-5.2,6.1-8.6,8.3c-12.6,8.1-19.3,20.9-26.4,33.4c-2.3,4.2-4.3,8.2-7.8,9.3
		c-8.8,11.4-10,25-15.5,37.2c2,0.8,1.9,3.9,3.6,7.3c-2.6-1.1-4.5-0.1-4.5,1.6c-0.1,3.7-1,7.8,1.6,11.1c0.9,1.1,1.9,1.8,1.8,3.5
		c-0.7,6.9,1.5,13.1,3.8,17.3c12.6,13.2,24.7,24.3,39.4,32c1.6,0.8,0.1,3.2,2.6,4.1c1.9-1.2,4.1-2.2,5.6,0.7
		c2.1-0.7,3.3-4.1,5.7-1.6c0.8,2.5-3.3,1.9-2.3,4.5c3.6,2,7.3-1.6,11-0.1c0.3,0.6-0.5,1.6,0.7,2c5.5-1.3,11-2.3,15.6-1.5
		c5.3-3.4,9.7-6.7,15.4-6.9c3-0.1,5.7-0.3,5.5-4.3c8.6,4.4,10.7-5.9,16.6-7.2c0.9-1.7-0.6-3.6,1.1-4.8c2.5-0.4,0.8,3.1,3.5,3.1
		c2.5,0.7,3.2-1.8,4.8-3.2c-0.9-0.9-2.1-0.7-1.8-2.2c2.6-1.8,4.7-5.1,8.8-4.1c2.9-4.3-0.9-7.2-1.9-10.9c1.4,2.2,2.8,3.9,5.3,2
		c0.2,2.3,0.5,4.4,3.9,3.2c1.3-7.2,9.1-9.2,13.4-15.2c-2.5-2.2-3.6-5.3-6.9-7C824.7,249.6,826.6,247.4,828.4,246z M871.6,63.5
		c-1.7-0.5-3.5-1-4.2-3.1C870.3,60,871.2,61.5,871.6,63.5z M863.8,60.4c0,1.6-1.2,2.3-1.9,3.4C861.5,62.1,861.1,60.5,863.8,60.4z
		 M856.6,52.5c0.4,1.7-0.2,3-1,4.5C855.5,55.3,855.6,53.8,856.6,52.5z M834.1,97.7c-1.2-1.6-1.5-3-0.7-5
		C834.6,94.3,835.9,95.6,834.1,97.7z M835.2,54.4c1.1,0.9,2.1,2,2.3,3.7C833.8,58.5,835.1,56.1,835.2,54.4z M837.9,83.1
		c-1.6-3.4,1.2-5.9,1.1-9.3c3.7,1.7,0.3,4.1,1.4,5.7C838.6,79.9,839.1,82.1,837.9,83.1z M840.2,67.5c1.1-1.2,2.2-1.1,3.3-0.5
		C842.7,70.1,841.6,69,840.2,67.5z M839.9,95.7c-1.1-3.6-0.3-5.2,1.1-6.6c0.4,0.2,0.8,0.3,1.2,0.5C841.5,91.3,840.9,93,839.9,95.7z
		 M852.7,75.4c-1.7-0.6-1.8-1.9-2.4-4.1C852.3,72.7,853.8,73.4,852.7,75.4z M848.1,86.6c-0.3,0-0.6-0.5-0.9-0.8
		c0.3-1.5,0.8-2.8,3.1-3.7C851.4,85,851.2,86.6,848.1,86.6z M850,62.4c-1.4,2.4-1.4,2.4-4.1,0.5C847.4,62.3,848.4,60.9,850,62.4z
		 M847,78.4c-1,1.8-1.2,4.3-3.9,5.2c-0.8,1-1.6,1.7-3,0.2c0.1-1.2,0.2-2.7,0.4-4.1c0.7,0.7,1.4,1.4,2.1,2.1c0.4-1.4-0.4-3,0.9-4.7
		C844.3,78.5,845.9,76.1,847,78.4z M844.2,32.8c0.6,2.8-0.4,4.5-2.1,5.9C843.4,37.1,842.6,34.8,844.2,32.8z M842.2,42.8
		c-1.7,1.6-1.8,3.8-4.1,3.7C838.8,45,839.8,43.7,842.2,42.8z M838,46.6c-0.6,1.2,0.2,3-2.4,4.6c2.4-4.3-2.9-3-2.8-5.9
		C835.4,42.6,836.3,46.6,838,46.6z M833.7,52.2c1.2,0.2,1.3,1.1,1.5,2.1c-0.7,0.1-1.3,0.2-2,0.3C832.8,53.7,832.6,52.8,833.7,52.2z
		 M671,238.3c-0.2-3,0.7-3.4,2.7-2.2C673.5,237.5,672.6,237.8,671,238.3z M827.8,225.8c-1.6-0.5-0.7-1.8-0.8-2.7
		c-0.1-0.6,0.1-0.8,0.4-0.5C828.1,223.6,829,224.4,827.8,225.8z M827.6,203.3c1.7-0.1,1.1-1.7,1.8-3c1.8,0.6,3.1,4.4,5.9,1.2
		C833.2,205.2,830.6,205.1,827.6,203.3z M802.2,123.7c-1.3,0.2-2.1-0.4-3.4-1.2c0.7-2.2,0.3-4.7,1.4-7c1.1,1.4,2,3,3.1,4.2
		c-0.4,0.1-0.8,0.2-1.2,0.3C801.1,121.5,802.4,122.6,802.2,123.7z M835.7,165.6c-0.4,2-2.1,2.2-3.2,3
		C832.7,166.9,832.5,164.7,835.7,165.6z M835.7,185.6c-4.5,0.6-3.7-2.3-4.2-5.9C834.3,181.7,832.2,185.8,835.7,185.6z M831.4,240.4
		c1.2-1.9,2.1-2,3.2-0.7C833.6,241.4,832.7,240.4,831.4,240.4z M836.8,237.3c-0.7-1.6-1-3.1,1.4-4
		C839.1,235.5,837.5,236.2,836.8,237.3z M833.8,224.7c1.9-3.2,1.9-3.2,4.9-1.4C837.4,225.2,835.5,224.6,833.8,224.7z M840.6,173.2
		c-0.6-2.7-1-4.3-1.3-5.9C841.1,168.6,840.9,170.4,840.6,173.2z M843,204.7c0.6-1.4,1.3-1.5,2.3-1.2
		C845.5,205.3,844.8,205.6,843,204.7z M848.1,183c-1-2,0.2-2.6,0.5-4.1C849.7,180.8,849,181.6,848.1,183z M851.2,198.2
		c0.1-1.6,0.7-2,1.6-2.3C853.3,197.4,852.7,197.9,851.2,198.2z M853.1,188.6c1.1-2,2.1-0.8,3.5-1.2
		C855.5,189.4,854.7,189.9,853.1,188.6z M854.7,180.6c2.8-0.7,3.2,1.4,4.3,2C856.5,184.3,856.5,181.6,854.7,180.6z M825.6,72.4
		c-0.9,1.3-2.5,1.7-4.1,1.6c0.1-2,3.4-2.8,2-5.4c0,0,0,0,0.1,0c0,0,0,0,0-0.1c0,0,0,0,0,0c0,0,0,0,0,0.1c-1.3,0.2-2.6,0.4-3.6-1.5
		c-0.1-0.9-0.1-2.2-0.2-3.5c1.3,1.6,2.5,3.3,3.8,4.9C826.9,68.5,827.2,70.2,825.6,72.4z M826.1,65.2c-2.6,0.4-4-2.1-6.3-1.7
		c-0.1-0.2-0.2-0.4-0.4-0.5C822.1,62.1,824.3,62.7,826.1,65.2z M819.3,115.5c-0.5,0.1-1,0.2-1.5,0.4c-0.5-1-0.7-2.1,0.8-3.1
		C819.7,113.8,819.7,114.7,819.3,115.5z M818.7,93.9c-1.1,0.9-1.8,1.8-3.2,1.2C815.9,93.5,816.6,92.7,818.7,93.9z M811,69.2
		c1.1,0.5,1,1.3,0.9,2.1c1.1,1.6,0.7,3.1-0.3,4.6c-1.3-0.8-1.5-2-1.6-3.3C808.8,70.8,809.1,69.7,811,69.2z M811.3,93.4
		c-0.4,1.4-1,1.8-2.1,0.9C809.4,92.7,810.1,92.5,811.3,93.4z M757.9,120.9c2.4,0,3.2,1.2,3.1,4.3
		C759.1,123.9,757.6,123.2,757.9,120.9z M690.7,244.1c0.3,3.1-1.2,3.8-3,4.8C686.4,245.9,688,245,690.7,244.1z M684.3,232.6
		c-1.5,1-2.3,0.9-2.4-1C683.3,230.8,684.2,230.7,684.3,232.6z M681.8,240.8c2.2,1.2,0.4,3,0.9,4.2
		C681.6,243.9,680.4,242.8,681.8,240.8z M682.9,245.4c1.9,2.3,1.9,2.3-0.2,3.9C680.5,247.8,682.4,246.6,682.9,245.4z M682.8,254
		c0.9-3.7,2.9-2.6,4.9-1.5C686.3,254.1,684,251.4,682.8,254z M689.3,256.9c0.9-2.6,2.9-4,2.8-7.2
		C693.8,256.8,693.8,256.8,689.3,256.9z M695.3,258.3c1.7-1,2.8-1.6,4.3-2.5C699.3,258.4,698.1,259,695.3,258.3z M700.8,267.1
		c-1.8-2.1-0.9-4.1-0.5-6C702.5,262.9,703.1,264.8,700.8,267.1z M705.5,226.6c0.9-1.3,1.2-2.4,2.5-2.3
		C709,226.3,708,226.8,705.5,226.6z M741.1,285.2L741.1,285.2c1.7-1.2,2.2-0.5,2.4,1.3C741.7,287.1,741.4,286.3,741.1,285.2z
		 M754.2,279.4c0.3-2.5-5.4-2.4-2.7-6.2C754.1,274.7,754.7,276.9,754.2,279.4z M775.7,286.7c2.3,1.5,4.9,2.8,5,6.1
		C775.9,289.4,775.9,289.4,775.7,286.7z M778.4,261.8c3.4,0.6,3.4,0.6,5.1,6C782.7,267.5,779.8,264.1,778.4,261.8z M791.7,250.4
		c1.5-2.1,3.6-1.9,5.6-2C795.9,250.4,793.8,250.5,791.7,250.4z M804.3,233.9c-1.8-1.1-0.6-2.7-1.5-4.5c1.3,0.6,1.8,0.9,2.3,1.1
		C805,231.7,805.1,232.9,804.3,233.9z M811.4,264.9c-1.5-1.8-0.2-2,0.7-2.7C813.6,264.1,812.7,264.5,811.4,264.9z M818.5,215.1
		c-1.3,1.7-2.6-0.6-4.1,0c-1.1,1.1-0.7,4.2-3.9,3.2c-1.1-1.2,1-2,0.6-3.2c-1.1-0.8-2.3,0.4-3.6,0.1c-0.5,3-2.1,6.1,1.2,8.8
		c0.9,0.9,0.7-1.4,2.7-0.7c0.3,0.2,1.2,1.1,1.8,2.9c-2.7,0.4-4.7,1.6-4.3,4.4c-1.6,0.9-2.6,0-3.8-0.2c0-1.5,0.3-3.1-1-4.6
		c-0.8,0.2-1.7,0.3-2.7,0.5c-0.8,1.8,0.1,4.1-1.7,5.5c1.2,2.9-0.3,5.3-1.4,8c-1.6-1.9-1.1-3.8-1.4-5.5c-1.9,0.6-3.5,2-5.7,2
		c0.4,1.5,0.6,2.6,0.9,3.8c-6.2,2.5-12.6,5.2-15.5,11.3c-1.7,3.7-5.5,4.1-7.4,6.9c-1.2-0.1-0.9-1.8-2.2-2.1
		c-3.7,4.3-9.3,5.8-14.1,8.6c-3.6,2-7.1,3.5-11.5,3.8c-3.2,0.2-6.8,1.4-7.7,5.2c-3.6,0.7-7-3.1-10.6,0.6c-1.1-2.2-3.4-1.9-5.8-1.2
		c-4.8-5.4-4.3-12.7-8.3-18.2c1.9-0.8,2.2,0.1,2.6,0.7c0.6,0.8,1.2,1,2.1,0.4c1.6-2-1.8-3.1-0.9-4.8c-0.7-2.8,4.1-4.2,1.6-7.4
		c0.6-1,2.1-0.1,2.6-1.3c-1.4-1.6-0.3-3.7-1-5.9c3.5-0.9,4.9-3,1.9-6.4c2.1-1,3.8-1.9,6.2-3.1c4.4-10.5,11.9-19.8,18-30
		c2.2-1.1,3.5-3.1,5.2-4.9c4.4-4.7,7.6-10.4,12.8-14.3c3.8-2.8,7.5-5.5,10.8-8.9c6.8-7.2,17-10.4,22.3-19.1
		c10.6,2.7,19.9-0.5,29-4.7c0.8,2-1.9,3-1.5,5.2c2.8-1.5,4.9-0.3,6.9,1.8c2.2,4.6,2.1,9.5,0.9,14.6c0.9,0.9,2.2,1.4,3.5,1.7
		c0.5,6-1.3,8.7-6.6,10.5c-0.4,2.5,2.3,2.5,3.1,4c-5.3,3.9-6.4,10.1-2.6,16.7c0.6,1.1,0.9,2.1,1.2,3.2c-2.1-1.4-4.8-1.9-6.9-4.2
		c-0.7,1.9-1.7,3.4-3.1,4.6c1.4,1.5,3.7-0.5,4.4,2.2c-2.2,0.7-4.4,1.3-7,2.1C816.1,210.5,818.6,212.2,818.5,215.1z M822.5,220.3
		c1.3,1.4,0.8,2-0.5,2.2C820.6,221.4,822.2,221,822.5,220.3z"/>
	<path class="st3" d="M955.3,88.3c-1.4,1.8-1.2,3.4-0.8,5.1C956.4,92.1,956.8,90.6,955.3,88.3z"/>
	<polygon class="st3" points="958.3,238.7 958.3,238.7 958.3,238.7 	"/>
	<path class="st3" d="M977.5,66.7c-1.1,1.9-1.8,3.2-3,5.2C977.8,71.3,978.1,69.8,977.5,66.7z"/>
	<path class="st3" d="M981.6,238.3c0.6,1.6,1.3,3.1,1.9,4.7C983.5,241.2,985.2,238.6,981.6,238.3z"/>
	<path class="st3" d="M981.5,238.2c0,0-0.1,0-0.1,0C981.4,238.3,981.5,238.3,981.5,238.2C981.5,238.3,981.5,238.3,981.5,238.2
		C981.5,238.3,981.5,238.3,981.5,238.2z"/>
	<path class="st2" d="M1039,97.8c-0.4-7.3-2.2-13.6-10.9-15.4c0.2-3-2.5-4.7-3.6-7.1c-1.1-0.7-2.5,0.7-3.6-0.7
		c-0.1-1.6-0.2-3.4-0.4-5.2c-3.2,0.2-4-5.1-7.8-2.4c-0.6-5.4-5.2-4.2-7.9-5.8c-4.1-2.4-4.6,4.8-8.2,3.1c-2.4,4.5-3.1,10.1-8.3,12.6
		c0.2,2.4,0.3,4.7,0.5,7.1c-1.3,0.8-3-0.6-4.2,1.7c0.2,1.5,0.4,3.4,0.7,5.4c-2.2,1.5-2.6,4.6-5.8,5.2c-1.1-0.6-2.3-1.3-3.5-2
		c-1.2-0.7-2.4-1.6-4-1.5c-1.4,0.3-2.2,1.6-3.2,2.5c1.9,0,3.4,0.4,3.6,2.7c-1.4,2-3.1,0.9-4.7,0.6c-1.3,4.2-6.6,7.6-11.6,6.9
		c1,2.4,1.9,4.6,2.8,6.8c-1.3,4.5-1.3,4.5-4.4,5.1c-0.5-1.2,2.9-0.5,1.3-2.3c-2.9-0.7-3.7,3.1-6.2,2.8c-1.7-0.8-0.5-3-2.1-3.7
		c-2.9-0.4-4.3,1.4-5.3,3.2c-0.5,1.7,1.6,2.9-0.1,4.4c-4.8-0.9-6.1,5.4-11.5,5.5c2.4-7,1.7-14.3,5.9-20.8c-1.7-2-1.2-4.7-0.9-6.7
		c-0.7-1.6-2.1-1.1-2.9-1.9c0.1-1.6,1.1-4.2-1.1-4.6c-3.2-0.5-2.4-2.6-2.9-4.5c-1.4-0.6-2.9-1.3-3.6-1.6c-6.6-8.8-15-13.2-25.2-15.7
		c0,2.1-1.8,2.3-3,3c2,7.6-6.9,11.5-5.7,18.7c-1.5-0.1-2.5-0.1-2.9,1.7c-1.3,12-7.3,23.3-8.9,35.7c-0.7,10.3-4.1,20.2-6.1,30
		c-0.8,0.8-1.3-1-2,0c-0.7,5,0.7,10-0.4,14.6c-1.7,7.4-4.6,14.5-5.9,22c-1.9,10.4-5.1,20.4-9.4,30.1c-5.1,11.6-9.7,23.5-13.3,35.7
		c-0.6,2.1-1.3,4.5-2.7,6.1c-4.6,5.3-5.3,12-7.5,17.7c4.1,7.4,12.9,9.4,16.2,15.8c6.8,5.1,14.9,7,19.3,14.4c1,0.2,2.2,0.4,3.4,0.6
		c2.3,0.4,4-1.8,6.9-0.8c5.3-23.3,17.4-43.4,25.4-65.7c1.4,0.6,2.7-0.1,2.8-2.2c1.7-0.7,2-1.8,0.9-3.2c-1.5-0.4-1.8,0.6-1.9,1.7
		c-0.8-1-1.2-2.1,0-3.9c0.7-1.5,3.3,0.5,4.4-1.4c2.7-4.8,4.5-10.2,10.1-13.1c0.2-2.8,0.6-5.7,3.9-6c1.5-2.9-0.5-5.6,0-7.7
		c2.1-3.1,5.5-0.7,7.4-2.8c-0.4-1.4-2.4-0.9-2.5-2.8c3.4,0.8,2.9-5.3,7.2-3.5c-0.9-2.8,1.8-4.4,1.5-6c-0.4-1.9-2.6-1.7-1.9-3.7
		c1.7,0.2,3.4,0.4,5.1,0.7c1-2.4,1.9-4.6,2.8-6.8c6.7-2.9,8.2-11.3,15.3-13.9c-0.9-1.8-2.2-3.5-1.1-5.5c9.9,1.2,4.1,9.2,6.2,13.8
		c-1.3,0.4-2.4,0.8-3.5,1.2c2.5,9.3-1.6,17.9-1.9,27.5c1.6,1.7,2.9,4,1,7.4c-2.7,4.8-4.8,9.8-7.1,14.8c-0.2,0.5-0.2,1.2-0.2,2
		c1,1.1,2,2.3,2.9,3.4c-0.5,2.2-3.3,2.9-2.9,5.9c2.1,1.7,5,4,0.2,6.5c1,1.7,1.9,3,4.6,2.6c0.8,0.1,0.4-2.7,2.3-2.1
		c0.7,1.6-0.5,2.8-0.5,4.2c0,0-0.1,0-0.1,0c0,0,0,0,0,0.1c0,0,0,0,0.1,0c0,0,0,0,0-0.1c2,0,3.8-0.2,3.5-3.3c2.6,2.6,0.1,4.6,0.4,6.6
		c0,0-0.1,0-0.1,0c0,0,0,0,0,0c0,0,0.1,0.1,0.1,0.1c0,0,0-0.1,0-0.1c2.8-1.1,5.6-0.2,8.4-0.6c-0.1-0.8-0.1-1.6-0.2-2.4
		c-3-1-0.4-6.9-5.6-5.7c2.1-6.4,5-11.8,5.6-18c2.5-0.1,1.6,2.4,2.7,3.4c1.4-0.6-0.2-3.6,2.6-3.2c2,1.4-1.2,2.2-0.5,3.3
		c0.4,2.1,3.1,2,3.5,4c-2,0.1-3.7-0.8-5.8,0c-1.5,4,0.9,8,0.9,12.1c2,2,4.4,3.4,7.4,3.2c-0.7-0.9-1.3-1.9-2.1-3
		c0.9-1.4,1.7-3.1,2-4.9c-1.3,0.1-2.5,0.1-2.3-1.8c1.7-1.1,2.5-0.6,2.7,1.4c0.6,0.9,0,2.5,1.6,2.8c2.1-1.6,0.9-4.7,2.9-6.4
		c2,4.8-0.4,9.8,0.8,15.4c0.6-1.5,0.9-2.2,1.3-3.2c1.2,1.6,1.8,2.5,3,4c0-8,5.9-15.4-1.1-22.8c2.2-0.3,4.3-0.7,5.6-3
		c-0.5-1.6-1.1-3.3-1.6-5c0.9-1.4,1.7-2.7,2.5-4.1c-0.5-1.9-0.6-3.8,0-6.1c0.9,1.1,1.6,2,2.3,2.9c2.5-6.6,4.9-13.3,7.1-19.3
		c-1.5-2.8-3.8-0.2-5.2-2c0.7-1.9,3.5-1,4.3-3.6c0.1-1.4,0.2-3.4,0.4-5.6c4.1-2.6,6.4-7,6.9-11.5c1.1-11,5.3-21,8.3-31.4
		c0.5-1.9-1.1-2.4-1.2-3.8c7.2-2.1,4.2-9.8,7.9-13.8c-0.6-1-1.1-1.9-1.6-2.6C1030,119.6,1032.9,108.1,1039,97.8z M929.5,103.8
		c1.4-1.4,2.2-0.9,2.9,0.8C931.2,105.4,930.3,105.6,929.5,103.8z M937.1,176c-1.9-3.5-1.9-3.5,0.6-6
		C936,171.7,937.6,173.8,937.1,176z M935.9,137.3c-0.8-2.5,0.6-2.6,1.9-3.2C938.7,136.1,938.1,137,935.9,137.3z M962.6,113.5
		c0.1,2.8,0.7,5.2-1.8,6.9C961.9,118.3,958.6,115.4,962.6,113.5z M946.3,120.5c2.3,2,0.1,3.9,0.1,5.8c-0.9-0.3-2-0.3-2.7-1.4
		C943.9,123.2,944.6,121.7,946.3,120.5z M941.8,129.7c0.7-1.5,1.8-1,3.3-0.7C943.9,131.5,942.9,130.8,941.8,129.7z M945.4,170.7
		c-1.2-1.6,0-2.3,1.5-3.6C947,168.9,946,169.7,945.4,170.7z M947.1,132.3c-1.1-1.9-0.1-4-0.6-5.9c2.8,0.6,2.6,3.9,4.9,5
		C949.9,133.6,948.5,133.3,947.1,132.3z M951.5,154.8c-1.4-1.9-3.4-3.3-3.3-6.4C951.9,149.6,952.3,151.9,951.5,154.8z M951.6,176
		c-2.1-2.8,1.9-4.6,0-6.9C955,171.6,955,171.6,951.6,176z M957.2,165.5c-2.3-1.6-5.3,0.9-8.1-2.2c2.6-0.6,5.2,1.6,6.4-1.5
		C956.6,163.1,957.4,163.7,957.2,165.5z M956.3,141.7c2.3,1,2.3,1,3.1,4.2C957.6,145.1,956.8,143.6,956.3,141.7z M962.6,169.1
		c-0.9-0.8-1.7-1.7-1.8-3.4C963.9,166.2,962.1,168.1,962.6,169.1z M961,123.1c-1.2-0.7-0.8-1.7-0.3-2.6c0.8,0.5,1.7,1,2.6,1.5
		C962.7,122.7,961.9,123,961,123.1z M958.2,244.9c2-0.4,2.7,0.5,2.6,2.7C958.1,248.1,957.5,247.2,958.2,244.9z M961.9,231.5
		c-2.9-1.5,3.1-5.7-1.9-6.3c1.5-0.3,3.1-0.5,5.6-0.9C963.2,226.6,963.7,229.5,961.9,231.5z M971,207.3c-1.8-2.1-1.1-3.2,1.2-4
		C973.1,205,972.1,206,971,207.3z M970.2,110.6c-1.7-1.8-0.8-3.5,0-5.6c1.9,1.2,3.5,2.2,4,4.2C973.3,111.4,971.8,111.1,970.2,110.6z
		 M978.7,103.5c-1.1-1.1-2.2-1.8-1.6-3.2c1.4-0.2,2,0.7,2.4,1.8C979.3,102.4,979.1,102.7,978.7,103.5z"/>
	<path class="st3" d="M982,261.3c-4.1-1-4.3-3.9-4.4-7.2c-3.2-0.7-5.5-2.9-8-4.1c-1.1-2.1,0.3-3.5,0.6-5c-1.4-0.2-2.7,0.1-3.6,0.8
		c-2.2-0.8-3.1-2.5-4.3-3.7c-1.3-1.1-3.3-1.3-3.9-3.3c-2.4-0.1-2.4,2.9-4,3.4c-1.6-0.2-1.8-2.3-3.6-1.4c-2.2,1.6-2.5,4.3-3.2,6.8
		c1.7,3.5,3.3,6.9,5,10.3c6.7,0.8,10.2,8.6,17.6,7.5c0.7,1.8,1,3.7,3.4,5.1c4.3,0.8,8.7-0.6,13.2-3.6
		C984.4,265.4,984.5,261.9,982,261.3z"/>
	<path class="st2" d="M653.6,237.5c4.4-11.7,9.9-23,10.5-36.3c2.3-0.8,4.4-2.4,5.1-4.8c0.4-2.7-1.3-5-0.1-7.3
		c9.8-22.5,12.9-47.2,21.8-70.5c-0.7-1.1-1.5-2.6-2.3-4c-2.3-0.4-4.2-1.1-5-2.1c-1.3-1.9,0.3-3.4-1.2-4.3c-10.2-8-20.4-16-33.1-17.9
		c-9,20.5-15.6,41.4-20.4,64.2c-4.1,3.8-3,10.8-4.9,16.7c-1,3.3-4.4,6.4-2.7,10.5c1.1-0.2,2.2-0.3,3.5-0.5c0.3,2.5-1.5,2.9-3.1,3.4
		c0.8,4.2-3.2,3.1-4.6,4.5c-1.1,8.2-3.8,16.1-6.5,23.4c-2.4,6.6-2.5,12.5-2,19.1c-1.1,0.4-1.9-1.7-3-0.7c-4.9,4.6,2.2,8.5,0.6,13.2
		c-2.2-0.7-4.4-1.6-5.4,1c-1.9,7,3.5,7.5,7.7,9.2c0.4-1.3,0.8-2.6,2.6-2.6c0.5,1.6-0.4,3-0.6,4.5c0.1,0.5,0.2,1,0.3,1.5
		c0.2,2.9,3.1,4.6,3.5,7.5c-3.7-1-5.6-2.9-4.1-6.7c-1.3,0.7-2.6,1.4-3.9,2.1c-3.4-1.8-6.3-1.6-8.7,1.4c0.7,1.5,1.7,2.1,2.9,2.6
		c-0.2,3.4-4.2,1.7-4.9,3.1c-0.8,2.8,1.7,4,1.1,5.9c-0.9,1.3-2.8,0.6-3.7,2.4c0.1,1.1,0.3,2.5,0.6,4.4c2.6-1.2,4.1,0.9,6.2,1.6
		c0.5-1,1.1-2,1.5-2.9c1.8,0,2.2,1.1,2.6,1.9c-0.7,1.8-1.9,2.3-3.3,2.3c-0.1,3.3-3.9,2.3-4.6,4.5c-3,0.3-5.1-0.4-6.7-2.5
		c-0.7,1.4-2.5,1.2-3.7,2.6c3.3,3.5-1.2,5.2-2.1,7.5c5.9,12.6,19.7,11.2,28.6,17.7c2.7-2.3,5.7-2.8,8.5-4.2c-1.2-1.7-2.2-2.9-3-4
		c-1.8-0.9-3.1,2.1-5-0.2c1.3-1.9,1.5-4.4,1.7-7.2c1.2,1.2,0.5,2.6,1.8,3.1c1.8-0.7,1.2-3.5,3.6-3.9c0.9,0.3,1.9,0.7,2.7,1
		c2.3-0.6,3-3.2,5.6-3.1c1.8-0.3,1,2.6,2.9,2.5c1.8-1.2,3.3-2.7,4.1-4.9c-0.3-2.2-1.2-4.4-0.3-6.6c0.7-1.7,3.3-0.5,4-2.7
		c0.8-1.2-1.5-1.5-1.2-3c1.7-1.7,3.9-3.2,5-5.7c0-1.5-2.5-1.6-2-3.2c5.1-6.5,6-14.4,8.8-21.5c0.5-1,2.3-0.3,3-2.5
		C650.9,244.1,654.8,240.9,653.6,237.5z M612.6,234.3c-3.1-2.5-0.3-2.7,1.1-3.7C614.3,232.6,613.1,233.2,612.6,234.3z M606.8,269.1
		c1.7,1.9,1.2,3.3-0.4,4.6c-0.1-1.7-2.5-1.9-2.6-3.5C604.5,268.7,605.7,269.1,606.8,269.1z M602.9,276.8c0.2-2.3,2.3-2,3.4-2.9
		c0.2,2,0.3,4.1,3.7,4.9C606,280.3,604.4,278.6,602.9,276.8z M610.1,296.4c1.5-5.5-2.5-7.1-4.8-9.6c1.9-1.7,3.6,1.8,5.7-0.7
		c-0.4,4,1.1,6.1,4.9,6.8C613.7,292.9,612.9,294.7,610.1,296.4z M622.6,229c-1.5-0.4-2.2-1.2-2.4-2.7
		C622,226.5,622.9,227.2,622.6,229z M630.3,232.5c1-0.3,1.6,0.1,2,0.8c1.4,2.2,0.9,3.5-1.8,4.2C629.2,235.2,629.5,233.8,630.3,232.5
		z M633.9,252.3c-1.5,0.1-3.1,0.2-4.6,0.3C630.2,250,632.3,251.9,633.9,252.3z M629.1,253c-0.2,1.5,1.3,2.4,1.8,4
		C627.7,256.4,628.4,254.7,629.1,253z M625.5,269.9c0.7-1.9,2-1.2,3.1-1.2c1,0,1.9-0.1,3.3-0.2c0.3,1.5,0.2,3.1-0.9,5.1
		C628.5,272.9,626.2,272.4,625.5,269.9z M632.1,278.3c-1-1.4-0.6-2.1,1.1-2.2C634.3,277.6,633.7,278.2,632.1,278.3z M633.8,257.5
		c1.4-2.7,2.1-1.9,2.8-0.8C636.1,258.1,635.2,257.7,633.8,257.5z M636.6,262.9c2.6-0.4,3.2,1.3,4.5,3.8
		C637.4,266.8,636.3,265.7,636.6,262.9z M638.1,251.7c1.6,1,3.6-0.7,4.6,2.2C640.3,254.6,639.2,253.8,638.1,251.7z M640.9,230.3
		c-1.2-2.5,0-2.5,2.1-2.2C642.8,230.2,642,230.5,640.9,230.3z"/>
</g>
</svg>
